<?xml version="1.0" standalone="no"?>
<!DOCTYPE svg PUBLIC "-//W3C//DTD SVG 1.1//EN" "http://www.w3.org/Graphics/SVG/1.1/DTD/svg11.dtd" >
<svg xmlns="http://www.w3.org/2000/svg">
<metadata></metadata>
<defs>
<font id="baveuseregular" horiz-adv-x="1646" >
<font-face units-per-em="2048" ascent="1638" descent="-410" />
<missing-glyph horiz-adv-x="595" />
<glyph unicode="&#xd;" horiz-adv-x="595" />
<glyph unicode=" "  horiz-adv-x="595" />
<glyph unicode="&#x09;" horiz-adv-x="595" />
<glyph unicode="&#xa0;" horiz-adv-x="595" />
<glyph unicode="!" horiz-adv-x="573" d="M504 1749l-82 -1346l-211 -10l-156 1344zM471 244l-22 -273h-318v273h340z" />
<glyph unicode="&#x22;" horiz-adv-x="790" d="M721 1737l-66 -557l-227 8l-16 383l-50 -451l-202 66l-97 551h658z" />
<glyph unicode="#" horiz-adv-x="837" d="M762 801l-86 10v-164l82 -2v-233l-84 10l-6 -111l-179 -8v156l-92 10l4 -180l-245 12l8 123h-82v231l82 -8l-4 166l-86 -4v244l88 -15v142l164 14l-19 -170h119v156l270 -9l-16 -131l80 2zM504 588l-15 252h-129l23 -242z" />
<glyph unicode="$" horiz-adv-x="1218" d="M1147 449q-2 -240 -449 -256v-166h-166v172h-448l57 286l426 -34v147l-32 -2q-14 -2 -28.5 -2h-27.5q-205 0 -310.5 88t-105.5 250q0 203 118 306t343 112l39 6l4 174h166v-172l416 14l-14 -489l-381 39l-6 -150h34q193 0 284 -63.5t91 -188.5zM596 928 q-168 -12 -168 -88q0 -74 176 -78zM862 537q0 74 -133 73l4 -172h8q113 0 121 88v11z" />
<glyph unicode="%" horiz-adv-x="1402" d="M1329 184q-72 -213 -244 -213h-127q-205 0 -223 232l-20 252l-228 -500l-274 27l418 917q-96 -104 -178 -106l-127 6h-15q-229 0 -237 288l-8 238q16 268 251 274l134 5h14q109 0 162 -67t53 -194l-2 -352l235 631l363 -16l-506 -944q104 66 195 65l122 -2 q166 -2 232 -240v-4zM549 1010q4 20 4 28q0 70 -123 99q-207 -16 -207 -111q0 -106 152 -106q145 0 174 90zM1174 160q4 20 4 28q0 70 -123 99q-184 -16 -185 -115q0 -102 142 -102q133 0 162 90z" />
<glyph unicode="&#x26;" horiz-adv-x="1464" d="M1413 2l-481 -51l-101 123q-37 -102 -346 -111q-96 6 -170.5 51t-125 120t-77 178.5t-26.5 226.5l-6 16q0 55 14.5 120.5t45 124t77.5 101.5t115 55l-205 355l-18 297l1026 -39l53 -531h-637l328 -313l53 94h448l-364 -409zM676 326l-211 280q-63 0 -98 -26.5t-35 -85.5 t21.5 -92t74.5 -42z" />
<glyph unicode="'" horiz-adv-x="460" d="M412 1716l-25 -250l-139 -368l-154 149l109 195l-154 -15l23 324z" />
<glyph unicode="(" horiz-adv-x="477" d="M410 1776l-9 -248l-96 8q-6 -1051 -6 -1370q0 -59 1 -92t1 -43h107l-5 -205h-102q-217 0 -217 321l-4 1264q0 342 239 367z" />
<glyph unicode=")" horiz-adv-x="483" d="M381 158q-10 -336 -209 -332l-102 2l14 215l133 -6q-20 715 -31.5 1088.5t-13.5 408.5l-109 2v231l109 11q238 -16 238 -361v-26z" />
<glyph unicode="*" horiz-adv-x="1601" d="M1446 551l-547 344l182 -729l-444 18l96 703l-528 -441l-178 445q47 12 202.5 53t425.5 113l-391 289q4 2 10.5 2t10.5 2q10 8 40.5 33.5t71.5 59.5t87 70.5t86 70.5t70 57.5t38 29.5l106 -577l267 680l462 -258l-509 -437q147 -6 283 -12t267 -10z" />
<glyph unicode="+" horiz-adv-x="741" d="M707 680l-193 -4l-14 -318l-248 -12l-16 277l-189 14l-12 266l203 -12l12 289l278 18l-65 -315l235 8z" />
<glyph unicode="," horiz-adv-x="432" d="M383 252l-23 -244l-131 -327l-143 135l96 159h-133l12 256z" />
<glyph unicode="-" horiz-adv-x="806" d="M725 977l-47 -426h-588v426h635z" />
<glyph unicode="." horiz-adv-x="509" d="M426 244l-25 -273h-311v273h336z" />
<glyph unicode="/" horiz-adv-x="761" d="M739 1606l-428 -1651l-299 20l549 1627z" />
<glyph unicode="0" horiz-adv-x="1683" d="M1532 465q-41 -477 -395 -490l-635 -22h-17q-354 0 -403 502l-2 606q-2 268 114.5 405.5t317.5 137.5l690 -25q383 -14 383 -428q0 -18 -1 -36.5t-3 -39.5zM522 1016v-649l778 -37v667z" />
<glyph unicode="1" horiz-adv-x="808" d="M729 1587l-57 -1605l-353 -15l23 1086l-145 -99l-172 389l270 287z" />
<glyph unicode="2" horiz-adv-x="1550" d="M1477 385l-82 -405l-1317 -50l39 492v16q0 176 116.5 269.5t346.5 93.5h34l560 -17q47 0 71.5 26t24.5 85t-22.5 85t-71.5 26l-928 -56l-58 643l752 -4q532 -4 533 -497v-21q0 -248 -131.5 -375t-360.5 -127l-483 4q-160 -16 -160 -233z" />
<glyph unicode="3" horiz-adv-x="1456" d="M1368 457q-90 -455 -494 -480l-739 -45l-33 443l973 16q8 -2 25 -2q47 0 73.5 30t26.5 85q0 70 -96 74l-596 14l-10 254l338 178l-748 -41v647l1270 -88l-31 -416l-455 -225q23 2 42.5 3t39.5 1q424 0 424 -375v-20z" />
<glyph unicode="4" horiz-adv-x="1280" d="M1208 168h-112l-4 -186h-416l35 200l-654 -43l-28 342l708 1159l355 -41v-1067l100 9zM946 1001l-465 -491l437 22z" />
<glyph unicode="5" horiz-adv-x="1527" d="M1454 457q0 -33 -8 -81t-28.5 -102.5t-55.5 -107.5t-86 -97t-124 -71t-167 -27h-22.5t-22.5 2l-745 47l-41 326l1015 39q119 2 119 98q0 55 -24.5 80t-75.5 25l-1055 -27l-55 1065l1323 -59l16 -586h-1042l-23 -172l629 -10q461 -8 473 -342z" />
<glyph unicode="6" horiz-adv-x="1597" d="M1520 467q-25 -471 -506 -502l-412 23q-494 27 -506 461l-16 579v25q0 270 151.5 413.5t442.5 143.5l756 -13v-612l-852 6q-127 -23 -127 -123q0 -25 6 -51q72 35 200 41l365 14h45q408 0 457 -325zM1192 477q0 57 -31 85t-102 28l-604 -4h-19q-106 0 -106 -115 q0 -94 114 -104l629 10q8 -2 21 -2q94 0 98 102z" />
<glyph unicode="7" horiz-adv-x="1429" d="M1395 1618l-609 -1665l-444 27l508 1024l-768 -31l-25 645h1338z" />
<glyph unicode="8" horiz-adv-x="1683" d="M1589 358q-37 -377 -510 -383l-413 -6q-256 0 -385 82t-129 262q0 240 229 357q-254 94 -254 411q0 131 40 228.5t110.5 164t167 100.5t206.5 38l441 10q248 0 371.5 -137t123.5 -424q0 -129 -45 -220t-156 -157q203 -56 203 -326zM1329 915q0 98 -92 99h-12l-545 -35 q-100 -6 -100 -107q0 -74 82 -77l559 -23q96 6 108 123v20zM1149 496q0 94 -90 94q-20 0 -31 -2l-414 10q-80 0 -117.5 -28.5t-37.5 -94.5q0 -98 110 -98l459 4q121 0 121 115z" />
<glyph unicode="9" horiz-adv-x="1605" d="M1518 532q-10 -547 -582 -577l-729 49v342l766 -43h16q156 0 156 186v20.5t-2 22.5q-78 -55 -225 -67l-300 6q-551 12 -550 600q0 256 130 389t380 142l469 14h24q231 0 343 -135t112 -406zM1157 844q0 133 -180 139l-418 12q-86 0 -135 -37.5t-49 -121.5q0 -88 94 -115 l526 -31h17q129 0 145 133v21z" />
<glyph unicode=":" horiz-adv-x="528" d="M444 1040l-20 -323l-334 14l-10 295zM440 244l-24 -273h-314v273h338z" />
<glyph unicode=";" horiz-adv-x="475" d="M418 1020l-23 -293h-319v297zM393 -2l-145 -311l-150 131l105 149l-131 6l-9 263l330 16v-254z" />
<glyph unicode="&#x3c;" horiz-adv-x="608" d="M557 1075l-266 -272l252 -363l-166 -268l-365 598l416 600z" />
<glyph unicode="=" horiz-adv-x="722" d="M639 1108l-35 -268l-516 14l-6 229zM635 680l-35 -221h-500v221h535z" />
<glyph unicode="&#x3e;" horiz-adv-x="612" d="M596 762l-365 -594l-174 274l222 316l-230 315l166 299z" />
<glyph unicode="?" horiz-adv-x="1273" d="M1214 1006q-4 -111 -34.5 -182.5t-79.5 -115.5t-112.5 -65.5t-137.5 -34.5q-147 -25 -148 -164v-16l5 -88l-406 8q-12 57 -12 111q0 86 36.5 150.5t99 106.5t147.5 62.5t182 20.5h65q72 0 114 28.5t42 87.5q0 47 -47 71t-135 24l-732 -17l25 582l659 35h31q84 0 163 -27 t140.5 -89t98 -167.5t36.5 -263.5v-57v0zM729 244l-29 -275h-391v275h420z" />
<glyph unicode="@" horiz-adv-x="1470" d="M1325 846q-39 -248 -127 -366t-229 -118l-385 9q-131 2 -156 145l-12 238q6 109 48 159t120 50l264 -9q74 -4 111.5 -43t37.5 -123q0 -8 -1 -15t-1 -15l-18 -221h24q41 0 63.5 62.5t22.5 186.5q0 123 -15 184.5t-52 63.5l-639 10q-117 0 -119 -112q0 -10 1 -21.5t3 -21.5 l23 -465q6 -147 100 -168l842 -41l4 -162l-627 19q-254 8 -376.5 121.5t-133.5 355.5l-20 450q0 10 -1 19.5t-1 19.5q0 199 93 304.5t267 105.5h31l553 -27q322 -14 321 -387q0 -41 -4 -88t-12 -100zM905 463v248l-297 8v-250z" />
<glyph unicode="A" d="M1587 0q-16 -2 -32.5 -2h-32.5q-197 0 -260 123q-72 -150 -248 -170l-430 29q-508 35 -508 458q0 205 120.5 319.5t366.5 114.5q12 0 24.5 -1t26.5 -1l498 -24q141 -6 201 -133q8 41 8 82q0 156 -154 184l-997 -53l14 610l830 35h39q244 0 354.5 -137.5t116.5 -432.5 l14 -739q2 -178 49 -262zM1323 473q0 57 -16.5 87t-57.5 32l-653 33q-68 -4 -68 -138q0 -94 93 -94h14l610 -26q39 0 58.5 24.5t19.5 81.5z" />
<glyph unicode="B" horiz-adv-x="1679" d="M1532 336q-43 -190 -153.5 -278.5t-291.5 -88.5l-1021 19v1589l1017 -2q20 2 39 3t37 1q201 0 287 -100.5t86 -302.5q0 -291 -160 -392q180 -76 180 -290q0 -76 -20 -158zM1071 897q0 39 -108 98l-654 -20l6 -168l623 -10q133 18 133 100zM1219 465q4 20 4 31 q0 61 -66 61l-815 8l55 -209l719 41q20 -4 31 -4q56 0 72 72z" />
<glyph unicode="C" horiz-adv-x="1675" d="M1327 885l-82 153l-911 47l43 -737h827l74 84l293 -221q-59 -199 -346 -223l-678 -62q-434 2 -451 496l-20 665v29q0 438 456 500l695 10q332 -43 381 -274z" />
<glyph unicode="D" horiz-adv-x="1818" d="M1679 453q-35 -489 -397 -488l-1147 6v1592l1129 106q459 -16 458 -518v-36.5t-2 -37.5zM1208 307v774l-870 -98v-676h870z" />
<glyph unicode="E" horiz-adv-x="1660" d="M1561 1032q-4 -512 -502 -512q-10 0 -20.5 1t-20.5 1l-471 21q0 -178 102 -201l803 37l-33 -397l-719 30q-156 6 -265 40t-179 96.5t-102.5 155.5t-32.5 222l-49 553q-2 16 -2 32.5v33.5q0 432 548 457l445 20q254 0 376 -146.5t122 -443.5zM1102 885q-4 104 -74 104h-8 l-559 12q-133 -10 -133 -172q0 -14 1 -27.5t3 -27.5l667 8h15q47 0 67.5 26t20.5 77z" />
<glyph unicode="F" horiz-adv-x="1411" d="M1343 1679l-104 -688l-934 -53l8 -158l998 -49l-80 -205l-782 25l-39 -582l-332 17l100 1556z" />
<glyph unicode="G" horiz-adv-x="1685" d="M1231 895l-51 109l-815 -11q14 -612 24 -626l637 -2q10 -2 29 -3q158 0 159 199l-448 -47l22 289l775 67l-56 -876l-270 -27l-94 242q-6 -238 -273 -238h-20l-307 9q-369 10 -422 462v654q-4 33 -6 63.5t-2 59.5q0 395 407 397l656 4q305 -41 419 -315z" />
<glyph unicode="H" horiz-adv-x="1579" d="M1491 1595l-107 -1581l-374 -51v651l-500 -26l-47 -627l-258 12l-182 1626l595 21l64 -639h496v641z" />
<glyph unicode="I" horiz-adv-x="534" d="M463 1591l-119 -1577l-264 -55l-55 1686z" />
<glyph unicode="J" horiz-adv-x="1284" d="M1223 1589l-121 -1106q8 -35 12 -67.5t4 -63.5q0 -88 -33.5 -158.5t-86 -120.5t-115 -79t-119.5 -31l-731 -29v439l778 -33l-96 1290z" />
<glyph unicode="K" horiz-adv-x="1769" d="M1698 1632l-694 -788l614 -844l-531 -84l-333 653l-322 -258l29 -336h-250l-191 1624l619 37v-723l535 764z" />
<glyph unicode="L" horiz-adv-x="1327" d="M1327 381l-39 -401l-1204 -62l-80 1727l619 -54l-154 -1288z" />
<glyph unicode="M" horiz-adv-x="1986" d="M1888 -53l-493 24v1094l-381 -31l-35 -1061h-281v1108l-383 -26v-1057l-194 -27l-70 1626q254 -6 340 -188q41 217 295 219l787 10q211 0 316 -136t99 -392v-1163z" />
<glyph unicode="N" horiz-adv-x="1603" d="M1479 -6h-353l39 1010h-663l-76 -1055l-350 55l-49 1628q287 -41 338 -217q115 188 280 191l428 6q213 0 328 -114t115 -343v-29z" />
<glyph unicode="O" horiz-adv-x="1742" d="M1597 453q-16 -246 -111 -366t-288 -136l-639 22q-371 12 -469 494l-16 639q10 100 45 188t89 155t128 110t164 53l702 -15q217 -4 325.5 -125.5t108.5 -351.5q0 -14 -1 -27.5t-1 -27.5zM1147 287l-47 743l-772 -51l-37 -670z" />
<glyph unicode="P" horiz-adv-x="1564" d="M1503 907q0 -223 -96 -345t-301 -144l-563 35l-35 -461l-402 -33v1628l934 66q455 -23 461 -561zM1090 893q2 6 2 13v14q0 90 -121 90h-19l-645 -29l-16 -182l692 -33q89 8 107 127z" />
<glyph unicode="Q" horiz-adv-x="1671" d="M1593 442q-4 -373 -325 -399l108 -117l-237 -297l-254 357q-10 -4 -38 -4h-77t-118.5 1t-159.5 3q-209 4 -308.5 119.5t-109.5 353.5l-27 596q-2 14 -2 26.5v26.5q0 238 102.5 368t296.5 132l734 6q205 0 313 -137.5t106 -405.5zM1300 973l-888 -4q0 -51 -1 -97.5 t-1 -87.5q0 -420 26 -419l307 -5l-30 54l225 309l188 -399q104 10 152.5 42.5t48.5 90.5z" />
<glyph unicode="R" horiz-adv-x="1832" d="M1655 842q-59 -379 -561 -387l424 -467h-541l-301 514l-176 -17l-11 -483l-335 -27l-105 1637l1096 10q266 0 397 -136t131 -419q0 -102 -18 -225zM1397 870q-4 53 -34 76t-89 23l-979 -27l14 -147l973 -62q61 20 88 55t27 82z" />
<glyph unicode="S" horiz-adv-x="1574" d="M1477 328q-8 -90 -41 -156t-95.5 -109t-156.5 -65.5t-223 -24.5l-834 -22l39 436l905 -68h8q88 0 88 125q0 100 -120 105l-467 10q-489 10 -490 453q0 274 123 428.5t352 163.5l887 30v-714l-856 84q-115 -10 -115 -119q0 -102 76 -101l471 15h29q207 0 318.5 -83 t111.5 -247v-21.5t-2 -21.5z" />
<glyph unicode="T" horiz-adv-x="1466" d="M1386 1655l-63 -639l-455 -23l-32 -997l-301 -41l-39 1085l-406 -36l-67 602z" />
<glyph unicode="U" horiz-adv-x="1693" d="M1616 1534l-88 -1051q0 -260 -80 -388t-254 -128h-22.5t-22.5 2l-582 -20q-397 29 -397 475v35l-135 1136l540 27l70 -1216h574l75 1101z" />
<glyph unicode="V" horiz-adv-x="1705" d="M1645 1614l-641 -1716l-443 84l-489 1540l356 59l379 -1063l328 1075z" />
<glyph unicode="W" horiz-adv-x="2506" d="M2435 1534l-481 -1632l-383 71l-215 762l-359 -774l-323 16l-682 1616l594 -26l260 -1032l164 1052l630 -28l211 -1065l232 999z" />
<glyph unicode="X" horiz-adv-x="1781" d="M1694 1556l-580 -729l498 -833l-406 -57l-276 583l-305 -518l-492 -65l539 739l-568 907l467 12l281 -528l278 504z" />
<glyph unicode="Y" horiz-adv-x="1497" d="M1446 1616l-551 -1178l20 -467l-403 -39l25 545l-455 1217l383 -35l174 -733l379 704z" />
<glyph unicode="Z" horiz-adv-x="1574" d="M1483 1061l-998 -686l932 108v-489l-1288 -76l-20 424l829 637l-854 -18l18 643h1262z" />
<glyph unicode="[" horiz-adv-x="559" d="M487 1769l-34 -321l-109 6l-80 -1382l205 -43l-10 -265l-357 -20l-61 1915z" />
<glyph unicode="\" horiz-adv-x="716" d="M627 16l-191 -53l-504 1679l369 -51z" />
<glyph unicode="]" horiz-adv-x="612" d="M524 1776l-131 -1958l-291 -74l-10 293l127 -10v1349l-125 72l-31 315z" />
<glyph unicode="_" horiz-adv-x="1130" d="M1067 -156l-94 -217l-885 -43l-10 312z" />
<glyph unicode="`" horiz-adv-x="1341" d="M1010 1645l-228 -17l-223 287l328 -21z" />
<glyph unicode="a" d="M1591 12q-47 -6 -88 -6q-182 0 -243 113q-72 -147 -244 -166l-430 31q-514 37 -514 471q0 197 123.5 306t377.5 109h48l501 -18q121 -6 172 -117q16 66 17 107q0 150 -156 157l-979 -55v584l821 43h45q248 0 383.5 -139.5t135.5 -407.5v-37l-27 -776v-29q0 -143 57 -170z M1282 483q-4 109 -72 121l-600 21q-37 2 -59.5 -32t-22.5 -101q0 -96 105 -99l579 -12q70 -2 70 102z" />
<glyph unicode="b" horiz-adv-x="1679" d="M1542 334q-72 -342 -459 -367l-1030 31l45 1624l977 -31q129 -4 218 -30.5t142.5 -80t77 -133t23.5 -190.5q0 -276 -166 -371q188 -84 189 -309q-1 -61 -17 -143zM1073 899q-2 47 -21.5 65.5t-42 23.5t-38 3t-8.5 4l-668 -37l18 -151l621 -14q74 10 106.5 37.5t32.5 68.5 zM1217 465q2 10 2 31q0 57 -62 61l-835 16l75 -215l723 50q18 -8 37 -9q48 0 60 66z" />
<glyph unicode="c" horiz-adv-x="1675" d="M1335 889l-90 151l-893 70l19 -762h815l94 84l285 -221q-53 -201 -334 -225l-680 -64q-428 59 -428 445q0 20 1 39.5t3 39.5l-64 627q-2 18 -3 36.5t-1 35.5q0 205 124 325.5t352 151.5l696 14q319 -57 373 -284z" />
<glyph unicode="d" horiz-adv-x="1818" d="M1671 444q-27 -457 -397 -487l-1172 27l41 1599l1129 103q438 -37 438 -533v-36.5t-2 -37.5zM1192 326v753l-860 -102l22 -672z" />
<glyph unicode="e" horiz-adv-x="1660" d="M1573 1026q-2 -481 -563 -512l-473 29q6 -182 110 -201l809 47l-35 -401l-739 12q-555 8 -555 483v23.5t2 23.5l-53 553q-2 18 -3 37t-1 35q0 440 542 455l449 12q254 0 382 -156.5t128 -439.5zM1102 885q-4 104 -74 104h-8l-551 12q-70 0 -104.5 -39.5t-34.5 -127.5 q0 -14 1 -30t3 -32l684 10h12q72 1 72 103z" />
<glyph unicode="f" horiz-adv-x="1411" d="M1352 1696l-127 -707l-926 -57l16 -152l990 -28l-76 -228l-795 27l-37 -596l-327 33l116 1575z" />
<glyph unicode="g" horiz-adv-x="1685" d="M1241 909l-61 84h-834l43 -626l643 -13q94 0 137 48.5t43 158.5l-446 -47l18 287l789 73l-84 -882l-252 -25l-88 240q-12 -240 -277 -240h-26l-309 13q-8 0 -15.5 -1.5t-15.5 -1.5q-338 0 -397 469l14 658q-4 33 -6 61.5t-2 57.5q0 199 97 290t296 95l651 14 q326 -41 438 -315z" />
<glyph unicode="h" horiz-adv-x="1579" d="M1483 1595l-133 -1585l-338 -49l14 637h-518l-53 -645l-254 20l-213 1588l616 65l80 -639h477v625z" />
<glyph unicode="i" horiz-adv-x="534" d="M461 1599l-152 -1589l-243 -51v1663z" />
<glyph unicode="j" horiz-adv-x="1284" d="M1225 1595l-146 -1114q31 -90 31 -164q0 -76 -29.5 -139t-79 -109t-112 -74t-125.5 -30l-752 -41l13 449l770 -51l-113 1323z" />
<glyph unicode="k" horiz-adv-x="1769" d="M1683 1624l-704 -776l616 -850l-510 -84l-313 645l-342 -240l27 -352l-250 8l-221 1586l628 81l29 -718l537 768z" />
<glyph unicode="l" horiz-adv-x="1327" d="M1309 381l-29 -401l-1235 -70v1712l576 -18l-172 -1319z" />
<glyph unicode="m" horiz-adv-x="1986" d="M1905 -41l-514 16l26 1121l-405 -56l-56 -1060l-237 -7l-43 1106l-336 -26v-1069l-219 -9l-96 1598q12 0 24 1t25 1q233 0 313 -170q41 219 299 225l793 21q201 -20 304 -153.5t122 -385.5v-1153z" />
<glyph unicode="n" horiz-adv-x="1603" d="M1448 4l-324 -12l56 1024h-686l-68 -1047l-342 27l-94 1683q315 -88 370 -264q121 188 285 193l424 4q213 0 327.5 -110.5t114.5 -321.5v-41z" />
<glyph unicode="o" horiz-adv-x="1742" d="M1589 444q-12 -238 -108.5 -358.5t-290.5 -142.5l-645 37q-360 23 -453 493l-35 623q16 104 55.5 195t95.5 159t131 111t161 53l717 2q410 -37 409 -492q0 -14 -1 -28.5t-1 -30.5zM1143 305l-60 723l-759 -53l-17 -670h836z" />
<glyph unicode="p" horiz-adv-x="1564" d="M1499 903q0 -217 -95 -337t-296 -144l-561 39l-51 -477l-365 -25v1645l916 57q444 -18 450 -561zM1087 893q0 4 1.5 10t1.5 10q0 96 -121 97h-19l-647 -33l-8 -180l684 -17q92 -2 108 113z" />
<glyph unicode="q" horiz-adv-x="1671" d="M1577 432q-8 -186 -80 -280.5t-225 -106.5l104 -119l-229 -286l-264 352q-35 -10 -174 -10q-43 0 -96.5 1t-116.5 3q-215 6 -314.5 118.5t-103.5 346.5l-15 604v32q0 522 381 521l721 -4q215 -4 327 -128t112 -360v-37zM1290 973l-882 -10q12 -608 28 -598l303 -9l-26 58 l217 301l186 -387q209 16 211 131z" />
<glyph unicode="r" horiz-adv-x="1832" d="M1638 823q-57 -356 -542 -362l426 -465l-559 -27l-301 535l-160 -17l-10 -481l-332 -22l-123 1654l1083 -14q541 -6 541 -549q0 -57 -6.5 -119.5t-16.5 -132.5zM1395 868q-4 53 -34 77t-89 24l-983 -33l22 -141l965 -41q119 14 119 104v10v0z" />
<glyph unicode="s" horiz-adv-x="1574" d="M1477 328q-31 -360 -506 -361h-848l37 414l893 -62h14q98 0 98 111q0 113 -118 119l-465 16q-502 18 -502 432q0 293 129 444.5t358 166.5l903 51l-22 -729l-873 76q-43 -6 -68.5 -37t-25.5 -84q0 -102 76 -101l483 15h27q414 0 418 -373z" />
<glyph unicode="t" horiz-adv-x="1466" d="M1352 1669l-41 -655l-451 -23v-1009l-325 -23l-56 1065l-397 -20l-72 587z" />
<glyph unicode="u" horiz-adv-x="1693" d="M1608 1534l-103 -1053q0 -18 1 -36.5t1 -36.5q0 -444 -315 -445h-16.5t-18.5 2l-592 -4q-205 -2 -305 117t-100 354v27l-150 1108l551 59l90 -1212h572l43 1075z" />
<glyph unicode="v" horiz-adv-x="1705" d="M1634 1614l-643 -1729l-420 90l-510 1581l363 21l358 -1059l330 1049z" />
<glyph unicode="w" horiz-adv-x="2506" d="M2429 1534l-500 -1593h-317l-258 755l-338 -747l-285 18l-776 1583l616 23l279 -1024l168 1055l606 -56l201 -1050l272 1005z" />
<glyph unicode="x" horiz-adv-x="1781" d="M1683 1556l-575 -735l526 -839l-430 -37l-282 567l-310 -510l-489 -76l526 758l-540 918h464l263 -545l282 516z" />
<glyph unicode="y" horiz-adv-x="1497" d="M1438 1616l-551 -1186l39 -465l-416 -24l18 528l-473 1225l402 -43l164 -717l401 706z" />
<glyph unicode="z" horiz-adv-x="1574" d="M1468 1065l-976 -674l933 107l-18 -504l-1290 -84v428l815 661l-862 -51l18 672l1249 -45z" />
<glyph unicode="|" horiz-adv-x="360" d="M254 1475v-1778l-150 -16v1826z" />
<glyph unicode="&#xa1;" horiz-adv-x="573" />
<glyph unicode="&#xa2;" horiz-adv-x="1216" d="M956 797l-57 98l-151 10v-459h112l62 56l182 -144q-16 -63 -69.5 -101t-145.5 -46l-152 -12v-342l-176 -17v342l-112 -12q-276 39 -277 289v24.5t2 26.5l-41 405q-2 12 -2 24.5v23.5q0 268 307 309l150 2v393l176 -33v-356l125 2q207 -37 241 -184zM573 920l-254 20 l13 -496h241v476z" />
<glyph unicode="&#xa3;" horiz-adv-x="1923" d="M1313 924l-90 151l-623 35l6 -260l400 10v-254l-394 10l6 -268h816l45 -362l-1327 -49l-60 358l299 8l-33 275l-243 6v252l219 -25l-23 262q-2 16 -2 34.5v35.5q0 434 473 499l439 19q307 -27 360 -254z" />
<glyph unicode="&#xa5;" horiz-adv-x="1497" d="M1438 1616l-502 -828l225 7l-18 -215h-355l11 -136h356l-61 -178h-207l39 -301l-416 -24l-25 323h-245l-9 182l316 9l4 133h-340l-10 190h252l-398 916l402 -43l164 -717l401 706z" />
<glyph unicode="&#xa8;" horiz-adv-x="1345" d="M1255 1923l-43 -272h-256v274zM809 1925v-278h-289v278h289z" />
<glyph unicode="&#xa9;" horiz-adv-x="1695" d="M1688 831q0 -174 -68 -324.5t-183.5 -261t-270 -173t-326.5 -62.5q-176 0 -330 67.5t-268.5 184.5t-181 271.5t-66.5 328.5q0 172 68.5 324.5t185.5 267.5t272.5 181.5t329.5 66.5q172 0 324.5 -69.5t266 -189.5t180.5 -278t67 -334zM1616 848q0 164 -60.5 309.5 t-165 253t-242.5 169.5t-294 62q-158 0 -300 -60t-248.5 -163.5t-169 -243t-62.5 -296.5q0 -160 61.5 -301.5t166 -248t244.5 -168t298 -61.5q162 0 302 57.5t244.5 158t165 237.5t60.5 295zM1157 913l-57 97l-568 43l13 -478h518l59 54l183 -140q-37 -125 -213 -141 l-435 -41q-268 41 -268 283v22.5t2 24.5l-43 391q-2 12 -2 24.5v22.5q0 256 303 299l443 8q205 -37 237 -178z" />
<glyph unicode="&#xaa;" horiz-adv-x="940" d="M850 719q-12 -2 -23.5 -3t-21.5 -1q-94 0 -127 67q-33 -88 -125 -100l-221 18q-266 23 -266 279q0 119 63.5 184.5t194.5 65.5h24l260 -10q61 -2 88 -70q8 33 9 63q0 88 -80 95l-506 -33v348l424 25h22q127 0 198 -82t71 -242v-25l-13 -462v-19q0 -84 29 -98zM690 999 q0 61 -37 72l-309 12q-18 0 -30.5 -18t-12.5 -53q0 -68 53 -68l301 -6q35 0 35 61z" />
<glyph unicode="&#xab;" horiz-adv-x="1015" d="M960 1075l-266 -272l252 -363l-166 -268l-365 598l416 600zM557 1075l-266 -272l252 -363l-166 -268l-365 598l416 600z" />
<glyph unicode="&#xad;" horiz-adv-x="806" d="M725 977l-47 -426h-588v426h635z" />
<glyph unicode="&#xae;" horiz-adv-x="1286" d="M1069 1204q0 -96 -31.5 -184t-88 -157.5t-136.5 -110.5t-174 -41q-88 0 -166 37.5t-136 104.5t-93 157t-35 194q0 94 31.5 183.5t88 158t135.5 109.5t175 41q86 0 165 -38t137 -104.5t93 -157t35 -192.5zM1020 1208q0 80 -28.5 156t-79 135.5t-121 96t-152.5 36.5 q-78 0 -146.5 -33.5t-121 -91t-82 -135.5t-29.5 -164q0 -84 28.5 -160.5t79 -135t120 -92.5t151.5 -34q78 0 147.5 33t122 90.5t82 134t29.5 164.5zM918 1219q-18 -147 -181 -150l135 -178l-172 -4l-98 200l-53 -6l-6 -184l-107 -10l-33 626l351 5q170 4 170 -211 q0 -43 -6 -88zM836 1229q-2 37 -41 37l-314 -9l6 -57l312 -24q37 14 37 53z" />
<glyph unicode="&#xb4;" horiz-adv-x="1093" d="M1161 1909l-192 -279l-226 -14l150 293h268z" />
<glyph unicode="&#xb8;" horiz-adv-x="1658" d="M1141 -295q-10 -182 -178 -182h-23l-111 20l5 101l165 -27q33 0 52.5 17.5t19.5 58.5q0 39 -11 59.5t-42 18.5l-162 -7l92 203l146 6l-39 -84q86 -41 86 -159v-25v0z" />
<glyph unicode="&#xba;" horiz-adv-x="940" d="M854 981q-10 -154 -59.5 -221.5t-147.5 -77.5l-330 12q-188 6 -241 295l-8 381q10 121 68.5 205t150.5 96l362 -8q223 -6 223 -289v-28zM621 881l-25 444l-397 -31l-21 -399z" />
<glyph unicode="&#xbb;" horiz-adv-x="1097" d="M1042 762l-365 -594l-174 274l222 316l-230 315l166 299zM596 762l-365 -594l-174 274l222 316l-230 315l166 299z" />
<glyph unicode="&#xbf;" horiz-adv-x="1273" />
<glyph unicode="&#xc0;" d="M1010 1645l-228 -17l-223 287l328 -21zM1587 0q-16 -2 -32.5 -2h-32.5q-197 0 -260 123q-72 -150 -248 -170l-430 29q-508 35 -508 458q0 205 120.5 319.5t366.5 114.5q12 0 24.5 -1t26.5 -1l498 -24q141 -6 201 -133q8 41 8 82q0 156 -154 184l-997 -53l14 610l830 35 h39q244 0 354.5 -137.5t116.5 -432.5l14 -739q2 -178 49 -262zM1323 473q0 57 -16.5 87t-57.5 32l-653 33q-68 -4 -68 -138q0 -94 93 -94h14l610 -26q39 0 58.5 24.5t19.5 81.5z" />
<glyph unicode="&#xc1;" d="M1161 1909l-192 -279l-226 -14l150 291zM1587 0q-16 -2 -32.5 -2h-32.5q-197 0 -260 123q-72 -150 -248 -170l-430 29q-508 35 -508 458q0 205 120.5 319.5t366.5 114.5q12 0 24.5 -1t26.5 -1l498 -24q141 -6 201 -133q8 41 8 82q0 156 -154 184l-997 -53l14 610l830 35 h39q244 0 354.5 -137.5t116.5 -432.5l14 -739q2 -178 49 -262zM1323 473q0 57 -16.5 87t-57.5 32l-653 33q-68 -4 -68 -138q0 -94 93 -94h14l610 -26q39 0 58.5 24.5t19.5 81.5z" />
<glyph unicode="&#xc2;" d="M1157 1677h-211l-78 174l-73 -178l-205 -8l133 279h297zM1587 0q-16 -2 -32.5 -2h-32.5q-197 0 -260 123q-72 -150 -248 -170l-430 29q-508 35 -508 458q0 205 120.5 319.5t366.5 114.5q12 0 24.5 -1t26.5 -1l498 -24q141 -6 201 -133q8 41 8 82q0 156 -154 184l-997 -53 l14 610l830 35h39q244 0 354.5 -137.5t116.5 -432.5l14 -739q2 -178 49 -262zM1323 473q0 57 -16.5 87t-57.5 32l-653 33q-68 -4 -68 -138q0 -94 93 -94h14l610 -26q39 0 58.5 24.5t19.5 81.5z" />
<glyph unicode="&#xc3;" d="M1182 1864q-23 -264 -189 -265q-76 0 -164 80q-29 27 -45 27q-14 0 -14 -25q0 -35 25 -108l-207 78q29 262 184 262q72 0 168 -98q29 -29 41 -29q14 0 14 29q0 33 -22 122zM1587 0q-16 -2 -32.5 -2h-32.5q-197 0 -260 123q-72 -150 -248 -170l-430 29q-508 35 -508 458 q0 205 120.5 319.5t366.5 114.5q12 0 24.5 -1t26.5 -1l498 -24q141 -6 201 -133q8 41 8 82q0 156 -154 184l-997 -53l14 610l830 35h39q244 0 354.5 -137.5t116.5 -432.5l14 -739q2 -178 49 -262zM1323 473q0 57 -16.5 87t-57.5 32l-653 33q-68 -4 -68 -138q0 -94 93 -94h14 l610 -26q39 0 58.5 24.5t19.5 81.5z" />
<glyph unicode="&#xc4;" d="M1255 1923l-43 -272h-256v274zM809 1925v-278h-289v282zM1587 0q-16 -2 -32.5 -2h-32.5q-197 0 -260 123q-72 -150 -248 -170l-430 29q-508 35 -508 458q0 205 120.5 319.5t366.5 114.5q12 0 24.5 -1t26.5 -1l498 -24q141 -6 201 -133q8 41 8 82q0 156 -154 184l-997 -53 l14 610l830 35h39q244 0 354.5 -137.5t116.5 -432.5l14 -739q2 -178 49 -262zM1323 473q0 57 -16.5 87t-57.5 32l-653 33q-68 -4 -68 -138q0 -94 93 -94h14l610 -26q39 0 58.5 24.5t19.5 81.5z" />
<glyph unicode="&#xc5;" d="M1587 0q-16 -2 -32.5 -2h-32.5q-197 0 -260 123q-72 -150 -248 -170l-430 29q-508 35 -508 458q0 205 120.5 319.5t366.5 114.5q12 0 24.5 -1t26.5 -1l498 -24q141 -6 201 -133q8 41 8 82q0 156 -154 184l-997 -53l14 610l553 23q-43 68 -43 147q0 57 21.5 107.5t58.5 87 t87 58t108 21.5q57 0 107 -21.5t88 -59t59.5 -88t21.5 -105.5q0 -84 -45 -150q313 -72 324 -555l14 -739q2 -178 49 -262zM1108 1624q0 49 -40 81t-91 32t-91 -32t-40 -81q0 -33 20 -59l148 6q10 0 19 1t20 1q10 0 20 -1t21 -1q14 22 14 53zM1323 473q0 57 -16.5 87 t-57.5 32l-653 33q-68 -4 -68 -138q0 -94 93 -94h14l610 -26q39 0 58.5 24.5t19.5 81.5z" />
<glyph unicode="&#xc6;" horiz-adv-x="1488" d="M1382 229v-247l-628 -45l-15 370h-178l-88 -313l-438 -43l678 1689h657l-29 -806l-413 -21v-311l381 65l51 -170l-350 -80l10 -129zM768 973l-258 -467l244 -10z" />
<glyph unicode="&#xc7;" horiz-adv-x="1675" d="M1327 885l-82 153l-911 47l43 -737h827l74 84l293 -221q-57 -186 -346 -223l-131 -17l-39 -82q86 -41 86 -159q0 -207 -178 -207h-23l-111 20l5 101l165 -27q33 0 52.5 17.5t19.5 58.5q0 39 -11 59.5t-42 18.5l-162 -7l86 191l-387 -47q-424 76 -424 450q0 41 6 88 l-61 641q-2 16 -3 33t-1 33q0 397 460 463l695 10q332 -43 381 -274z" />
<glyph unicode="&#xc8;" horiz-adv-x="1660" d="M1010 1645l-228 -17l-223 287l328 -21zM1561 1032q-4 -512 -502 -512q-10 0 -20.5 1t-20.5 1l-471 21q0 -178 102 -201l803 37l-33 -397l-719 30q-156 6 -265 40t-179 96.5t-102.5 155.5t-32.5 222l-49 553q-2 16 -2 32.5v33.5q0 432 548 457l445 20q254 0 376 -146.5 t122 -443.5zM1102 885q-4 104 -74 104h-8l-559 12q-133 -10 -133 -172q0 -14 1 -27.5t3 -27.5l667 8h15q47 0 67.5 26t20.5 77z" />
<glyph unicode="&#xc9;" horiz-adv-x="1660" d="M1161 1909l-192 -279l-226 -14l150 291zM1561 1032q-4 -512 -502 -512q-10 0 -20.5 1t-20.5 1l-471 21q0 -178 102 -201l803 37l-33 -397l-719 30q-156 6 -265 40t-179 96.5t-102.5 155.5t-32.5 222l-49 553q-2 16 -2 32.5v33.5q0 432 548 457l445 20q254 0 376 -146.5 t122 -443.5zM1102 885q-4 104 -74 104h-8l-559 12q-133 -10 -133 -172q0 -14 1 -27.5t3 -27.5l667 8h15q47 0 67.5 26t20.5 77z" />
<glyph unicode="&#xca;" horiz-adv-x="1660" d="M1157 1677h-211l-78 174l-73 -178l-205 -8l133 279h297zM1561 1032q-4 -512 -502 -512q-10 0 -20.5 1t-20.5 1l-471 21q0 -178 102 -201l803 37l-33 -397l-719 30q-156 6 -265 40t-179 96.5t-102.5 155.5t-32.5 222l-49 553q-2 16 -2 32.5v33.5q0 432 548 457l445 20 q254 0 376 -146.5t122 -443.5zM1102 885q-4 104 -74 104h-8l-559 12q-133 -10 -133 -172q0 -14 1 -27.5t3 -27.5l667 8h15q47 0 67.5 26t20.5 77z" />
<glyph unicode="&#xcb;" horiz-adv-x="1660" d="M1255 1923l-43 -272h-256v274zM809 1925v-278h-289v282zM1561 1032q-4 -512 -502 -512q-10 0 -20.5 1t-20.5 1l-471 21q0 -178 102 -201l803 37l-33 -397l-719 30q-156 6 -265 40t-179 96.5t-102.5 155.5t-32.5 222l-49 553q-2 16 -2 32.5v33.5q0 432 548 457l445 20 q254 0 376 -146.5t122 -443.5zM1102 885q-4 104 -74 104h-8l-559 12q-133 -10 -133 -172q0 -14 1 -27.5t3 -27.5l667 8h15q47 0 67.5 26t20.5 77z" />
<glyph unicode="&#xcc;" horiz-adv-x="534" d="M414 1645l-228 -17l-223 287l328 -21zM463 1591l-119 -1577l-264 -55l-55 1686z" />
<glyph unicode="&#xcd;" horiz-adv-x="534" d="M489 1909l-192 -279l-100 -6l266 -33l-119 -1577l-264 -55l-55 1686l57 -7l139 271h268z" />
<glyph unicode="&#xce;" horiz-adv-x="534" d="M537 1677h-211l-78 174l-74 -178l-205 -8l133 279h297zM463 1591l-119 -1577l-264 -55l-55 1686z" />
<glyph unicode="&#xcf;" horiz-adv-x="534" d="M627 1923l-43 -272h-256v274zM180 1925v-278h-289v282zM463 1591l-119 -1577l-264 -55l-55 1686z" />
<glyph unicode="&#xd0;" horiz-adv-x="1818" d="M1679 453q-35 -489 -397 -488l-1149 6v441h-149v430h151v721l1129 106q459 -16 458 -518v-36.5t-2 -37.5zM1208 307v774l-872 -98v-145h282l-47 -422h-233v-109h870z" />
<glyph unicode="&#xd1;" horiz-adv-x="1603" d="M1479 -6h-353l39 1010h-663l-76 -1055l-350 55l-49 1628q287 -41 338 -217q57 92 125.5 141.5t154.5 49.5h60l-117 45q29 262 184 262q72 0 168 -98q29 -29 41 -29q14 0 14 29q0 33 -22 122l209 -73q-14 -209 -125 -252h16q213 0 328 -114t115 -343v-29zM938 1610 q-16 6 -38.5 21.5t-46.5 31.5t-42 28.5t-27 12.5q-14 0 -14 -25q0 -27 14 -71z" />
<glyph unicode="&#xd2;" horiz-adv-x="1742" d="M1010 1645l-228 -17l-223 287l328 -21zM1597 453q-16 -246 -111 -366t-288 -136l-639 22q-371 12 -469 494l-16 639q10 100 45 188t89 155t128 110t164 53l702 -15q217 -4 325.5 -125.5t108.5 -351.5q0 -14 -1 -27.5t-1 -27.5zM1147 287l-47 743l-772 -51l-37 -670z" />
<glyph unicode="&#xd3;" horiz-adv-x="1742" d="M1161 1909l-192 -279l-226 -14l150 291zM1597 453q-16 -246 -111 -366t-288 -136l-639 22q-371 12 -469 494l-16 639q10 100 45 188t89 155t128 110t164 53l702 -15q217 -4 325.5 -125.5t108.5 -351.5q0 -14 -1 -27.5t-1 -27.5zM1147 287l-47 743l-772 -51l-37 -670z" />
<glyph unicode="&#xd4;" horiz-adv-x="1742" d="M1157 1677h-211l-78 174l-73 -178l-205 -8l133 279h297zM1597 453q-16 -246 -111 -366t-288 -136l-639 22q-371 12 -469 494l-16 639q10 100 45 188t89 155t128 110t164 53l702 -15q217 -4 325.5 -125.5t108.5 -351.5q0 -14 -1 -27.5t-1 -27.5zM1147 287l-47 743 l-772 -51l-37 -670z" />
<glyph unicode="&#xd5;" horiz-adv-x="1742" d="M1597 453q-16 -246 -111 -366t-288 -136l-639 22q-371 12 -469 494l-16 639q10 100 45 188t89 155t128 110t164 53l202 -4l-114 43q29 262 184 262q72 0 168 -98q29 -29 41 -29q14 0 14 29q0 33 -22 122l209 -73q-18 -244 -164 -262l184 -5q217 -4 325.5 -125.5 t108.5 -351.5q0 -14 -1 -27.5t-1 -27.5zM965 1602q-18 2 -45 19t-54.5 35.5t-50 34t-31.5 15.5q-14 0 -14 -27q0 -29 14 -73zM1147 287l-47 743l-772 -51l-37 -670z" />
<glyph unicode="&#xd6;" horiz-adv-x="1742" d="M1255 1923l-43 -272h-256v274zM809 1925v-278h-289v282zM1597 453q-16 -246 -111 -366t-288 -136l-639 22q-371 12 -469 494l-16 639q10 100 45 188t89 155t128 110t164 53l702 -15q217 -4 325.5 -125.5t108.5 -351.5q0 -14 -1 -27.5t-1 -27.5zM1147 287l-47 743 l-772 -51l-37 -670z" />
<glyph unicode="&#xd7;" horiz-adv-x="1263" d="M1047 598l-127 -240l-359 400l-250 -396l-127 119l299 383l-413 238l133 184l342 -293l190 320l174 -49l-299 -414z" />
<glyph unicode="&#xd8;" horiz-adv-x="1742" d="M1597 453q-16 -246 -111 -366t-288 -136l-469 16l-4 -12l-299 20l6 19q-262 78 -342 473l-16 639q10 100 45 188t89 155t128 110t164 53l487 -10l166 4l-2 -7l51 -2q217 -4 325.5 -125.5t108.5 -351.5q0 -14 -1 -27.5t-1 -27.5zM1147 287l-47 743l-99 -6l-188 -729z M774 1008l-446 -29l-37 -670l246 -6z" />
<glyph unicode="&#xd9;" horiz-adv-x="1693" d="M1010 1645l-228 -17l-223 287l328 -21zM1616 1534l-88 -1051q0 -260 -80 -388t-254 -128h-22.5t-22.5 2l-582 -20q-397 29 -397 475v35l-135 1136l540 27l70 -1216h574l75 1101z" />
<glyph unicode="&#xda;" horiz-adv-x="1693" d="M1161 1909l-192 -279l-226 -14l150 291zM1616 1534l-88 -1051q0 -260 -80 -388t-254 -128h-22.5t-22.5 2l-582 -20q-397 29 -397 475v35l-135 1136l540 27l70 -1216h574l75 1101z" />
<glyph unicode="&#xdb;" horiz-adv-x="1693" d="M1198 1677h-211l-78 174l-73 -178l-205 -8l133 279h297zM1616 1534l-88 -1051q0 -260 -80 -388t-254 -128h-22.5t-22.5 2l-582 -20q-397 29 -397 475v35l-135 1136l540 27l70 -1216h553l96 1101z" />
<glyph unicode="&#xdc;" horiz-adv-x="1693" d="M1255 1923l-43 -272h-256v274zM809 1925v-278h-289v282zM1616 1534l-88 -1051q0 -260 -80 -388t-254 -128h-22.5t-22.5 2l-582 -20q-397 29 -397 475v35l-135 1136l540 27l70 -1216h574l75 1101z" />
<glyph unicode="&#xdd;" horiz-adv-x="1497" d="M946 1909l-192 -279l-226 -14l150 291zM1446 1616l-551 -1178l20 -467l-403 -39l25 545l-455 1217l383 -35l174 -733l379 704z" />
<glyph unicode="&#xde;" horiz-adv-x="1130" d="M995 569q2 -10 2 -20v-21q0 -193 -266 -219l-391 29l-31 -328l-243 -51v1663l395 -23l-43 -446l323 -4q154 -16 224.5 -84t70.5 -186zM846 561l-6 201l-600 -23l-15 -178h621z" />
<glyph unicode="&#xdf;" horiz-adv-x="1671" d="M1534 1245q2 -20 2 -38.5v-37.5q0 -301 -168 -381q180 -82 180 -305q0 -248 -122.5 -379t-340.5 -145l-395 14v394l447 8q27 0 53.5 31.5t26.5 91.5q0 59 -66 59l-461 -8v266h252q125 0 125 82q0 88 -57 94l-39 4l-520 -16v-1024l-369 14l20 1082q10 492 426 514l570 30 h43q370 0 393 -350z" />
<glyph unicode="&#xe0;" d="M1010 1645l-228 -17l-223 287l328 -21zM1587 0q-16 -2 -32.5 -2h-32.5q-197 0 -260 123q-72 -150 -248 -170l-430 29q-508 35 -508 458q0 205 120.5 319.5t366.5 114.5q12 0 24.5 -1t26.5 -1l498 -24q141 -6 201 -133q8 41 8 82q0 156 -154 184l-997 -53l14 610l830 35 h39q244 0 354.5 -137.5t116.5 -432.5l14 -739q2 -178 49 -262zM1323 473q0 57 -16.5 87t-57.5 32l-653 33q-68 -4 -68 -138q0 -94 93 -94h14l610 -26q39 0 58.5 24.5t19.5 81.5z" />
<glyph unicode="&#xe1;" d="M1161 1909l-192 -279l-226 -14l150 291zM1587 0q-16 -2 -32.5 -2h-32.5q-197 0 -260 123q-72 -150 -248 -170l-430 29q-508 35 -508 458q0 205 120.5 319.5t366.5 114.5q12 0 24.5 -1t26.5 -1l498 -24q141 -6 201 -133q8 41 8 82q0 156 -154 184l-997 -53l14 610l830 35 h39q244 0 354.5 -137.5t116.5 -432.5l14 -739q2 -178 49 -262zM1323 473q0 57 -16.5 87t-57.5 32l-653 33q-68 -4 -68 -138q0 -94 93 -94h14l610 -26q39 0 58.5 24.5t19.5 81.5z" />
<glyph unicode="&#xe2;" d="M1157 1677h-211l-78 174l-73 -178l-205 -8l133 279h297zM1587 0q-16 -2 -32.5 -2h-32.5q-197 0 -260 123q-72 -150 -248 -170l-430 29q-508 35 -508 458q0 205 120.5 319.5t366.5 114.5q12 0 24.5 -1t26.5 -1l498 -24q141 -6 201 -133q8 41 8 82q0 156 -154 184l-997 -53 l14 610l830 35h39q244 0 354.5 -137.5t116.5 -432.5l14 -739q2 -178 49 -262zM1323 473q0 57 -16.5 87t-57.5 32l-653 33q-68 -4 -68 -138q0 -94 93 -94h14l610 -26q39 0 58.5 24.5t19.5 81.5z" />
<glyph unicode="&#xe3;" d="M1182 1864q-23 -264 -189 -265q-76 0 -164 80q-29 27 -45 27q-14 0 -14 -25q0 -35 25 -108l-207 78q29 262 184 262q72 0 168 -98q29 -29 41 -29q14 0 14 29q0 33 -22 122zM1587 0q-16 -2 -32.5 -2h-32.5q-197 0 -260 123q-72 -150 -248 -170l-430 29q-508 35 -508 458 q0 205 120.5 319.5t366.5 114.5q12 0 24.5 -1t26.5 -1l498 -24q141 -6 201 -133q8 41 8 82q0 156 -154 184l-997 -53l14 610l830 35h39q244 0 354.5 -137.5t116.5 -432.5l14 -739q2 -178 49 -262zM1323 473q0 57 -16.5 87t-57.5 32l-653 33q-68 -4 -68 -138q0 -94 93 -94h14 l610 -26q39 0 58.5 24.5t19.5 81.5z" />
<glyph unicode="&#xe4;" d="M1255 1923l-43 -272h-256v274zM809 1925v-278h-289v282zM1587 0q-16 -2 -32.5 -2h-32.5q-197 0 -260 123q-72 -150 -248 -170l-430 29q-508 35 -508 458q0 205 120.5 319.5t366.5 114.5q12 0 24.5 -1t26.5 -1l498 -24q141 -6 201 -133q8 41 8 82q0 156 -154 184l-997 -53 l14 610l830 35h39q244 0 354.5 -137.5t116.5 -432.5l14 -739q2 -178 49 -262zM1323 473q0 57 -16.5 87t-57.5 32l-653 33q-68 -4 -68 -138q0 -94 93 -94h14l610 -26q39 0 58.5 24.5t19.5 81.5z" />
<glyph unicode="&#xe5;" d="M1587 0q-16 -2 -32.5 -2h-32.5q-197 0 -260 123q-72 -150 -248 -170l-430 29q-508 35 -508 458q0 205 120.5 319.5t366.5 114.5q12 0 24.5 -1t26.5 -1l498 -24q141 -6 201 -133q8 41 8 82q0 156 -154 184l-997 -53l14 610l553 23q-43 68 -43 147q0 57 21.5 107.5t58.5 87 t87 58t108 21.5q57 0 107 -21.5t88 -59t59.5 -88t21.5 -105.5q0 -84 -45 -150q313 -72 324 -555l14 -739q2 -178 49 -262zM1108 1624q0 49 -40 81t-91 32t-91 -32t-40 -81q0 -33 20 -59l148 6q10 0 19 1t20 1q10 0 20 -1t21 -1q14 22 14 53zM1323 473q0 57 -16.5 87 t-57.5 32l-653 33q-68 -4 -68 -138q0 -94 93 -94h14l610 -26q39 0 58.5 24.5t19.5 81.5z" />
<glyph unicode="&#xe6;" horiz-adv-x="1488" d="M1382 229v-247l-628 -45l-15 370h-178l-88 -313l-438 -43l678 1689h657l-29 -806l-413 -21v-311l381 65l51 -170l-350 -80l10 -129zM768 973l-258 -467l244 -10z" />
<glyph unicode="&#xe7;" horiz-adv-x="1675" d="M1327 885l-82 153l-911 47l43 -737h827l74 84l293 -221q-57 -186 -346 -223l-131 -17l-39 -82q86 -41 86 -159q0 -207 -178 -207h-23l-111 20l5 101l165 -27q33 0 52.5 17.5t19.5 58.5q0 39 -11 59.5t-42 18.5l-162 -7l86 191l-387 -47q-424 76 -424 450q0 41 6 88 l-61 641q-2 16 -3 33t-1 33q0 397 460 463l695 10q332 -43 381 -274z" />
<glyph unicode="&#xe8;" horiz-adv-x="1660" d="M1010 1645l-228 -17l-223 287l328 -21zM1561 1032q-4 -512 -502 -512q-10 0 -20.5 1t-20.5 1l-471 21q0 -178 102 -201l803 37l-33 -397l-719 30q-156 6 -265 40t-179 96.5t-102.5 155.5t-32.5 222l-49 553q-2 16 -2 32.5v33.5q0 432 548 457l445 20q254 0 376 -146.5 t122 -443.5zM1102 885q-4 104 -74 104h-8l-559 12q-133 -10 -133 -172q0 -14 1 -27.5t3 -27.5l667 8h15q47 0 67.5 26t20.5 77z" />
<glyph unicode="&#xe9;" horiz-adv-x="1660" d="M1161 1909l-192 -279l-226 -14l150 291zM1561 1032q-4 -512 -502 -512q-10 0 -20.5 1t-20.5 1l-471 21q0 -178 102 -201l803 37l-33 -397l-719 30q-156 6 -265 40t-179 96.5t-102.5 155.5t-32.5 222l-49 553q-2 16 -2 32.5v33.5q0 432 548 457l445 20q254 0 376 -146.5 t122 -443.5zM1102 885q-4 104 -74 104h-8l-559 12q-133 -10 -133 -172q0 -14 1 -27.5t3 -27.5l667 8h15q47 0 67.5 26t20.5 77z" />
<glyph unicode="&#xea;" horiz-adv-x="1660" d="M1157 1677h-211l-78 174l-73 -178l-205 -8l133 279h297zM1561 1032q-4 -512 -502 -512q-10 0 -20.5 1t-20.5 1l-471 21q0 -178 102 -201l803 37l-33 -397l-719 30q-156 6 -265 40t-179 96.5t-102.5 155.5t-32.5 222l-49 553q-2 16 -2 32.5v33.5q0 432 548 457l445 20 q254 0 376 -146.5t122 -443.5zM1102 885q-4 104 -74 104h-8l-559 12q-133 -10 -133 -172q0 -14 1 -27.5t3 -27.5l667 8h15q47 0 67.5 26t20.5 77z" />
<glyph unicode="&#xeb;" horiz-adv-x="1660" d="M1255 1923l-43 -272h-256v274zM809 1925v-278h-289v282zM1561 1032q-4 -512 -502 -512q-10 0 -20.5 1t-20.5 1l-471 21q0 -178 102 -201l803 37l-33 -397l-719 30q-156 6 -265 40t-179 96.5t-102.5 155.5t-32.5 222l-49 553q-2 16 -2 32.5v33.5q0 432 548 457l445 20 q254 0 376 -146.5t122 -443.5zM1102 885q-4 104 -74 104h-8l-559 12q-133 -10 -133 -172q0 -14 1 -27.5t3 -27.5l667 8h15q47 0 67.5 26t20.5 77z" />
<glyph unicode="&#xec;" horiz-adv-x="534" d="M414 1645l-228 -17l-223 287l328 -21zM463 1591l-119 -1577l-264 -55l-55 1686z" />
<glyph unicode="&#xed;" horiz-adv-x="534" d="M489 1909l-192 -279l-100 -6l266 -33l-119 -1577l-264 -55l-55 1686l57 -7l139 271h268z" />
<glyph unicode="&#xee;" horiz-adv-x="534" d="M537 1677h-211l-78 174l-74 -178l-205 -8l133 279h297zM463 1591l-119 -1577l-264 -55l-55 1686z" />
<glyph unicode="&#xef;" horiz-adv-x="534" d="M627 1923l-43 -272h-256v274zM180 1925v-278h-289v282zM463 1591l-119 -1577l-264 -55l-55 1686z" />
<glyph unicode="&#xf0;" horiz-adv-x="1818" d="M1679 453q-35 -489 -397 -488l-1149 6v441h-149v430h151v721l1129 106q459 -16 458 -518v-36.5t-2 -37.5zM1208 307v774l-872 -98v-145h282l-47 -422h-233v-109h870z" />
<glyph unicode="&#xf1;" horiz-adv-x="1603" d="M1479 -6h-353l39 1010h-663l-76 -1055l-350 55l-49 1628q287 -41 338 -217q57 92 125.5 141.5t154.5 49.5h60l-117 45q29 262 184 262q72 0 168 -98q29 -29 41 -29q14 0 14 29q0 33 -22 122l209 -73q-14 -209 -125 -252h16q213 0 328 -114t115 -343v-29zM938 1610 q-16 6 -38.5 21.5t-46.5 31.5t-42 28.5t-27 12.5q-14 0 -14 -25q0 -27 14 -71z" />
<glyph unicode="&#xf2;" horiz-adv-x="1742" d="M1010 1645l-228 -17l-223 287l328 -21zM1597 453q-16 -246 -111 -366t-288 -136l-639 22q-371 12 -469 494l-16 639q10 100 45 188t89 155t128 110t164 53l702 -15q217 -4 325.5 -125.5t108.5 -351.5q0 -14 -1 -27.5t-1 -27.5zM1147 287l-47 743l-772 -51l-37 -670z" />
<glyph unicode="&#xf3;" horiz-adv-x="1742" d="M1161 1909l-192 -279l-226 -14l150 291zM1597 453q-16 -246 -111 -366t-288 -136l-639 22q-371 12 -469 494l-16 639q10 100 45 188t89 155t128 110t164 53l702 -15q217 -4 325.5 -125.5t108.5 -351.5q0 -14 -1 -27.5t-1 -27.5zM1147 287l-47 743l-772 -51l-37 -670z" />
<glyph unicode="&#xf4;" horiz-adv-x="1742" d="M1157 1677h-211l-78 174l-73 -178l-205 -8l133 279h297zM1597 453q-16 -246 -111 -366t-288 -136l-639 22q-371 12 -469 494l-16 639q10 100 45 188t89 155t128 110t164 53l702 -15q217 -4 325.5 -125.5t108.5 -351.5q0 -14 -1 -27.5t-1 -27.5zM1147 287l-47 743 l-772 -51l-37 -670z" />
<glyph unicode="&#xf5;" horiz-adv-x="1742" d="M1597 453q-16 -246 -111 -366t-288 -136l-639 22q-371 12 -469 494l-16 639q10 100 45 188t89 155t128 110t164 53l202 -4l-114 43q29 262 184 262q72 0 168 -98q29 -29 41 -29q14 0 14 29q0 33 -22 122l209 -73q-18 -244 -164 -262l184 -5q217 -4 325.5 -125.5 t108.5 -351.5q0 -14 -1 -27.5t-1 -27.5zM965 1602q-18 2 -45 19t-54.5 35.5t-50 34t-31.5 15.5q-14 0 -14 -27q0 -29 14 -73zM1147 287l-47 743l-772 -51l-37 -670z" />
<glyph unicode="&#xf6;" horiz-adv-x="1742" d="M1255 1923l-43 -272h-256v274zM809 1925v-278h-289v282zM1597 453q-16 -246 -111 -366t-288 -136l-639 22q-371 12 -469 494l-16 639q10 100 45 188t89 155t128 110t164 53l702 -15q217 -4 325.5 -125.5t108.5 -351.5q0 -14 -1 -27.5t-1 -27.5zM1147 287l-47 743 l-772 -51l-37 -670z" />
<glyph unicode="&#xf7;" horiz-adv-x="1277" d="M795 1128l-33 -256h-307l37 281zM1094 821l-23 -293l-960 60l41 147zM776 426l-61 -270l-219 22l-23 273z" />
<glyph unicode="&#xf8;" horiz-adv-x="1742" d="M1597 453q-16 -246 -111 -366t-288 -136l-469 16l-4 -12l-299 20l6 19q-262 78 -342 473l-16 639q10 100 45 188t89 155t128 110t164 53l487 -10l166 4l-2 -7l51 -2q217 -4 325.5 -125.5t108.5 -351.5q0 -14 -1 -27.5t-1 -27.5zM1147 287l-47 743l-99 -6l-188 -729z M774 1008l-446 -29l-37 -670l246 -6z" />
<glyph unicode="&#xf9;" horiz-adv-x="1693" d="M1010 1645l-228 -17l-223 287l328 -21zM1616 1534l-88 -1051q0 -260 -80 -388t-254 -128h-22.5t-22.5 2l-582 -20q-397 29 -397 475v35l-135 1136l540 27l70 -1216h574l75 1101z" />
<glyph unicode="&#xfa;" horiz-adv-x="1693" d="M1161 1909l-192 -279l-226 -14l150 291zM1616 1534l-88 -1051q0 -260 -80 -388t-254 -128h-22.5t-22.5 2l-582 -20q-397 29 -397 475v35l-135 1136l540 27l70 -1216h574l75 1101z" />
<glyph unicode="&#xfb;" horiz-adv-x="1693" d="M1198 1677h-211l-78 174l-73 -178l-205 -8l133 279h297zM1616 1534l-88 -1051q0 -260 -80 -388t-254 -128h-22.5t-22.5 2l-582 -20q-397 29 -397 475v35l-135 1136l540 27l70 -1216h553l96 1101z" />
<glyph unicode="&#xfc;" horiz-adv-x="1693" d="M1255 1923l-43 -272h-256v274zM809 1925v-278h-289v282zM1616 1534l-88 -1051q0 -260 -80 -388t-254 -128h-22.5t-22.5 2l-582 -20q-397 29 -397 475v35l-135 1136l540 27l70 -1216h574l75 1101z" />
<glyph unicode="&#xfd;" horiz-adv-x="1497" d="M946 1909l-192 -279l-226 -14l150 291zM1446 1616l-551 -1178l20 -467l-403 -39l25 545l-455 1217l383 -35l174 -733l379 704z" />
<glyph unicode="&#xfe;" horiz-adv-x="1130" d="M995 569q2 -10 2 -20v-21q0 -193 -266 -219l-391 29l-31 -328l-243 -51v1663l395 -23l-43 -446l323 -4q154 -16 224.5 -84t70.5 -186zM846 561l-6 201l-600 -23l-15 -178h621z" />
<glyph unicode="&#xff;" horiz-adv-x="1497" d="M1057 1923l-43 -272h-256v274zM610 1925v-278h-288v282zM1438 1616l-551 -1186l39 -465l-416 -24l18 528l-473 1225l402 -43l153 -717l412 706z" />
<glyph unicode="&#x102;" d="M1587 0q-16 -2 -32.5 -2h-32.5q-197 0 -260 123q-72 -150 -248 -170l-430 29q-508 35 -508 458q0 205 120.5 319.5t366.5 114.5q12 0 24.5 -1t26.5 -1l498 -24q141 -6 201 -133q8 41 8 82q0 156 -154 184l-997 -53l14 610l830 35h39q244 0 354.5 -137.5t116.5 -432.5 l14 -739q2 -178 49 -262zM1323 473q0 57 -16.5 87t-57.5 32l-653 33q-68 -4 -68 -138q0 -94 93 -94h14l610 -26q39 0 58.5 24.5t19.5 81.5zM1092 1944q-10 -147 -81 -225.5t-202 -78.5q-137 0 -208 69t-77 222h211q-2 -14 -3 -26.5t-1 -22.5q0 -92 78 -104q80 14 80 114 v21.5t-2 21.5z" />
<glyph unicode="&#x103;" d="M1092 1944q-10 -147 -81 -225.5t-202 -78.5q-137 0 -208 69t-77 222h211q-2 -14 -3 -26.5t-1 -22.5q0 -92 78 -104q80 14 80 114v21.5t-2 21.5zM1587 0q-16 -2 -32.5 -2h-32.5q-197 0 -260 123q-72 -150 -248 -170l-430 29q-508 35 -508 458q0 205 120.5 319.5 t366.5 114.5q12 0 24.5 -1t26.5 -1l498 -24q141 -6 201 -133q8 41 8 82q0 156 -154 184l-997 -53l14 610l830 35h39q244 0 354.5 -137.5t116.5 -432.5l14 -739q2 -178 49 -262zM1323 473q0 57 -16.5 87t-57.5 32l-653 33q-68 -4 -68 -138q0 -94 93 -94h14l610 -26 q39 0 58.5 24.5t19.5 81.5z" />
<glyph unicode="&#x104;" d="M1587 0q-16 -2 -32.5 -2h-32.5q-197 0 -260 123q-72 -150 -248 -170l-45 2l63 -137l-162 6q-53 2 -53 -70q0 -47 18.5 -65.5t53.5 -18.5l166 27l4 -101l-111 -20h-22q-180 0 -181 207q0 119 89 160l-11 22l-239 17q-508 35 -508 458q0 205 120.5 319.5t366.5 114.5 q12 0 24.5 -1t26.5 -1l498 -24q141 -6 201 -133q8 41 8 82q0 156 -154 184l-997 -53l14 610l830 35h39q244 0 354.5 -137.5t116.5 -432.5l14 -739q2 -178 49 -262zM1323 473q0 57 -16.5 87t-57.5 32l-653 33q-68 -4 -68 -138q0 -94 93 -94h14l610 -26q39 0 58.5 24.5 t19.5 81.5z" />
<glyph unicode="&#x105;" d="M1587 0q-16 -2 -32.5 -2h-32.5q-197 0 -260 123q-72 -150 -248 -170l-45 2l63 -137l-162 6q-53 2 -53 -70q0 -47 18.5 -65.5t53.5 -18.5l166 27l4 -101l-111 -20h-22q-180 0 -181 207q0 119 89 160l-11 22l-239 17q-508 35 -508 458q0 205 120.5 319.5t366.5 114.5 q12 0 24.5 -1t26.5 -1l498 -24q141 -6 201 -133q8 41 8 82q0 156 -154 184l-997 -53l14 610l830 35h39q244 0 354.5 -137.5t116.5 -432.5l14 -739q2 -178 49 -262zM1323 473q0 57 -16.5 87t-57.5 32l-653 33q-68 -4 -68 -138q0 -94 93 -94h14l610 -26q39 0 58.5 24.5 t19.5 81.5z" />
<glyph unicode="&#x106;" horiz-adv-x="1675" d="M1327 885l-82 153l-911 47l43 -737h827l74 84l293 -221q-59 -190 -346 -223l-670 -80q-424 76 -424 450q0 41 6 88l-61 641q-2 16 -3 33t-1 33q0 397 460 463l213 4l148 289h268l-192 -279l-162 -10l420 6q332 -43 381 -274z" />
<glyph unicode="&#x107;" horiz-adv-x="1675" d="M1327 885l-82 153l-911 47l43 -737h827l74 84l293 -221q-59 -190 -346 -223l-670 -80q-424 76 -424 450q0 41 6 88l-61 641q-2 16 -3 33t-1 33q0 397 460 463l213 4l148 289h268l-192 -279l-162 -10l420 6q332 -43 381 -274z" />
<glyph unicode="&#x10c;" horiz-adv-x="1675" d="M1327 885l-82 153l-911 47l43 -737h827l74 84l293 -221q-59 -199 -346 -223l-678 -62q-434 2 -451 496l-20 665v29q0 438 456 500l695 10q332 -43 381 -274zM1074 1944l-134 -279h-297l-137 266h211l78 -174l74 178z" />
<glyph unicode="&#x10d;" horiz-adv-x="1675" d="M1067 1944l-133 -279h-297l-137 266h211l77 -174l74 178zM1327 885l-82 153l-911 47l43 -737h827l74 84l293 -221q-59 -190 -346 -223l-670 -80q-424 76 -424 450q0 41 6 88l-61 641q-2 16 -3 33t-1 33q0 397 460 463l695 10q332 -43 381 -274z" />
<glyph unicode="&#x10e;" horiz-adv-x="1818" d="M1679 453q-35 -489 -397 -488l-1147 6v1592l1129 106q459 -16 458 -518v-36.5t-2 -37.5zM1208 307v774l-870 -98v-676h870zM1174 1944l-134 -279h-297l-137 266h211l78 -174l74 178z" />
<glyph unicode="&#x10f;" horiz-adv-x="1818" d="M1174 1944l-134 -279h-297l-137 266h211l78 -174l74 178zM1679 453q-35 -489 -397 -488l-1147 6v1592l1129 106q459 -16 458 -518v-36.5t-2 -37.5zM1208 307v774l-870 -98v-676h870z" />
<glyph unicode="&#x110;" horiz-adv-x="1873" d="M1735 453q-35 -489 -398 -488l-1149 6v469l-100 -2v432h102v693l1129 106q459 -16 459 -518v-36.5t-2 -37.5zM1264 307v774l-873 -98v-119h332l-47 -422h-283v-135h871z" />
<glyph unicode="&#x111;" horiz-adv-x="1873" d="M1735 453q-35 -489 -398 -488l-1149 6v465h-147v430h149v697l1129 106q459 -16 459 -518v-36.5t-2 -37.5zM1264 307v774l-873 -98v-121h285l-47 -422h-236v-133h871z" />
<glyph unicode="&#x118;" horiz-adv-x="1660" d="M1561 1032q-4 -512 -502 -512q-10 0 -20.5 1t-20.5 1l-471 21q0 -178 102 -201l803 37l-33 -397l-471 20l84 -186l-162 6q-53 2 -53 -70q0 -47 18.5 -65.5t53.5 -18.5l166 27l4 -101l-111 -20h-22q-180 0 -181 207q0 119 89 160l-31 67l-103 4q-156 6 -265 39t-179 96.5 t-102.5 156.5t-32.5 222l-49 553q-2 16 -2 32.5v33.5q0 432 548 457l445 20q254 0 376 -146.5t122 -443.5zM1102 885q-4 104 -74 104h-8l-559 12q-133 -10 -133 -172q0 -14 1 -27.5t3 -27.5l667 8h15q47 0 67.5 26t20.5 77z" />
<glyph unicode="&#x119;" horiz-adv-x="1660" d="M1561 1032q-4 -512 -502 -512q-10 0 -20.5 1t-20.5 1l-471 21q0 -178 102 -201l803 37l-33 -397l-471 20l84 -186l-162 6q-53 2 -53 -70q0 -47 18.5 -65.5t53.5 -18.5l166 27l4 -101l-111 -20h-22q-180 0 -181 207q0 119 89 160l-31 67l-103 4q-156 6 -265 39t-179 96.5 t-102.5 156.5t-32.5 222l-49 553q-2 16 -2 32.5v33.5q0 432 548 457l445 20q254 0 376 -146.5t122 -443.5zM1102 885q-4 104 -74 104h-8l-559 12q-133 -10 -133 -172q0 -14 1 -27.5t3 -27.5l667 8h15q47 0 67.5 26t20.5 77z" />
<glyph unicode="&#x11a;" horiz-adv-x="1660" d="M1561 1032q-4 -512 -502 -512q-10 0 -20.5 1t-20.5 1l-471 21q0 -178 102 -201l803 37l-33 -397l-719 30q-156 6 -265 40t-179 96.5t-102.5 155.5t-32.5 222l-49 553q-2 16 -2 32.5v33.5q0 432 548 457l445 20q254 0 376 -146.5t122 -443.5zM1102 885q-4 104 -74 104h-8 l-559 12q-133 -10 -133 -172q0 -14 1 -27.5t3 -27.5l667 8h15q47 0 67.5 26t20.5 77zM1174 1932l-134 -279h-297l-137 266h211l78 -174l74 178z" />
<glyph unicode="&#x11b;" horiz-adv-x="1660" d="M1133 1925l-134 -278h-297l-137 266h211l78 -174l74 178zM1561 1032q-4 -512 -502 -512q-10 0 -20.5 1t-20.5 1l-471 21q0 -178 102 -201l803 37l-33 -397l-719 30q-156 6 -265 40t-179 96.5t-102.5 155.5t-32.5 222l-49 553q-2 16 -2 32.5v33.5q0 432 548 457l445 20 q254 0 376 -146.5t122 -443.5zM1102 885q-4 104 -74 104h-8l-559 12q-133 -10 -133 -172q0 -14 1 -27.5t3 -27.5l667 8h15q47 0 67.5 26t20.5 77z" />
<glyph unicode="&#x11e;" horiz-adv-x="1685" d="M1231 895l-51 109l-815 -11q14 -612 24 -626l637 -2q10 -2 29 -3q158 0 159 199l-448 -47l22 289l775 67l-56 -876l-270 -27l-94 242q-6 -238 -273 -238h-20l-307 9q-369 10 -422 462v654q-4 33 -6 63.5t-2 59.5q0 395 407 397l656 4q305 -41 419 -315zM1092 1944 q-10 -147 -81 -225.5t-202 -78.5q-137 0 -208 69t-77 222h211q-2 -14 -3 -26.5t-1 -22.5q0 -92 78 -104q80 14 80 114v21.5t-2 21.5z" />
<glyph unicode="&#x11f;" horiz-adv-x="1685" d="M1231 895l-51 109l-815 -11q14 -612 24 -626l637 -2q10 -2 29 -3q158 0 159 199l-448 -47l22 289l775 67l-56 -876l-270 -27l-94 242q-6 -238 -273 -238h-20l-307 9q-369 10 -422 462v654q-4 33 -6 63.5t-2 59.5q0 395 407 397l656 4q305 -41 419 -315zM1092 1944 q-10 -147 -81 -225.5t-202 -78.5q-137 0 -208 69t-77 222h211q-2 -14 -3 -26.5t-1 -22.5q0 -92 78 -104q80 14 80 114v21.5t-2 21.5z" />
<glyph unicode="&#x130;" horiz-adv-x="534" d="M463 1591l-119 -1577l-264 -55l-55 1686zM409 1946l-41 -297h-262l35 297h268z" />
<glyph unicode="&#x131;" horiz-adv-x="503" d="M426 1235l-37 -1253l-285 -13v1288z" />
<glyph unicode="&#x139;" horiz-adv-x="1327" d="M1327 381l-39 -401l-1204 -62l-80 1727l152 -13l141 277h268l-192 -279l-117 -8l367 -31l-154 -1288z" />
<glyph unicode="&#x13a;" horiz-adv-x="1327" d="M1327 381l-39 -401l-1204 -62l-80 1727l152 -13l141 277h268l-192 -279l-117 -8l367 -31l-154 -1288z" />
<glyph unicode="&#x13d;" horiz-adv-x="1327" d="M1327 381l-39 -401l-1204 -62l-80 1727l619 -54l-154 -1288zM1026 1640l-25 -250l-139 -368l-154 149l109 195l-154 -15l23 324z" />
<glyph unicode="&#x13e;" horiz-adv-x="1327" d="M1026 1634l-25 -250l-139 -368l-153 149l108 195l-153 -14l22 323zM1327 381l-39 -401l-1204 -62l-80 1727l619 -54l-154 -1288z" />
<glyph unicode="&#x141;" horiz-adv-x="1327" d="M1327 381l-39 -401l-1204 -62l-80 1727l152 -13l141 277h268l-192 -279l-117 -8l367 -31l-154 -1288z" />
<glyph unicode="&#x142;" horiz-adv-x="1419" d="M1419 381l-39 -401l-1204 -62l-35 737h-219l215 121l-41 869l619 -54l-64 -524h236l-258 -188l-68 -576z" />
<glyph unicode="&#x143;" horiz-adv-x="1603" d="M1479 -6h-353l39 1010h-663l-76 -1055l-350 55l-49 1628q287 -41 338 -217q115 188 280 191l428 6q213 0 328 -114t115 -343v-29zM1161 1909l-192 -279l-226 -14l150 293h268z" />
<glyph unicode="&#x144;" horiz-adv-x="1603" d="M1161 1909l-192 -279l-226 -14l150 291zM1479 -6h-353l39 1010h-663l-76 -1055l-350 55l-49 1628q287 -41 338 -217q115 188 280 191l428 6q213 0 328 -114t115 -343v-29z" />
<glyph unicode="&#x147;" horiz-adv-x="1603" d="M1479 -6h-353l39 1010h-663l-76 -1055l-350 55l-49 1628q287 -41 338 -217q115 188 280 191l428 6q213 0 328 -114t115 -343v-29zM1121 1944l-134 -279h-297l-137 266h211l78 -174l74 178z" />
<glyph unicode="&#x148;" horiz-adv-x="1603" d="M1114 1944l-133 -279h-297l-137 266h211l78 -174l73 178zM1479 -6h-353l39 1010h-663l-76 -1055l-350 55l-49 1628q287 -41 338 -217q115 188 280 191l428 6q213 0 328 -114t115 -343v-29z" />
<glyph unicode="&#x150;" horiz-adv-x="1742" d="M1378 1960l-258 -315l-186 8l254 317zM1092 1960l-258 -315l-158 12l225 313zM1597 453q-16 -246 -111 -366t-288 -136l-639 22q-371 12 -469 494l-16 639q10 100 45 188t89 155t128 110t164 53l702 -15q217 -4 325.5 -125.5t108.5 -351.5q0 -14 -1 -27.5t-1 -27.5z M1147 287l-47 743l-772 -51l-37 -670z" />
<glyph unicode="&#x151;" horiz-adv-x="1742" d="M1378 1960l-258 -315l-186 8l254 317zM1092 1960l-258 -315l-158 12l225 313zM1597 453q-16 -246 -111 -366t-288 -136l-639 22q-371 12 -469 494l-16 639q10 100 45 188t89 155t128 110t164 53l702 -15q217 -4 325.5 -125.5t108.5 -351.5q0 -14 -1 -27.5t-1 -27.5z M1147 287l-47 743l-772 -51l-37 -670z" />
<glyph unicode="&#x152;" horiz-adv-x="1742" d="M1667 1583l-55 -526l-531 -47l13 -219l469 30l-31 -252l-485 -24l4 -166h516l12 -369l-1065 -49q-80 6 -152.5 46t-128 105.5t-90 153.5t-37.5 191l-18 618v25q0 106 28.5 197.5t82 158t129 107.5t172.5 49zM850 983l-510 -18v-607l510 19v606z" />
<glyph unicode="&#x153;" horiz-adv-x="1742" d="M1667 1583l-55 -526l-531 -47l13 -219l469 30l-31 -252l-485 -24l4 -166h516l12 -369l-1065 -49q-80 6 -152.5 46t-128 105.5t-90 153.5t-37.5 191l-18 618v25q0 106 28.5 197.5t82 158t129 107.5t172.5 49zM850 983l-510 -18v-607l510 19v606z" />
<glyph unicode="&#x154;" horiz-adv-x="1832" d="M1655 842q-59 -379 -561 -387l424 -467h-541l-301 514l-176 -17l-11 -483l-335 -27l-105 1643h696l148 291h268l-192 -279l-181 -12l357 4q266 0 397 -136t131 -419q0 -102 -18 -225zM1397 870q-4 53 -34 76t-89 23l-979 -27l14 -147l973 -62q61 20 88 55t27 82z" />
<glyph unicode="&#x155;" horiz-adv-x="1832" d="M1655 842q-59 -379 -561 -387l424 -467h-541l-301 514l-176 -17l-11 -483l-335 -27l-105 1643h696l148 291h268l-192 -279l-181 -12l357 4q266 0 397 -136t131 -419q0 -102 -18 -225zM1397 870q-4 53 -34 76t-89 23l-979 -27l14 -147l973 -62q61 20 88 55t27 82z" />
<glyph unicode="&#x158;" horiz-adv-x="1832" d="M1655 842q-59 -379 -561 -387l424 -467h-541l-301 514l-176 -17l-11 -483l-335 -27l-105 1637l1096 10q266 0 397 -136t131 -419q0 -102 -18 -225zM1397 870q-4 53 -34 76t-89 23l-979 -27l14 -147l973 -62q61 20 88 55t27 82zM1111 1944l-134 -279h-297l-137 266h211 l78 -174l74 178z" />
<glyph unicode="&#x159;" horiz-adv-x="1832" d="M1104 1944l-133 -279h-297l-137 266h211l77 -174l74 178zM1655 842q-59 -379 -561 -387l424 -467h-541l-301 514l-176 -17l-11 -483l-335 -27l-105 1637l1096 10q266 0 397 -136t131 -419q0 -102 -18 -225zM1397 870q-4 53 -34 76t-89 23l-979 -27l14 -147l973 -62 q61 20 88 55t27 82z" />
<glyph unicode="&#x15a;" horiz-adv-x="1574" d="M1477 328q-8 -90 -41 -156t-95.5 -109t-156.5 -65.5t-223 -24.5l-834 -22l39 436l905 -68h8q88 0 88 125q0 100 -120 105l-467 10q-489 10 -490 453q0 274 123 428.5t352 163.5l887 30v-714l-856 84q-115 -10 -115 -119q0 -102 76 -101l471 15h29q207 0 318.5 -83 t111.5 -247v-21.5t-2 -21.5zM1161 1909l-192 -279l-226 -14l150 293h268z" />
<glyph unicode="&#x15b;" horiz-adv-x="1574" d="M1161 1909l-192 -279l-226 -14l150 291zM1477 328q-8 -90 -41 -156t-95.5 -109t-156.5 -65.5t-223 -24.5l-834 -22l39 436l905 -68h8q88 0 88 125q0 100 -120 105l-467 10q-489 10 -490 453q0 274 123 428.5t352 163.5l887 30v-714l-856 84q-115 -10 -115 -119 q0 -102 76 -101l471 15h29q207 0 318.5 -83t111.5 -247v-21.5t-2 -21.5z" />
<glyph unicode="&#x15e;" horiz-adv-x="1574" d="M1477 328q-8 -92 -41 -157t-95.5 -108t-156.5 -64.5t-223 -25.5l-60 -2l-20 -45q86 -41 86 -159q0 -207 -179 -207h-22l-111 20l4 101l166 -27q33 0 52.5 17.5t19.5 58.5q0 39 -11.5 59.5t-41.5 17.5l-162 -6l76 166l-631 -16l39 436l905 -68h8q88 0 88 125 q0 100 -120 105l-467 10q-489 10 -490 453q0 274 123 428.5t352 163.5l887 30v-714l-856 84q-115 -10 -115 -119q0 -102 76 -101l471 15h29q207 0 318.5 -83t111.5 -247v-21.5t-2 -21.5z" />
<glyph unicode="&#x15f;" horiz-adv-x="1574" d="M1477 328q-8 -92 -41 -157t-95.5 -108t-156.5 -64.5t-223 -25.5l-60 -2l-20 -45q86 -41 86 -159q0 -207 -179 -207h-22l-111 20l4 101l166 -27q33 0 52.5 17.5t19.5 58.5q0 39 -11.5 59.5t-41.5 17.5l-162 -6l76 166l-631 -16l39 436l905 -68h8q88 0 88 125 q0 100 -120 105l-467 10q-489 10 -490 453q0 274 123 428.5t352 163.5l887 30v-714l-856 84q-115 -10 -115 -119q0 -102 76 -101l471 15h29q207 0 318.5 -83t111.5 -247v-21.5t-2 -21.5z" />
<glyph unicode="&#x160;" horiz-adv-x="1574" d="M1477 328q-8 -90 -41 -156t-95.5 -109t-156.5 -65.5t-223 -24.5l-834 -22l39 436l905 -68h8q88 0 88 125q0 100 -120 105l-467 10q-489 10 -490 453q0 274 123 428.5t352 163.5l887 30v-714l-856 84q-115 -10 -115 -119q0 -102 76 -101l471 15h29q207 0 318.5 -83 t111.5 -247v-21.5t-2 -21.5zM1174 1944l-134 -279h-297l-137 266h211l78 -174l74 178z" />
<glyph unicode="&#x161;" horiz-adv-x="1574" d="M1174 1944l-134 -279h-297l-137 266h211l78 -174l74 178zM1477 328q-8 -90 -41 -156t-95.5 -109t-156.5 -65.5t-223 -24.5l-834 -22l39 436l905 -68h8q88 0 88 125q0 100 -120 105l-467 10q-489 10 -490 453q0 274 123 428.5t352 163.5l887 30v-714l-856 84 q-115 -10 -115 -119q0 -102 76 -101l471 15h29q207 0 318.5 -83t111.5 -247v-21.5t-2 -21.5z" />
<glyph unicode="&#x162;" horiz-adv-x="1466" d="M1386 1655l-63 -639l-455 -23l-32 -997l-113 -14l-6 -15q86 -41 86 -160q0 -207 -178 -206h-23l-110 20l4 100l166 -26q33 0 52 17.5t19 58.5q0 39 -11 59t-42 18l-162 -6l53 117l-36 -4l-39 1085l-406 -36l-67 602z" />
<glyph unicode="&#x163;" horiz-adv-x="1466" d="M1386 1655l-63 -639l-455 -23l-32 -997l-113 -14l-6 -15q86 -41 86 -160q0 -207 -178 -206h-23l-110 20l4 100l166 -26q33 0 52 17.5t19 58.5q0 39 -11 59t-42 18l-162 -6l53 117l-36 -4l-39 1085l-406 -36l-67 602z" />
<glyph unicode="&#x164;" horiz-adv-x="1466" d="M1386 1655l-63 -639l-455 -23l-32 -997l-301 -41l-39 1085l-406 -36l-67 602zM996 1944l-134 -279h-297l-137 266h211l78 -174l74 178z" />
<glyph unicode="&#x165;" horiz-adv-x="1466" d="M989 1944l-133 -279h-297l-137 266h211l78 -174l73 178zM1386 1655l-63 -639l-455 -23l-32 -997l-301 -41l-39 1085l-406 -36l-67 602z" />
<glyph unicode="&#x16e;" horiz-adv-x="1693" d="M1616 1534l-88 -1051q0 -260 -80 -388t-254 -128h-22.5t-22.5 2l-582 -20q-397 29 -397 475v35l-135 1136l540 27l70 -1216h574l75 1101zM1245 1706q0 -57 -21.5 -106.5t-59.5 -86t-88 -58t-107 -21.5t-107.5 21.5t-87.5 58t-58.5 86t-21.5 106.5t21.5 107.5t58.5 87 t87 58t108 21.5q57 0 107 -21.5t88 -59t59.5 -88t21.5 -105.5zM1108 1624q0 49 -40 81t-91 32t-91 -32t-40 -81t40 -81t91 -32t91 32t40 81z" />
<glyph unicode="&#x16f;" horiz-adv-x="1693" d="M1245 1706q0 -57 -21.5 -106.5t-59.5 -86t-88 -58t-107 -21.5t-107.5 21.5t-87.5 58t-58.5 86t-21.5 106.5t21.5 107.5t58.5 87t87 58t108 21.5q57 0 107 -21.5t88 -59t59.5 -88t21.5 -105.5zM1616 1534l-88 -1051q0 -260 -80 -388t-254 -128h-22.5t-22.5 2l-582 -20 q-397 29 -397 475v35l-135 1136l540 27l70 -1216h574l75 1101zM1108 1624q0 49 -40 81t-91 32t-91 -32t-40 -81t40 -81t91 -32t91 32t40 81z" />
<glyph unicode="&#x170;" horiz-adv-x="1693" d="M1405 1919l-258 -315l-186 8l253 317zM1118 1919l-258 -315l-158 12l226 313zM1616 1534l-88 -1051q0 -260 -80 -388t-254 -128h-22.5t-22.5 2l-582 -20q-397 29 -397 475v35l-135 1136l540 27l70 -1216h574l75 1101z" />
<glyph unicode="&#x171;" horiz-adv-x="1693" d="M1405 1919l-258 -315l-186 8l253 317zM1118 1919l-258 -315l-158 12l226 313zM1616 1534l-88 -1051q0 -260 -80 -388t-254 -128h-22.5t-22.5 2l-582 -20q-397 29 -397 475v35l-135 1136l540 27l70 -1216h574l75 1101z" />
<glyph unicode="&#x178;" horiz-adv-x="1497" d="M1055 1923l-43 -272h-256v274zM1438 1616l-551 -1186l39 -465l-416 -24l18 528l-473 1225l264 -29v260h289v-278h-151l164 -713l401 706z" />
<glyph unicode="&#x179;" horiz-adv-x="1574" d="M1483 1061l-998 -686l932 108v-489l-1288 -76l-20 424l829 637l-854 -18l18 643h1262zM1052 1909l-192 -279l-226 -14l150 293h268z" />
<glyph unicode="&#x17a;" horiz-adv-x="1574" d="M1047 1909l-193 -279l-225 -14l149 291zM1483 1061l-998 -686l932 108v-489l-1288 -76l-20 424l829 637l-854 -18l18 643h1262z" />
<glyph unicode="&#x17b;" horiz-adv-x="1574" d="M973 1935l-41 -297h-262l35 295zM1483 1061l-998 -686l932 108v-489l-1288 -76l-20 424l829 637l-854 -18l18 643h1262z" />
<glyph unicode="&#x17c;" horiz-adv-x="1574" d="M973 1935l-41 -297h-262l35 295zM1483 1061l-998 -686l932 108v-489l-1288 -76l-20 424l829 637l-854 -18l18 643h1262z" />
<glyph unicode="&#x17d;" horiz-adv-x="1574" d="M1483 1061l-998 -686l932 108v-489l-1288 -76l-20 424l829 637l-854 -18l18 643h1262zM1174 1942l-134 -279h-297l-137 266h211l78 -174l74 178z" />
<glyph unicode="&#x17e;" horiz-adv-x="1574" d="M1079 1935l-133 -278h-297l-137 266h211l78 -174l73 178zM1483 1061l-998 -686l932 108v-489l-1288 -76l-20 424l829 637l-854 -18l18 643h1262z" />
<glyph unicode="&#x2c6;" horiz-adv-x="1300" d="M1157 1677h-211l-78 174l-73 -178l-205 -8l133 279h297z" />
<glyph unicode="&#x2c7;" horiz-adv-x="1300" d="M1174 1944l-134 -279h-297l-137 266h211l78 -174l74 178z" />
<glyph unicode="&#x2d8;" horiz-adv-x="1415" d="M1092 1944q-10 -147 -81 -225.5t-202 -78.5q-137 0 -208 69t-77 222h211q-2 -14 -3 -26.5t-1 -22.5q0 -92 78 -104q80 14 80 114v21.5t-2 21.5z" />
<glyph unicode="&#x2d9;" horiz-adv-x="1093" d="M1161 1909l-41 -297h-262l35 297h268z" />
<glyph unicode="&#x2da;" horiz-adv-x="1441" d="M1245 1706q0 -57 -21.5 -106.5t-59.5 -86t-88 -58t-107 -21.5t-107.5 21.5t-87.5 58t-58.5 86t-21.5 106.5t21.5 107.5t58.5 87t87 58t108 21.5q57 0 107 -21.5t88 -59t59.5 -88t21.5 -105.5zM1108 1624q0 49 -40 81t-91 32t-91 -32t-40 -81t40 -81t91 -32t91 32t40 81z " />
<glyph unicode="&#x2db;" horiz-adv-x="1658" d="M1059 -406l-111 -20h-22q-180 0 -181 207q0 119 89 160l-39 84l145 -7l92 -202l-162 6q-53 2 -53 -70q0 -47 18.5 -65.5t53.5 -18.5l166 27z" />
<glyph unicode="&#x2dc;" horiz-adv-x="1249" d="M1182 1864q-23 -264 -189 -265q-76 0 -164 80q-29 27 -45 27q-14 0 -14 -25q0 -35 25 -108l-207 78q29 262 184 262q72 0 168 -98q29 -29 41 -29q14 0 14 29q0 33 -22 122z" />
<glyph unicode="&#x2dd;" horiz-adv-x="1093" d="M1405 1919l-258 -315l-186 8l253 317zM1118 1919l-258 -315l-158 12l226 313z" />
<glyph unicode="&#x401;" horiz-adv-x="1660" d="M1255 1923l-43 -272h-256v274zM809 1925v-278h-289v282zM1561 1032q-4 -512 -502 -512q-10 0 -20.5 1t-20.5 1l-471 21q0 -178 102 -201l803 37l-33 -397l-719 30q-156 6 -265 40t-179 96.5t-102.5 155.5t-32.5 222l-49 553q-2 16 -2 32.5v33.5q0 432 548 457l445 20 q254 0 376 -146.5t122 -443.5zM1102 885q-4 104 -74 104h-8l-559 12q-133 -10 -133 -172q0 -14 1 -27.5t3 -27.5l667 8h15q47 0 67.5 26t20.5 77z" />
<glyph unicode="&#x404;" horiz-adv-x="1675" d="M59 1145q0 414 476 477l696 14q319 -57 373 -284l-269 -463l-90 151l-893 70l6 -305l990 -29l-76 -213h-907l6 -215h815l94 84l285 -221q-53 -201 -334 -225l-680 -64q-428 59 -428 445q0 20 1 39.5t3 39.5l-64 627q-2 20 -3 38t-1 34z" />
<glyph unicode="&#x405;" horiz-adv-x="1574" d="M1477 328q-8 -90 -41 -156t-95.5 -109t-156.5 -65.5t-223 -24.5l-834 -22l39 436l905 -68h8q88 0 88 125q0 100 -120 105l-467 10q-489 10 -490 453q0 274 123 428.5t352 163.5l887 30v-714l-856 84q-115 -10 -115 -119q0 -102 76 -101l471 15h29q207 0 318.5 -83 t111.5 -247v-21.5t-2 -21.5z" />
<glyph unicode="&#x406;" horiz-adv-x="534" d="M463 1591l-119 -1577l-264 -55l-55 1686z" />
<glyph unicode="&#x407;" horiz-adv-x="534" d="M627 1923l-43 -272h-256v274zM180 1925v-278h-289v282zM463 1591l-119 -1577l-264 -55l-55 1686z" />
<glyph unicode="&#x408;" horiz-adv-x="1284" d="M1223 1589l-121 -1106q8 -35 12 -67.5t4 -63.5q0 -88 -33.5 -158.5t-86 -120.5t-115 -79t-119.5 -31l-731 -29v439l778 -33l-96 1290z" />
<glyph unicode="&#x40e;" horiz-adv-x="1284" d="M1223 1589l-62 -581l-43 -523q12 -55 12 -108q0 -86 -33.5 -160t-86 -130t-118 -89t-128.5 -35l-739 -29l47 437l739 -31l-18 268l-222 10q-49 -14 -106 -14q-76 0 -149.5 31t-133 82t-98.5 116.5t-43 133.5l-55 745h432v-778l346 35l-49 661zM1137 1980l-95 -217 l-884 -43l-11 312z" />
<glyph unicode="&#x410;" d="M1587 0q-16 -2 -32.5 -2h-32.5q-197 0 -260 123q-72 -150 -248 -170l-430 29q-508 35 -508 458q0 205 120.5 319.5t366.5 114.5q12 0 24.5 -1t26.5 -1l498 -24q141 -6 201 -133q8 41 8 82q0 156 -154 184l-997 -53l14 610l830 35h39q244 0 354.5 -137.5t116.5 -432.5 l14 -739q2 -178 49 -262zM1323 473q0 57 -16.5 87t-57.5 32l-653 33q-68 -4 -68 -138q0 -94 93 -94h14l610 -26q39 0 58.5 24.5t19.5 81.5z" />
<glyph unicode="&#x411;" horiz-adv-x="1679" d="M1552 494q0 -74 -20 -158q-43 -190 -153.5 -278.5t-291.5 -88.5l-1021 19v1589l1165 137l-105 -688l-933 -53l8 -158l1171 -31q180 -75 180 -290zM1223 496q0 61 -66 61l-815 8l55 -209l719 41q20 -4 31 -4q31 0 53.5 27t22.5 76z" />
<glyph unicode="&#x412;" horiz-adv-x="1679" d="M1532 336q-43 -190 -153.5 -278.5t-291.5 -88.5l-1021 19v1589l1017 -2q20 2 39 3t37 1q201 0 287 -100.5t86 -302.5q0 -291 -160 -392q180 -76 180 -290q0 -76 -20 -158zM1071 897q0 39 -108 98l-654 -20l6 -168l623 -10q133 18 133 100zM1219 465q4 20 4 31 q0 61 -66 61l-815 8l55 -209l719 41q20 -4 31 -4q56 0 72 72z" />
<glyph unicode="&#x413;" horiz-adv-x="1411" d="M1343 1679l-104 -684h-881l177 -1058l-457 49l100 1556z" />
<glyph unicode="&#x414;" horiz-adv-x="1693" d="M1786 -10v-547l-365 -27l9 160l-1330 76l13 -197l-346 27l63 387l190 12q4 39 30 339t73 867v17q0 500 334 500h9t13 -2q10 0 161 5t443 15q96 0 170 -34t125.5 -96t77 -150.5t25.5 -196.5v-33l135 -1137zM1075 -51l-69 1216h-574l-88 -1249z" />
<glyph unicode="&#x415;" horiz-adv-x="1660" d="M1561 1032q-4 -512 -502 -512q-10 0 -20.5 1t-20.5 1l-471 21q0 -178 102 -201l803 37l-33 -397l-719 30q-156 6 -265 40t-179 96.5t-102.5 155.5t-32.5 222l-49 553q-2 16 -2 32.5v33.5q0 432 548 457l445 20q254 0 376 -146.5t122 -443.5zM1102 885q-4 104 -74 104h-8 l-559 12q-133 -10 -133 -172q0 -14 1 -27.5t3 -27.5l667 8h15q47 0 67.5 26t20.5 77z" />
<glyph unicode="&#x416;" horiz-adv-x="2437" d="M2593 1632l-695 -788l615 -844l-531 -84l-333 653l-322 -258l29 -340l-334 29l29 340l-213 195l-334 -654l-531 84l615 844l-694 788l524 45l545 -763v723l403 -109v-682l702 866z" />
<glyph unicode="&#x417;" horiz-adv-x="1679" d="M1552 494q0 -115 -31.5 -211.5t-91 -166t-143.5 -108.5t-188 -39q-6 0 -1053 19q98 109 186 200t166 168l719 41q4 0 15.5 -2t15.5 -2q76 0 76 103q0 61 -66 61l-815 8l-27 242l623 -10q25 0 48.5 7t42 20.5t30.5 31.5t12 41q0 25 -2 41t-13.5 27.5t-33 17.5t-59.5 12 l-654 -20q-4 10 -9 29.5t-15 46.5l-219 526l1093 2q193 0 283 -96.5t90 -306.5q0 -291 -160 -392q180 -75 180 -290z" />
<glyph unicode="&#x418;" horiz-adv-x="1603" d="M1511 -31q-315 88 -370 264q-121 -193 -285 -192l-424 -4q-217 0 -330.5 110.5t-113.5 319.5v21.5t2 21.5l63 1135l324 12l-55 -1024h686l67 1046l342 -26z" />
<glyph unicode="&#x419;" horiz-adv-x="1603" d="M1339 1980l-94 -217l-885 -43l-10 312zM1511 -31q-315 88 -370 264q-121 -193 -285 -192l-424 -4q-217 0 -330.5 110.5t-113.5 319.5v21.5t2 21.5l63 1135l324 12l-55 -1024h686l67 1046l342 -26z" />
<glyph unicode="&#x41a;" horiz-adv-x="1769" d="M1698 1632l-694 -788l614 -844l-531 -84l-333 653l-322 -258l29 -336h-250l-191 1624l619 37v-723l535 764z" />
<glyph unicode="&#x41b;" horiz-adv-x="1705" d="M1634 -115l-522 47l-330 1049l-358 -1059l-363 21l510 1581l420 90z" />
<glyph unicode="&#x41c;" horiz-adv-x="2506" d="M2429 -6l-617 -23l-278 1024l-168 -1054l-606 55l-201 1051l-272 -1006l-332 -31l500 1594h317l258 -756l338 747l285 -18z" />
<glyph unicode="&#x41d;" horiz-adv-x="1579" d="M1491 1595l-107 -1581l-374 -51v651l-500 -26l-47 -627l-258 12l-182 1626l595 21l64 -639h496v641z" />
<glyph unicode="&#x41e;" horiz-adv-x="1742" d="M1597 453q-16 -246 -111 -366t-288 -136l-639 22q-371 12 -469 494l-16 639q10 100 45 188t89 155t128 110t164 53l702 -15q217 -4 325.5 -125.5t108.5 -351.5q0 -14 -1 -27.5t-1 -27.5zM1147 287l-47 743l-772 -51l-37 -670z" />
<glyph unicode="&#x41f;" horiz-adv-x="1603" d="M1479 -6h-353l39 1010h-663l-76 -1055l-350 55l-49 1628q287 -41 338 -217q115 188 280 191l428 6q213 0 328 -114t115 -343v-29z" />
<glyph unicode="&#x420;" horiz-adv-x="1564" d="M1503 907q0 -223 -96 -345t-301 -144l-563 35l-35 -461l-402 -33v1628l934 66q455 -23 461 -561zM1090 893q2 6 2 13v14q0 90 -121 90h-19l-645 -29l-16 -182l692 -33q89 8 107 127z" />
<glyph unicode="&#x421;" horiz-adv-x="1675" d="M1327 885l-82 153l-911 47l43 -737h827l74 84l293 -221q-59 -199 -346 -223l-678 -62q-434 2 -451 496l-20 665v29q0 438 456 500l695 10q332 -43 381 -274z" />
<glyph unicode="&#x422;" horiz-adv-x="1466" d="M1386 1655l-63 -639l-455 -23l-32 -997l-301 -41l-39 1085l-406 -36l-67 602z" />
<glyph unicode="&#x423;" horiz-adv-x="1284" d="M1223 1589l-62 -581l-43 -523q12 -55 12 -108q0 -86 -33.5 -160t-86 -130t-118 -89t-128.5 -35l-739 -29l47 437l739 -31l-18 268l-222 10q-49 -14 -106 -14q-76 0 -149.5 31t-133 82t-98.5 116.5t-43 133.5l-55 745h432v-778l346 35l-49 661z" />
<glyph unicode="&#x424;" horiz-adv-x="2504" d="M2449 903q0 -217 -95 -337t-296 -144l-561 39l-51 -477l-459 -66l-51 551l-561 -39q-397 49 -391 481l2 197q6 563 450 561l1561 -8q444 -2 450 -561zM2038 911q0 49 -30 75t-81 26q-6 0 -13 -1t-13 -1l-347 -41l-8 -181l383 -8q92 -2 109 113v18zM936 807l-8 180 l-396 31h-24q-53 0 -84 -23.5t-31 -74.5q0 -70 31 -101t80 -31z" />
<glyph unicode="&#x425;" horiz-adv-x="1781" d="M1694 1556l-580 -729l498 -833l-406 -57l-276 583l-305 -518l-492 -65l539 739l-568 907l467 12l281 -528l278 504z" />
<glyph unicode="&#x426;" horiz-adv-x="1603" d="M1790 260l-518 -958l-262 221l88 479l-666 2q-217 0 -330.5 110.5t-113.5 319.5v21.5t2 21.5l63 1135l324 12l-55 -1024h686l67 1047l342 -27l74 -1348z" />
<glyph unicode="&#x427;" horiz-adv-x="1284" d="M1223 1589q-29 -285 -64 -671t-76 -881l-264 -55l-26 626h-177q-12 0 -32.5 -1t-43 -1t-43 -1t-32.5 -1q-76 0 -149.5 31t-133 81t-97.5 115.5t-44 135.5l-55 745h432v-778l346 35l-49 661z" />
<glyph unicode="&#x428;" horiz-adv-x="1986" d="M1896 -12l-1421 -41q-211 0 -317.5 135t-106.5 393l8 1163l494 -24v-1094l381 31l35 1061h280v-1108l383 26v1057l195 27z" />
<glyph unicode="&#x429;" horiz-adv-x="1986" d="M2185 229l-518 -958l-262 221l88 479l-1018 -24q-207 0 -315.5 134t-108.5 394l8 1163l494 -24v-1094l381 31l35 1061h280v-1108l383 26v1057l195 27l59 -1372z" />
<glyph unicode="&#x42a;" horiz-adv-x="1656" d="M1604 510q-6 -543 -451 -561l-915 57v1303l-299 -54l-9 400l672 -29l51 -477l561 39q393 -49 392 -481zM1194 717q-16 115 -109 112l-684 -16l9 -180l647 -33h18q55 0 87 22.5t32 73.5v21v0z" />
<glyph unicode="&#x42b;" horiz-adv-x="1986" d="M1942 1606l-152 -1590l-244 -51v1663zM1497 520q-6 -543 -450 -561l-949 57v1645l398 -25l51 -477l561 39q393 -49 391 -481zM1087 727q-16 115 -108 113l-684 -17l8 -180l647 -33h19q55 0 86.5 22.5t31.5 74.5v20v0z" />
<glyph unicode="&#x42c;" horiz-adv-x="1564" d="M1497 520q-6 -543 -450 -561l-949 57v1645l398 -25l51 -477l561 39q393 -49 391 -481zM1087 727q-16 115 -108 113l-684 -17l8 -180l647 -33h19q55 0 86.5 22.5t31.5 74.5v20v0z" />
<glyph unicode="&#x42d;" horiz-adv-x="1675" d="M1604 1145q0 -16 -1 -33.5t-4 -38.5l-63 -627q2 -20 3 -39.5t1 -39.5q0 -385 -428 -445l-680 64q-281 25 -334 225l285 221l94 -88h815l6 205h-907l-76 227l990 29l6 305l-893 -70l-90 -151l-269 463q53 227 373 284l696 -14q476 -63 476 -477z" />
<glyph unicode="&#x42e;" horiz-adv-x="2054" d="M1495 1038l-772 -51l-37 -670l856 -22zM324 666l153 -13zM2032 1133v-27.5t-2 -32.5l-37 -612q-14 -236 -116.5 -369t-283.5 -133l-639 23q-307 8 -426 335q-29 76 -39 130.5t-12 92.5t0 64.5t0 48.5l-153 13l-68 -652l-244 -51v1663l396 -22l-64 -660l125 51v25 q0 121 33 229.5t89 191.5t134 131t170 48l702 -14q435 -10 435 -473z" />
<glyph unicode="&#x42f;" horiz-adv-x="1699" d="M1630 1612l-104 -1637l-336 27l-10 483l-176 17l-302 -514h-540l424 467q-166 2 -277.5 43t-179.5 117.5t-95.5 190.5t-27.5 261q0 283 131 419t398 136zM1384 942l-978 27q-57 0 -90 -22.5t-33 -76.5q0 -47 26.5 -81.5t87.5 -55.5l973 62z" />
<glyph unicode="&#x430;" d="M1591 12q-47 -6 -88 -6q-182 0 -243 113q-72 -147 -244 -166l-430 31q-514 37 -514 471q0 197 123.5 306t377.5 109h48l501 -18q121 -6 172 -117q16 66 17 107q0 150 -156 157l-979 -55v584l821 43h45q248 0 383.5 -139.5t135.5 -407.5v-37l-27 -776v-29q0 -143 57 -170z M1282 483q-4 109 -72 121l-600 21q-37 2 -59.5 -32t-22.5 -101q0 -96 105 -99l579 -12q70 -2 70 102z" />
<glyph unicode="&#x431;" horiz-adv-x="1679" d="M1552 494q0 -74 -20 -158q-43 -190 -153.5 -278.5t-291.5 -88.5l-1021 19v1589l1165 137l-105 -688l-933 -53l8 -158l1171 -31q180 -75 180 -290zM1223 496q0 61 -66 61l-815 8l55 -209l719 41q20 -4 31 -4q31 0 53.5 27t22.5 76z" />
<glyph unicode="&#x432;" horiz-adv-x="1679" d="M1542 334q-72 -342 -459 -367l-1030 31l45 1624l977 -31q129 -4 218 -30.5t142.5 -80t77 -133t23.5 -190.5q0 -276 -166 -371q188 -84 189 -309q-1 -61 -17 -143zM1073 899q-2 47 -21.5 65.5t-42 23.5t-38 3t-8.5 4l-668 -37l18 -151l621 -14q74 10 106.5 37.5t32.5 68.5 zM1217 465q2 10 2 31q0 57 -62 61l-835 16l75 -215l723 50q18 -8 37 -9q48 0 60 66z" />
<glyph unicode="&#x433;" horiz-adv-x="1411" d="M1343 1679l-104 -684h-881l177 -1058l-457 49l100 1556z" />
<glyph unicode="&#x434;" horiz-adv-x="1693" d="M1786 -10v-547l-365 -27l9 160l-1330 76l13 -197l-346 27l63 387l190 12q4 39 30 339t73 867v17q0 500 334 500h9t13 -2q10 0 161 5t443 15q96 0 170 -34t125.5 -96t77 -150.5t25.5 -196.5v-33l135 -1137zM1075 -51l-69 1216h-574l-88 -1249z" />
<glyph unicode="&#x435;" horiz-adv-x="1660" d="M1573 1026q-2 -481 -563 -512l-473 29q6 -182 110 -201l809 47l-35 -401l-739 12q-555 8 -555 483v23.5t2 23.5l-53 553q-2 18 -3 37t-1 35q0 440 542 455l449 12q254 0 382 -156.5t128 -439.5zM1102 885q-4 104 -74 104h-8l-551 12q-70 0 -104.5 -39.5t-34.5 -127.5 q0 -14 1 -30t3 -32l684 10h12q72 1 72 103z" />
<glyph unicode="&#x436;" horiz-adv-x="2437" d="M2593 1632l-695 -788l615 -844l-531 -84l-333 653l-322 -258l29 -340l-334 29l29 340l-213 195l-334 -654l-531 84l615 844l-694 788l524 45l545 -763v723l403 -109v-682l702 866z" />
<glyph unicode="&#x437;" horiz-adv-x="1679" d="M1552 494q0 -115 -31.5 -211.5t-91 -166t-143.5 -108.5t-188 -39q-6 0 -1053 19q98 109 186 200t166 168l719 41q4 0 15.5 -2t15.5 -2q76 0 76 103q0 61 -66 61l-815 8l-27 242l623 -10q25 0 48.5 7t42 20.5t30.5 31.5t12 41q0 25 -2 41t-13.5 27.5t-33 17.5t-59.5 12 l-654 -20q-4 10 -9 29.5t-15 46.5l-219 526l1093 2q193 0 283 -96.5t90 -306.5q0 -291 -160 -392q180 -75 180 -290z" />
<glyph unicode="&#x438;" horiz-adv-x="1603" d="M1511 -31q-315 88 -370 264q-121 -193 -285 -192l-424 -4q-217 0 -330.5 110.5t-113.5 319.5v21.5t2 21.5l63 1135l324 12l-55 -1024h686l67 1046l342 -26z" />
<glyph unicode="&#x439;" horiz-adv-x="1603" d="M1339 1980l-94 -217l-885 -43l-10 312zM1511 -31q-315 88 -370 264q-121 -193 -285 -192l-424 -4q-217 0 -330.5 110.5t-113.5 319.5v21.5t2 21.5l63 1135l324 12l-55 -1024h686l67 1046l342 -26z" />
<glyph unicode="&#x43a;" horiz-adv-x="1769" d="M1683 1624l-704 -776l616 -850l-510 -84l-313 645l-342 -240l27 -352l-250 8l-221 1586l628 81l29 -718l537 768z" />
<glyph unicode="&#x43b;" horiz-adv-x="1705" d="M1634 -115l-522 47l-330 1049l-358 -1059l-363 21l510 1581l420 90z" />
<glyph unicode="&#x43c;" horiz-adv-x="2506" d="M2429 -6l-617 -23l-278 1024l-168 -1054l-606 55l-201 1051l-272 -1006l-332 -31l500 1594h317l258 -756l338 747l285 -18z" />
<glyph unicode="&#x43d;" horiz-adv-x="1579" d="M1483 1595l-133 -1585l-338 -49l14 637h-518l-53 -645l-254 20l-213 1588l616 65l80 -639h477v625z" />
<glyph unicode="&#x43e;" horiz-adv-x="1742" d="M1589 444q-12 -238 -108.5 -358.5t-290.5 -142.5l-645 37q-360 23 -453 493l-35 623q16 104 55.5 195t95.5 159t131 111t161 53l717 2q410 -37 409 -492q0 -14 -1 -28.5t-1 -30.5zM1143 305l-60 723l-759 -53l-17 -670h836z" />
<glyph unicode="&#x43f;" horiz-adv-x="1603" d="M1448 4l-324 -12l56 1024h-686l-68 -1047l-342 27l-94 1683q315 -88 370 -264q121 188 285 193l424 4q213 0 327.5 -110.5t114.5 -321.5v-41z" />
<glyph unicode="&#x440;" horiz-adv-x="1564" d="M1499 903q0 -217 -95 -337t-296 -144l-561 39l-51 -477l-365 -25v1645l916 57q444 -18 450 -561zM1087 893q0 4 1.5 10t1.5 10q0 96 -121 97h-19l-647 -33l-8 -180l684 -17q92 -2 108 113z" />
<glyph unicode="&#x441;" horiz-adv-x="1675" d="M1335 889l-90 151l-893 70l19 -762h815l94 84l285 -221q-53 -201 -334 -225l-680 -64q-428 59 -428 445q0 20 1 39.5t3 39.5l-64 627q-2 18 -3 36.5t-1 35.5q0 205 124 325.5t352 151.5l696 14q319 -57 373 -284z" />
<glyph unicode="&#x442;" horiz-adv-x="1466" d="M1352 1669l-41 -655l-451 -23v-1009l-325 -23l-56 1065l-397 -20l-72 587z" />
<glyph unicode="&#x443;" horiz-adv-x="1284" d="M1223 1589l-62 -581l-43 -523q12 -55 12 -108q0 -86 -33.5 -160t-86 -130t-118 -89t-128.5 -35l-739 -29l47 437l739 -31l-18 268l-222 10q-49 -14 -106 -14q-76 0 -149.5 31t-133 82t-98.5 116.5t-43 133.5l-55 745h432v-778l346 35l-49 661z" />
<glyph unicode="&#x444;" horiz-adv-x="2504" d="M2449 903q0 -217 -95 -337t-296 -144l-561 39l-51 -477l-459 -66l-51 551l-561 -39q-397 49 -391 481l2 197q6 563 450 561l1561 -8q444 -2 450 -561zM2038 911q0 49 -30 75t-81 26q-6 0 -13 -1t-13 -1l-347 -41l-8 -181l383 -8q92 -2 109 113v18zM936 807l-8 180 l-396 31h-24q-53 0 -84 -23.5t-31 -74.5q0 -70 31 -101t80 -31z" />
<glyph unicode="&#x445;" horiz-adv-x="1781" d="M1683 1556l-575 -735l526 -839l-430 -37l-282 567l-310 -510l-489 -76l526 758l-540 918h464l263 -545l282 516z" />
<glyph unicode="&#x446;" horiz-adv-x="1603" d="M1790 260l-518 -958l-262 221l88 479l-666 2q-217 0 -330.5 110.5t-113.5 319.5v21.5t2 21.5l63 1135l324 12l-55 -1024h686l67 1047l342 -27l74 -1348z" />
<glyph unicode="&#x447;" horiz-adv-x="1284" d="M1223 1589q-29 -285 -64 -671t-76 -881l-264 -55l-26 626h-177q-12 0 -32.5 -1t-43 -1t-43 -1t-32.5 -1q-76 0 -149.5 31t-133 81t-97.5 115.5t-44 135.5l-55 745h432v-778l346 35l-49 661z" />
<glyph unicode="&#x448;" horiz-adv-x="1986" d="M1896 -12l-1421 -41q-211 0 -317.5 135t-106.5 393l8 1163l494 -24v-1094l381 31l35 1061h280v-1108l383 26v1057l195 27z" />
<glyph unicode="&#x449;" horiz-adv-x="1986" d="M2185 229l-518 -958l-262 221l88 479l-1018 -24q-207 0 -315.5 134t-108.5 394l8 1163l494 -24v-1094l381 31l35 1061h280v-1108l383 26v1057l195 27l59 -1372z" />
<glyph unicode="&#x44a;" horiz-adv-x="1656" d="M1604 510q-6 -543 -451 -561l-915 57v1303l-299 -54l-9 400l672 -29l51 -477l561 39q393 -49 392 -481zM1194 717q-16 115 -109 112l-684 -16l9 -180l647 -33h18q55 0 87 22.5t32 73.5v21v0z" />
<glyph unicode="&#x44b;" horiz-adv-x="1986" d="M1942 1606l-152 -1590l-244 -51v1663zM1497 520q-6 -543 -450 -561l-949 57v1645l398 -25l51 -477l561 39q393 -49 391 -481zM1087 727q-16 115 -108 113l-684 -17l8 -180l647 -33h19q55 0 86.5 22.5t31.5 74.5v20v0z" />
<glyph unicode="&#x44c;" horiz-adv-x="1564" d="M1497 520q-6 -543 -450 -561l-949 57v1645l398 -25l51 -477l561 39q393 -49 391 -481zM1087 727q-16 115 -108 113l-684 -17l8 -180l647 -33h19q55 0 86.5 22.5t31.5 74.5v20v0z" />
<glyph unicode="&#x44d;" horiz-adv-x="1675" d="M1604 1145q0 -16 -1 -33.5t-4 -38.5l-63 -627q2 -20 3 -39.5t1 -39.5q0 -385 -428 -445l-680 64q-281 25 -334 225l285 221l94 -88h815l6 205h-907l-76 227l990 29l6 305l-893 -70l-90 -151l-269 463q53 227 373 284l696 -14q476 -63 476 -477z" />
<glyph unicode="&#x44e;" horiz-adv-x="2054" d="M1495 1038l-772 -51l-37 -670l856 -22zM324 666l153 -13zM2032 1133v-27.5t-2 -32.5l-37 -612q-14 -236 -116.5 -369t-283.5 -133l-639 23q-307 8 -426 335q-29 76 -39 130.5t-12 92.5t0 64.5t0 48.5l-153 13l-68 -652l-244 -51v1663l396 -22l-64 -660l125 51v25 q0 121 33 229.5t89 191.5t134 131t170 48l702 -14q435 -10 435 -473z" />
<glyph unicode="&#x44f;" horiz-adv-x="1699" d="M1630 1612l-104 -1637l-336 27l-10 483l-176 17l-302 -514h-540l424 467q-166 2 -277.5 43t-179.5 117.5t-95.5 190.5t-27.5 261q0 283 131 419t398 136zM1384 942l-978 27q-57 0 -90 -22.5t-33 -76.5q0 -47 26.5 -81.5t87.5 -55.5l973 62z" />
<glyph unicode="&#x451;" horiz-adv-x="1660" d="M1255 1923l-43 -272h-256v274zM809 1925v-278h-289v282zM1561 1032q-4 -512 -502 -512q-10 0 -20.5 1t-20.5 1l-471 21q0 -178 102 -201l803 37l-33 -397l-719 30q-156 6 -265 40t-179 96.5t-102.5 155.5t-32.5 222l-49 553q-2 16 -2 32.5v33.5q0 432 548 457l445 20 q254 0 376 -146.5t122 -443.5zM1102 885q-4 104 -74 104h-8l-559 12q-133 -10 -133 -172q0 -14 1 -27.5t3 -27.5l667 8h15q47 0 67.5 26t20.5 77z" />
<glyph unicode="&#x454;" horiz-adv-x="1675" d="M59 1145q0 414 476 477l696 14q319 -57 373 -284l-269 -463l-90 151l-893 70l6 -305l990 -29l-76 -213h-907l6 -215h815l94 84l285 -221q-53 -201 -334 -225l-680 -64q-428 59 -428 445q0 20 1 39.5t3 39.5l-64 627q-2 20 -3 38t-1 34z" />
<glyph unicode="&#x455;" horiz-adv-x="1574" d="M1477 328q-31 -360 -506 -361h-848l37 414l893 -62h14q98 0 98 111q0 113 -118 119l-465 16q-502 18 -502 432q0 293 129 444.5t358 166.5l903 51l-22 -729l-873 76q-43 -6 -68.5 -37t-25.5 -84q0 -102 76 -101l483 15h27q414 0 418 -373z" />
<glyph unicode="&#x456;" horiz-adv-x="534" d="M461 1599l-152 -1589l-243 -51v1663z" />
<glyph unicode="&#x457;" horiz-adv-x="534" d="M627 1923l-43 -272h-256v274zM180 1925v-278h-289v282zM463 1591l-119 -1577l-264 -55l-55 1686z" />
<glyph unicode="&#x458;" horiz-adv-x="1284" d="M1225 1595l-146 -1114q31 -90 31 -164q0 -76 -29.5 -139t-79 -109t-112 -74t-125.5 -30l-752 -41l13 449l770 -51l-113 1323z" />
<glyph unicode="&#x45e;" horiz-adv-x="1603" d="M1339 1980l-94 -217l-885 -43l-10 312zM1511 -31q-315 88 -370 264q-121 -193 -285 -192l-424 -4q-217 0 -330.5 110.5t-113.5 319.5v21.5t2 21.5l63 1135l324 12l-55 -1024h686l67 1046l342 -26z" />
<glyph unicode="&#x490;" horiz-adv-x="1411" d="M1239 995h-881l177 -1058l-457 49l100 1556l748 84l-21 176l428 -47z" />
<glyph unicode="&#x491;" horiz-adv-x="1411" d="M1239 995h-881l177 -1058l-457 49l100 1556l748 84l-21 176l428 -47z" />
<glyph unicode="&#x2000;" horiz-adv-x="1016" />
<glyph unicode="&#x2001;" horiz-adv-x="2032" />
<glyph unicode="&#x2002;" horiz-adv-x="1016" />
<glyph unicode="&#x2003;" horiz-adv-x="2032" />
<glyph unicode="&#x2004;" horiz-adv-x="677" />
<glyph unicode="&#x2005;" horiz-adv-x="508" />
<glyph unicode="&#x2006;" horiz-adv-x="338" />
<glyph unicode="&#x2007;" horiz-adv-x="338" />
<glyph unicode="&#x2008;" horiz-adv-x="254" />
<glyph unicode="&#x2009;" horiz-adv-x="406" />
<glyph unicode="&#x200a;" horiz-adv-x="112" />
<glyph unicode="&#x2010;" horiz-adv-x="806" d="M725 977l-47 -426h-588v426h635z" />
<glyph unicode="&#x2011;" horiz-adv-x="806" d="M725 977l-47 -426h-588v426h635z" />
<glyph unicode="&#x2012;" horiz-adv-x="806" d="M725 977l-47 -426h-588v426h635z" />
<glyph unicode="&#x2013;" horiz-adv-x="790" d="M702 973l-26 -418h-580v418h606z" />
<glyph unicode="&#x2014;" horiz-adv-x="1601" d="M1518 1001l-48 -417l-1378 -33v450h1426z" />
<glyph unicode="&#x2015;" horiz-adv-x="1034" d="M952 979l-61 -430h-791l-10 430h862z" />
<glyph unicode="&#x2018;" horiz-adv-x="413" d="M47 1059l23 244l131 327l143 -135l-96 -160h133l-12 -256z" />
<glyph unicode="&#x2019;" horiz-adv-x="413" d="M383 1632l-23 -243l-131 -328l-143 135l96 160h-133l12 256z" />
<glyph unicode="&#x201a;" horiz-adv-x="413" d="M324 252l-23 -244l-131 -327l-143 135l96 159h-133l12 256z" />
<glyph unicode="&#x201c;" horiz-adv-x="772" d="M371 1059l22 244l131 327l144 -135l-97 -160h134l-13 -256zM37 1059l22 244l131 327l144 -135l-96 -160h133l-13 -256z" />
<glyph unicode="&#x201d;" horiz-adv-x="739" d="M371 1632l-23 -243l-131 -328l-143 135l96 160h-133l12 256zM705 1632l-23 -243l-131 -328l-143 135l96 160h-133l12 256z" />
<glyph unicode="&#x201e;" horiz-adv-x="778" d="M383 252l-23 -244l-131 -327l-143 135l96 159h-133l12 256zM723 252l-23 -244l-131 -327l-143 135l96 159h-133l12 256z" />
<glyph unicode="&#x2022;" horiz-adv-x="1099" d="M1004 551q-10 -244 -267 -244q-8 0 -15 1t-15 1l-345 21q-274 16 -284 229l16 363q0 6 -1 11t-1 11q0 207 266 244l365 18q51 -4 103.5 -22.5t95.5 -49t69.5 -74.5t26.5 -99z" />
<glyph unicode="&#x2026;" horiz-adv-x="1529" d="M401 -29h-311v273h336zM911 -29h-311v273h336zM1421 -29h-311v273h336z" />
<glyph unicode="&#x202f;" horiz-adv-x="406" />
<glyph unicode="&#x2039;" horiz-adv-x="608" d="M557 1075l-266 -272l252 -363l-166 -268l-365 598l416 600z" />
<glyph unicode="&#x203a;" horiz-adv-x="612" d="M596 762l-365 -594l-174 274l222 316l-230 315l166 299z" />
<glyph unicode="&#x205f;" horiz-adv-x="508" />
<glyph unicode="&#x20ac;" horiz-adv-x="1675" d="M1327 885l-82 153l-911 47l8 -157l461 12l-49 -223h-473l4 -137l514 12l-49 -178h-379l6 -66h827l74 84l293 -221q-59 -190 -346 -223l-670 -80q-424 76 -424 454v24.5t2 27.5h-82l-6 180h78l-12 137l-82 2l-11 187l74 2l-16 165q-2 16 -3 34t-1 34q0 395 460 461l695 10 q332 -43 381 -274z" />
<glyph unicode="&#x2122;" horiz-adv-x="1857" d="M700 1657l-20 -328l-221 -10v-504l-166 -12l-29 532l-198 -10l-35 293zM1761 780l-272 11l14 593l-215 -28l-28 -563l-127 -5l-23 588l-182 -14v-567l-113 -4l-51 847h24q125 0 168 -88q20 115 160 119l420 10q104 -10 160.5 -79.5t64.5 -204.5v-615z" />
<glyph unicode="&#xe000;" horiz-adv-x="1597" d="M0 1597h1597v-1597h-1597v1597z" />
<glyph horiz-adv-x="0" />
</font>
</defs>
</svg>
