<?xml version="1.0" standalone="no"?>
<!DOCTYPE svg PUBLIC "-//W3C//DTD SVG 1.1//EN" "http://www.w3.org/Graphics/SVG/1.1/DTD/svg11.dtd" >
<svg xmlns="http://www.w3.org/2000/svg">
<metadata></metadata>
<defs>
<font id="gost_type_bstandard" horiz-adv-x="978" >
<font-face units-per-em="2048" ascent="1638" descent="-410" />
<missing-glyph horiz-adv-x="839" />
<glyph horiz-adv-x="0" />
<glyph unicode="&#xd;" horiz-adv-x="839" />
<glyph unicode=" "  horiz-adv-x="839" />
<glyph unicode="&#x09;" horiz-adv-x="839" />
<glyph unicode="&#xa0;" horiz-adv-x="839" />
<glyph unicode="!" horiz-adv-x="419" d="M281 350v979q0 35 -21.5 53.5t-48.5 18.5q-31 0 -51.5 -19.5t-20.5 -52.5v-979q0 -35 21.5 -52t50.5 -17q31 0 50.5 17t19.5 52zM139 70q0 -33 21.5 -51.5t50.5 -18.5q31 0 50.5 17.5t19.5 52.5t-21.5 52t-48.5 17q-31 0 -51.5 -18t-20.5 -51z" />
<glyph unicode="&#x22;" horiz-adv-x="700" d="M557 1313q2 10 2 18q0 31 -21.5 50.5t-50.5 19.5q-55 0 -67 -53l-70 -281q-2 -10 -2 -18q0 -31 21.5 -50.5t50.5 -19.5q55 0 67 53zM276 1313l5 18q0 31 -21.5 50.5t-52.5 19.5q-55 0 -68 -53l-69 -281q-2 -10 -2 -18q0 -31 21.5 -50.5t49.5 -19.5q55 0 68 53z" />
<glyph unicode="#" horiz-adv-x="1386" d="M451 905l-89 -416h-141q-33 0 -51 -20t-18 -49t18 -49.5t51 -20.5h113l-58 -268q-2 -4 -2 -19q0 -31 20.5 -48t49.5 -17q25 0 44.5 13.5t25.5 41.5l63 297h287l-57 -268q-2 -2 -2 -16q0 -31 22.5 -49.5t50.5 -18.5q53 0 66 53l65 299h142q33 0 51 20.5t18 49.5 q0 31 -17.5 50t-51.5 19h-111l88 416h139q33 0 51.5 20.5t18.5 49.5q0 31 -17.5 50t-52.5 19h-108l57 271q2 4 2 16q0 31 -21.5 50.5t-49.5 19.5q-53 0 -68 -55l-64 -302h-288l57 273v16q0 31 -20.5 49.5t-49.5 18.5q-25 0 -44 -14.5t-23 -43.5l-66 -299h-143 q-33 0 -51.5 -21.5t-18.5 -47.5q0 -31 19.5 -50.5t50.5 -19.5h113zM885 905l-90 -416h-289l88 416h291z" />
<glyph unicode="$" horiz-adv-x="1120" d="M494 1397q-78 -6 -141.5 -32t-108.5 -65.5t-69.5 -91t-24.5 -108.5v-10q0 -61 24.5 -105.5t71.5 -91.5l248 -178v-576q-61 8 -120 33t-120 66q-23 12 -39 12q-31 0 -50.5 -22.5t-19.5 -51.5q0 -37 33 -57q80 -51 159 -83t157 -40v-207q0 -33 20.5 -51.5t48.5 -18.5 q31 0 50.5 17.5t19.5 52.5v211q47 6 102.5 25.5t102.5 44.5q74 39 110.5 111.5t36.5 160.5q0 86 -36 163t-105 122l-211 155v473q123 -18 223 -88q16 -14 41 -14q29 0 49.5 22.5t20.5 51.5q0 14 -7.5 29.5t-23.5 25.5q-135 98 -303 113v209q0 35 -21.5 52t-48.5 17 q-31 0 -50 -18.5t-19 -50.5v-207zM494 887l-168 125q-41 29 -41 78q0 37 22.5 71.5t63.5 57.5q55 29 123 38v-370zM633 610l133 -98q41 -27 62.5 -74t21.5 -98q0 -47 -19.5 -87t-58.5 -60q-72 -37 -139 -50v467z" />
<glyph unicode="%" horiz-adv-x="2099" d="M1960 322q0 154 -100 241q-90 80 -222 80q-133 0 -221 -80q-100 -88 -100 -241q0 -154 100 -242q88 -80 221 -80q131 0 222 80q100 88 100 242zM1528 1290q14 20 14 39q0 31 -22.5 51.5t-51.5 20.5q-39 0 -57 -33l-840 -1259q-12 -18 -12 -39q0 -29 22.5 -50.5 t49.5 -21.5q37 0 57 33zM784 1077q0 156 -100 244q-90 80 -221 80q-133 0 -221 -82q-102 -90 -103 -242q0 -152 103 -241q88 -80 221 -80q131 0 221 80q100 87 100 241zM1821 322q0 -86 -58 -138q-51 -45 -125 -45t-127 47q-55 51 -55 136q0 88 57 137q47 45 125 45 q74 0 128.5 -48t54.5 -134zM643 1077q0 -86 -57 -137q-47 -45 -123 -45q-74 0 -127 47q-55 51 -55 135q0 88 57 137q47 45 125 46q74 0 127 -48.5t53 -134.5z" />
<glyph unicode="&#x26;" horiz-adv-x="1259" d="M557 944l158 131q25 20 24 53q0 41 -40 82t-93 52q-4 2 -20 2q-27 0 -51.5 -11.5t-44 -29t-30.5 -41t-11 -47.5q0 -31 18 -58zM854 272l-326 469l-143 -120q-49 -41 -69.5 -95.5t-20.5 -107.5q0 -117 86 -205q88 -88 205 -88q45 0 92 17.5t88 52.5zM449 856l-97 139 q-43 63 -43 129q0 109 84 193q88 84 197 84h16q12 0 25 -2q100 -18 172 -105q66 -84 65 -178q0 -45 -15 -82t-50 -65l-166 -140l321 -458l74 71q20 20 47 21q29 0 50.5 -21.5t21.5 -50.5q0 -27 -23 -49l-92 -86l103 -145q14 -20 14 -41q0 -29 -22.5 -50.5t-51.5 -21.5 q-31 0 -55 31l-90 129l-74 -70q-66 -53 -133.5 -77.5t-136.5 -24.5q-174 0 -303 133q-129 131 -129 305q0 78 32.5 155.5t100.5 143.5z" />
<glyph unicode="'" horiz-adv-x="419" d="M297 1313q2 10 2 18q0 31 -21.5 50.5t-50.5 19.5q-27 0 -46 -13.5t-23 -44.5l-72 -294q0 -31 22.5 -50.5t51.5 -19.5q57 0 67 55z" />
<glyph unicode="(" horiz-adv-x="630" d="M485 -117q-195 346 -194 742q0 193 48 381t146 360q8 16 9 35q0 31 -22.5 50t-49.5 19q-39 0 -62 -36q-209 -379 -208 -809q0 -211 52 -417t156 -392q20 -37 60 -37q29 0 51.5 19.5t22.5 47.5q-1 21 -9 37z" />
<glyph unicode=")" horiz-adv-x="630" d="M264 -184q104 186 156.5 390t52.5 419q0 209 -54 415.5t-155 393.5q-23 37 -59 36q-31 0 -52.5 -19t-21.5 -48q0 -20 8 -37q195 -344 195 -741q0 -193 -50.5 -383.5t-144.5 -358.5q-8 -16 -8 -37q0 -29 21.5 -48t50.5 -19q38 0 61 37z" />
<glyph unicode="*" horiz-adv-x="909" d="M600 1051h121q33 0 51.5 20.5t18.5 48.5q0 31 -17.5 50.5t-52.5 19.5h-121l68 100q12 20 12 39q0 31 -22.5 51.5t-49.5 20.5q-39 0 -57 -33l-82 -121l-82 121q-20 33 -55 33q-29 0 -51.5 -20.5t-22.5 -49.5q0 -20 12 -41l68 -100h-121q-33 0 -51.5 -21.5t-18.5 -48.5 q0 -31 18.5 -50t51.5 -19h121l-68 -103q-12 -18 -12 -39q0 -29 22.5 -50t49.5 -21q37 0 57 32l82 123l82 -123q20 -33 55 -32q29 0 51.5 21.5t22.5 49.5q0 8 -3 19.5t-9 19.5z" />
<glyph unicode="+" d="M563 420h209q35 0 52.5 21.5t17.5 47.5q0 31 -17.5 50.5t-52.5 19.5h-209v211q0 33 -21.5 51.5t-47.5 18.5q-31 0 -51.5 -18.5t-20.5 -51.5v-211h-209q-35 0 -52.5 -20.5t-17.5 -49.5t18.5 -49t51.5 -20h209v-209q0 -35 21.5 -53.5t50.5 -18.5q31 0 50 17.5t19 54.5v209z " />
<glyph unicode="," horiz-adv-x="419" d="M287 70v69q0 35 -20.5 53.5t-49.5 18.5t-49.5 -19.5t-20.5 -52.5v-57l-69 -275q-2 -10 -2 -18q0 -31 21.5 -50.5t49.5 -19.5q57 0 68 54l70 280z" />
<glyph unicode="-" d="M770 420q33 0 51.5 21.5t18.5 47.5q0 31 -17.5 50.5t-52.5 19.5h-559q-35 0 -53.5 -20.5t-18.5 -49.5t19.5 -49t52.5 -20h559z" />
<glyph unicode="." horiz-adv-x="419" d="M139 70q0 -29 20.5 -49.5t51.5 -20.5q29 0 49.5 20.5t20.5 49.5q0 31 -20.5 50t-49.5 19q-31 0 -51.5 -19t-20.5 -50z" />
<glyph unicode="/" horiz-adv-x="1259" d="M1047 1724q4 16 4 27q0 29 -22.5 49.5t-51.5 20.5q-18 0 -36.5 -12.5t-27.5 -32.5l-770 -1960q-4 -16 -4 -27q0 -31 22.5 -50.5t51.5 -19.5q18 0 36.5 12.5t26.5 32.5z" />
<glyph unicode="0" d="M840 307v785q0 129 -90.5 219t-217.5 90h-83q-127 0 -220 -92q-90 -90 -90 -217v-785q0 -129 90 -219q90 -88 220 -88h83q129 0 218 88q90 90 90 219zM700 307q0 -70 -49 -119t-119 -49h-83q-70 0 -119 49.5t-49 118.5v785q0 70 49 119t119 49h83q70 0 119 -49.5 t49 -118.5v-785z" />
<glyph unicode="1" horiz-adv-x="700" d="M559 70v1259q0 39 -16.5 59.5t-40.5 20.5q-31 0 -62 -31l-278 -278q-23 -23 -23 -49q0 -29 21.5 -50.5t50.5 -21.5q25 0 47 22l162 160v-1091q0 -33 21.5 -51.5t47.5 -18.5q31 0 50.5 17.5t19.5 52.5z" />
<glyph unicode="2" d="M788 860q45 82 46 172q0 150 -115 258q-115 111 -277 111q-86 0 -163.5 -48t-126.5 -126q-12 -18 -13 -39q0 -29 22.5 -48.5t49.5 -19.5q39 0 57 33q33 49 80 78t105 29q100 0 172 -66q70 -63 69 -158q0 -53 -26 -104l-516 -823q-16 -29 -17 -54q0 -55 76 -55h559 q33 0 51.5 21.5t18.5 48.5q0 31 -17.5 50t-52.5 19h-434z" />
<glyph unicode="3" d="M483 1257q98 0 156 -63q49 -55 49 -141q0 -84 -53 -148q-59 -68 -152 -67h-141q-33 0 -51.5 -20.5t-18.5 -49.5t19.5 -49.5t50.5 -20.5h141q43 0 81 -16t66.5 -45t45 -67t16.5 -81v-141q0 -43 -16.5 -81t-45 -66.5t-66.5 -45t-81 -16.5h-280q-33 0 -51.5 -21.5 t-18.5 -49.5q0 -29 18.5 -49.5t51.5 -20.5h280q145 0 248 102.5t103 247.5v141q0 86 -37 157t-101 120q68 49 103 124t35 161q0 143 -89 239q-98 109 -262 109h-280q-33 0 -51.5 -21.5t-18.5 -48.5q0 -31 18.5 -51.5t51.5 -20.5h280z" />
<glyph unicode="4" horiz-adv-x="1120" d="M770 420v211q0 33 -21.5 51t-48.5 18q-31 0 -50 -19t-19 -50v-211h-328l254 891q2 10 2 20q0 31 -21.5 50.5t-50.5 19.5q-20 0 -38.5 -13.5t-26.5 -37.5l-279 -981q-2 -4 -4 -14.5t-2 -16.5q0 -57 74 -57h420v-211q0 -33 20.5 -51.5t48.5 -18.5q31 0 50.5 17.5t19.5 52.5 v211h139q35 0 52.5 20.5t17.5 48.5q0 31 -17.5 50.5t-52.5 19.5h-139z" />
<glyph unicode="5" d="M281 1260h489q33 0 51.5 21.5t18.5 47.5q0 31 -17.5 51.5t-52.5 20.5h-559q-72 0 -72 -72v-559q0 -70 72 -70h278q43 0 82 -16t68 -45t45 -68t16 -82v-139q0 -43 -16 -81t-45 -67.5t-68 -46t-82 -16.5h-278q-35 0 -53.5 -20.5t-18.5 -48.5q0 -29 19.5 -49.5t52.5 -20.5 h278q145 0 248 102.5t103 247.5v139q0 145 -102.5 248t-248.5 103h-208v420z" />
<glyph unicode="6" d="M283 700h276q59 0 100 -41t41 -100v-278q0 -59 -41 -100.5t-100 -41.5h-139q-59 0 -98 41t-39 101v419zM307 840q16 63 37 112q96 223 313 314q43 20 43 63q0 29 -19 50.5t-48 21.5q-14 0 -29 -6q-131 -55 -232.5 -156.5t-156.5 -230.5q-76 -176 -76 -377v-350 q0 -119 82 -201q82 -80 199 -80h139q119 0 199 80q82 82 82 201v278q0 119 -82 201q-80 80 -199 80h-252z" />
<glyph unicode="7" d="M281 1260h397l-326 -1172q-2 -4 -2 -20q0 -31 20.5 -49.5t51.5 -18.5q51 0 65 51l351 1260q2 10 3 17t1 15q0 57 -72 58h-559q-72 0 -72 -72v-139q0 -33 21.5 -51.5t50.5 -18.5q31 0 50.5 17.5t19.5 52.5v70z" />
<glyph unicode="8" horiz-adv-x="1120" d="M559 840q-96 0 -156 65q-51 57 -51 146q0 86 51 143q59 66 156 66q98 0 158 -66q51 -57 51 -143q0 -88 -51 -146q-60 -65 -158 -65zM559 700q133 0 213 -88q68 -78 68 -192q0 -117 -70 -193q-76 -88 -211 -88q-133 0 -209 88q-70 78 -69 193q0 117 69 192q76 88 209 88z M793 778q57 49 86.5 121t29.5 152q0 143 -88 239q-96 111 -262 111t-260 -111q-88 -96 -88 -239q0 -80 30.5 -151t88.5 -120q-94 -57 -142.5 -152.5t-48.5 -207.5q0 -172 105 -291q117 -129 315 -129q201 0 318 131q104 119 104 289q0 111 -48 207t-140 151z" />
<glyph unicode="9" d="M696 700h-276q-59 0 -99 40t-40 100v280q0 59 39.5 99.5t99.5 40.5h139q59 0 100 -40t41 -100v-221q0 -78 -1 -119t-2 -54t-1 -21v-5zM674 559q-8 -29 -18.5 -56.5t-20.5 -53.5q-45 -111 -125 -191t-186 -123q-23 -8 -33 -25.5t-10 -35.5q0 -29 19 -51.5t48 -22.5 q16 0 29 6q131 53 232.5 154.5t156.5 232.5q74 174 74 379v348q0 117 -82 199q-80 82 -199 82h-139q-117 0 -199 -82t-82 -199v-280q0 -117 82 -199t199 -82h254z" />
<glyph unicode=":" horiz-adv-x="419" d="M139 70q0 -29 20.5 -49.5t51.5 -20.5q29 0 49.5 20.5t20.5 49.5q0 31 -20.5 50t-49.5 19q-31 0 -51.5 -19t-20.5 -50zM139 637q0 -29 20.5 -49.5t51.5 -20.5q29 0 49.5 20.5t20.5 49.5t-20.5 49.5t-49.5 20.5q-31 0 -51.5 -20.5t-20.5 -49.5z" />
<glyph unicode=";" horiz-adv-x="419" d="M281 637q0 29 -20.5 49.5t-49.5 20.5q-31 0 -51.5 -20.5t-20.5 -49.5t20.5 -49.5t51.5 -20.5q29 0 49.5 20.5t20.5 49.5zM279 53q2 10 2 19q0 31 -21.5 49t-50.5 18q-55 0 -70 -51l-71 -303q0 -31 22.5 -49.5t50.5 -18.5q57 0 70 54z" />
<glyph unicode="&#x3c;" d="M801 272l-434 217l434 218q39 20 39 61q0 29 -19.5 51.5t-48.5 22.5q-16 0 -33 -8l-561 -281q-49 -25 -49 -64t49 -65l561 -277q14 -8 33 -8q31 0 50.5 22.5t19.5 49.5q0 38 -41 61z" />
<glyph unicode="=" d="M770 631q33 0 51.5 20.5t18.5 48.5q0 31 -17.5 50.5t-52.5 19.5h-559q-35 0 -53.5 -21.5t-18.5 -48.5q0 -31 19.5 -50t52.5 -19h559zM770 281q33 0 51.5 20.5t18.5 48.5q0 31 -17.5 50.5t-52.5 19.5h-559q-35 0 -53.5 -20.5t-18.5 -49.5t19.5 -49t52.5 -20h559z" />
<glyph unicode="&#x3e;" d="M801 426q51 27 51 63q0 39 -51 64l-559 281q-16 8 -35 8q-29 0 -48.5 -22.5t-19.5 -51.5q0 -41 39 -61l434 -218l-434 -217q-39 -18 -39 -61q0 -27 19.5 -49.5t48.5 -22.5q16 0 35 8z" />
<glyph unicode="?" d="M756 868q35 47 51 95.5t16 101.5q0 133 -96 235q-94 100 -238 101q-98 0 -186 -45t-149 -123q-16 -23 -17 -45q0 -27 22.5 -48.5t51.5 -21.5q33 0 55 29q41 53 99.5 83t123.5 30q43 0 78 -15.5t60.5 -42t40 -61.5t14.5 -74q0 -63 -39 -115q-51 -70 -127 -127 q-96 -78 -96 -194v-281q0 -35 21.5 -52t47.5 -17q31 0 50.5 17t19.5 52v281q0 53 43 84q88 63 154 153zM420 70q0 -29 20.5 -49.5t48.5 -20.5q31 0 50.5 20.5t19.5 49.5q0 31 -19.5 50t-50.5 19q-29 0 -49 -19t-20 -50z" />
<glyph unicode="@" horiz-adv-x="1679" d="M979 561q0 -29 -20.5 -50.5t-49.5 -21.5h-139q-31 0 -50.5 21.5t-19.5 50.5v281q0 29 20.5 48t49.5 19h209v-348zM1190 489q-25 0 -43 23l-27 49v418q0 72 -69 72h-281q-43 0 -82 -16.5t-67.5 -45t-45 -66.5t-16.5 -81v-281q0 -43 16.5 -82t46 -67.5t67.5 -45t81 -16.5 h139q31 0 63 14.5t79 53.5q33 -33 61 -47q39 -20 78 -21h63q51 0 97.5 18.5t83 49.5t62.5 74t34 92q4 29 7 57.5t3 58.5q0 289 -205 494q-203 207 -495 207q-291 0 -496 -205t-205 -496t205 -495.5t496 -204.5q113 0 219 39t198 106q29 23 29 56q0 27 -20.5 49t-48.5 22 q-27 0 -43 -14q-74 -57 -158 -88t-176 -31q-231 0 -396 164q-164 168 -163 397q0 231 163.5 395.5t395.5 164.5q233 0 397 -164t164 -396l2 -22q0 -31 -8.5 -64.5t-25.5 -61.5t-44 -45.5t-65 -17.5h-70z" />
<glyph unicode="A" horiz-adv-x="1259" d="M385 352h508l100 -303q8 -31 35 -43q20 -4 31 -4q27 0 49 18.5t22 47.5q0 10 -4 26l-421 1260q-18 59 -66 59q-43 0 -66 -59l-419 -1260q-6 -12 -7 -26q0 -29 23 -47.5t49 -18.5q51 0 66 47zM846 494h-414l207 618z" />
<glyph unicode="B" horiz-adv-x="1120" d="M846 799q63 76 63 180v141q0 117 -82 199q-80 82 -196 82h-420q-72 0 -72 -72v-1259q0 -70 72 -70h489q117 0 197 80q82 82 82 201v278q0 78 -35 140.5t-98 99.5zM281 700h419q57 0 98.5 -41t41.5 -100v-278q0 -59 -41 -100.5t-99 -41.5h-419v561zM631 840h-350v420h350 q57 0 98 -40t41 -100v-141q0 -57 -41 -98t-98 -41z" />
<glyph unicode="C" d="M770 0q33 0 51.5 21.5t18.5 48.5q0 31 -17.5 50t-52.5 19h-350q-59 0 -99 41t-40 101v839q0 59 39.5 99.5t99.5 40.5h350q33 0 51.5 21.5t18.5 47.5q0 31 -17.5 51.5t-52.5 20.5h-350q-117 0 -199 -82t-82 -199v-839q0 -119 82 -201q82 -80 199 -80h350z" />
<glyph unicode="D" horiz-adv-x="1120" d="M979 281v839q0 117 -82 199q-80 82 -197 82h-489q-72 0 -72 -72v-1259q0 -70 72 -70h489q117 0 197 80q82 82 82 201zM840 281q0 -59 -41 -100.5t-99 -41.5h-419v1121h419q57 0 98.5 -40t41.5 -100v-839z" />
<glyph unicode="E" d="M281 840v420h491q33 0 51.5 21.5t18.5 47.5q0 31 -17.5 51.5t-52.5 20.5h-561q-72 0 -72 -72v-1263q0 -66 72 -66h561q33 0 51.5 21.5t18.5 48.5q0 31 -17.5 50t-52.5 19h-491v561h350q35 0 52 20.5t17 49.5q0 31 -17 50.5t-52 19.5h-350z" />
<glyph unicode="F" d="M281 842v418h489q33 0 51.5 21.5t18.5 47.5q0 31 -17.5 51.5t-52.5 20.5h-559q-72 0 -72 -72v-1259q0 -33 21.5 -51.5t50.5 -18.5q31 0 50.5 17.5t19.5 52.5v630h489q33 0 51.5 21.5t18.5 50.5q0 31 -17.5 50.5t-52.5 19.5h-489z" />
<glyph unicode="G" horiz-adv-x="1120" d="M979 70v700q0 70 -70 70h-139q-33 0 -51.5 -20.5t-18.5 -49.5t18.5 -49.5t51.5 -20.5h70v-561h-420q-59 0 -99 41t-40 101v839q0 59 39.5 99.5t99.5 40.5h489q35 0 52.5 21.5t17.5 47.5q0 31 -17.5 51.5t-52.5 20.5h-489q-117 0 -199 -82t-82 -199v-839q0 -119 82 -201 q82 -80 199 -80h489q70 0 70 70z" />
<glyph unicode="H" horiz-adv-x="1120" d="M840 840h-559v489q0 35 -21.5 53.5t-48.5 18.5q-31 0 -51.5 -19.5t-20.5 -52.5v-1259q0 -33 21.5 -51.5t50.5 -18.5q31 0 50.5 17.5t19.5 52.5v630h559v-630q0 -33 20.5 -50.5t48.5 -17.5q27 0 48.5 18.5t21.5 53.5v1259q0 33 -20.5 51.5t-49.5 18.5t-49 -19.5t-20 -50.5 v-493z" />
<glyph unicode="I" horiz-adv-x="419" d="M281 70v1259q0 35 -21.5 53.5t-48.5 18.5q-31 0 -51.5 -19.5t-20.5 -52.5v-1259q0 -33 21.5 -51.5t50.5 -18.5q31 0 50.5 17.5t19.5 52.5z" />
<glyph unicode="J" horiz-adv-x="839" d="M700 281v1048q0 35 -21.5 53.5t-47.5 18.5q-31 0 -51.5 -19.5t-20.5 -52.5v-1048q0 -59 -40 -100.5t-99 -41.5h-209q-35 0 -53.5 -20.5t-18.5 -48.5q0 -29 19.5 -49.5t52.5 -20.5h209q115 0 198 80q82 82 82 201z" />
<glyph unicode="K" horiz-adv-x="1120" d="M281 795v534q0 33 -21.5 51.5t-48.5 18.5q-29 0 -50.5 -18.5t-21.5 -51.5v-1259q0 -33 21.5 -51.5t50.5 -18.5q31 0 50.5 17.5t19.5 52.5v534l165 164l410 -731q20 -39 59 -39q29 0 51.5 19.5t22.5 50.5q0 16 -10 36l-428 760l416 416q23 23 22 49q0 29 -21.5 50.5 t-49.5 21.5q-27 0 -50 -23z" />
<glyph unicode="L" d="M770 0q33 0 51.5 21.5t18.5 48.5q0 31 -17.5 50t-52.5 19h-489v1190q0 35 -21.5 53.5t-48.5 18.5q-31 0 -51.5 -19.5t-20.5 -52.5v-1259q0 -70 72 -70h559z" />
<glyph unicode="M" horiz-adv-x="1259" d="M1122 70v1253q0 37 -19.5 59.5t-43.5 22.5q-41 0 -68 -45l-360 -602l-361 602q-27 45 -65 45q-27 0 -46.5 -22.5t-19.5 -59.5v-1253q0 -33 21.5 -51.5t50.5 -18.5q31 0 50.5 17.5t19.5 52.5v999l290 -483q27 -45 60 -45q35 0 61 45l289 483v-999q0 -33 21.5 -51.5 t48.5 -18.5q31 0 51 17.5t20 52.5z" />
<glyph unicode="N" horiz-adv-x="1120" d="M979 78v1251q0 35 -21.5 53.5t-48.5 18.5q-31 0 -51 -19.5t-20 -52.5v-981l-566 1008q-27 45 -67 45q-27 0 -46.5 -20.5t-19.5 -57.5v-1253q0 -33 21.5 -51.5t50.5 -18.5q31 0 50.5 17.5t19.5 52.5v981l567 -1008q25 -45 65 -45q27 0 46.5 22.5t19.5 57.5z" />
<glyph unicode="O" horiz-adv-x="1120" d="M979 281v839q0 117 -82 199q-80 82 -197 82h-280q-117 0 -199 -82t-82 -199v-839q0 -119 82 -201q82 -80 199 -80h280q117 0 197 80q82 82 82 201zM840 281q0 -59 -41 -100.5t-99 -41.5h-280q-59 0 -99 41t-40 101v839q0 59 39.5 99.5t99.5 40.5h280q57 0 98.5 -40 t41.5 -100v-839z" />
<glyph unicode="P" horiz-adv-x="1120" d="M281 700v560h419q57 0 98.5 -40t41.5 -100v-280q0 -59 -41 -99.5t-99 -40.5h-419zM281 559h419q117 0 197 82q82 82 82 199v280q0 117 -82 199q-80 82 -197 82h-489q-72 0 -72 -72v-1259q0 -33 21.5 -51.5t50.5 -18.5q31 0 50.5 17.5t19.5 52.5v489z" />
<glyph unicode="Q" horiz-adv-x="1259" d="M784 166q-41 -27 -84 -27h-280q-59 0 -99 41t-40 101v839q0 59 39.5 99.5t99.5 40.5h280q57 0 98.5 -40t41.5 -100v-825l-170 115q-23 12 -41 12q-29 0 -49.5 -21.5t-20.5 -48.5q0 -37 31 -57zM971 207q8 31 8 74v839q0 117 -82 199q-80 82 -197 82h-280q-117 0 -199 -82 t-82 -199v-839q0 -119 82 -201q82 -80 199 -80h280q121 0 205 84l107 -72q14 -12 39 -12q31 0 51 21.5t20 50.5q0 35 -32 55z" />
<glyph unicode="R" horiz-adv-x="1120" d="M281 700v560h419q57 0 98.5 -40t41.5 -100v-280q0 -59 -41 -99.5t-99 -40.5h-419zM686 559h14q117 0 197 82q82 82 82 199v280q0 117 -82 199q-80 82 -197 82h-489q-72 0 -72 -72v-1259q0 -33 21.5 -51.5t50.5 -18.5q31 0 50.5 17.5t19.5 52.5v489h239l332 -526 q18 -33 55 -33q29 0 50.5 20.5t21.5 47.5q0 20 -10 41z" />
<glyph unicode="S" horiz-adv-x="1120" d="M936 1282q-80 57 -176 88t-201 31q-143 0 -252 -58q-80 -41 -118.5 -108.5t-38.5 -144.5q0 -61 21.5 -112.5t72.5 -82.5l522 -383q41 -27 62.5 -74t21.5 -98q0 -47 -19.5 -87t-58.5 -60q-113 -57 -221 -58q-74 0 -146.5 25.5t-150.5 77.5q-23 12 -39 12 q-31 0 -50.5 -22.5t-19.5 -51.5q0 -37 33 -57q98 -63 185.5 -94t185.5 -31q72 0 142.5 17.5t144.5 56.5q76 41 112.5 113.5t36.5 160.5q0 86 -36 163t-105 122l-518 385q-41 29 -41 78q0 37 22.5 71.5t63.5 57.5q84 45 188 45q160 0 297 -97q16 -14 41 -14q29 0 49.5 22.5 t20.5 51.5q0 14 -7.5 29.5t-23.5 25.5z" />
<glyph unicode="T" horiz-adv-x="1120" d="M489 1260v-1190q0 -33 21.5 -51.5t48.5 -18.5q31 0 51.5 17.5t20.5 52.5v1190h278q35 0 52.5 21.5t17.5 47.5q0 31 -17.5 51.5t-52.5 20.5h-698q-35 0 -53.5 -21.5t-18.5 -50.5t19.5 -49t52.5 -20h278z" />
<glyph unicode="U" horiz-adv-x="1120" d="M979 281v1048q0 35 -20.5 53.5t-49.5 18.5t-49 -19.5t-20 -52.5v-1048q0 -59 -41 -100.5t-99 -41.5h-280q-59 0 -99 41t-40 101v1048q0 35 -21.5 53.5t-48.5 18.5q-31 0 -51.5 -19.5t-20.5 -52.5v-1048q0 -119 82 -201q82 -80 199 -80h280q117 0 197 80q82 82 82 201z " />
<glyph unicode="V" horiz-adv-x="1259" d="M1116 1307q2 8 3 14t1 12q0 29 -21.5 48.5t-49.5 19.5q-20 0 -38 -12.5t-26 -36.5l-354 -1049l-355 1049q-8 31 -34 43q-16 6 -31 6q-27 0 -49.5 -19.5t-22.5 -48.5q0 -6 1 -12t3 -14l420 -1246q23 -59 68 -59q43 0 65 59z" />
<glyph unicode="W" horiz-adv-x="1540" d="M1399 1315q2 4 2 16q0 31 -22.5 50.5t-51.5 19.5q-53 0 -65 -55l-230 -1024l-196 542q-20 57 -66 58q-45 0 -65 -58l-199 -542l-227 1024q-12 55 -68 55q-27 0 -49.5 -19.5t-22.5 -48.5q0 -14 2 -18l281 -1260q12 -57 67 -57q20 0 39 13.5t27 35.5l215 588l215 -588 q18 -49 66 -49q53 0 67 57z" />
<glyph unicode="X" horiz-adv-x="1259" d="M631 827l-363 541q-20 33 -55 33q-29 0 -51.5 -20.5t-22.5 -49.5q0 -8 2 -19.5t11 -21.5l393 -590l-393 -591q-12 -18 -13 -39q0 -29 22.5 -50.5t49.5 -21.5q37 0 57 33l363 542l360 -542q20 -33 56 -33q31 0 53 21.5t22 48.5t-14 41l-393 591l393 590q14 20 14 39 q0 31 -22.5 51.5t-50.5 20.5q-39 0 -58 -33z" />
<glyph unicode="Y" horiz-adv-x="1259" d="M567 700v-630q0 -33 20.5 -51.5t49.5 -18.5q31 0 50.5 17.5t19.5 52.5v630l403 584q18 20 18 45q0 31 -22.5 51.5t-50.5 20.5q-31 0 -51 -25l-367 -540l-367 540q-23 25 -51 25q-29 0 -51.5 -20.5t-22.5 -51.5q0 -25 19 -45z" />
<glyph unicode="Z" horiz-adv-x="1259" d="M1116 1290q18 31 19 53q0 57 -78 58h-840q-33 0 -51.5 -21.5t-18.5 -50.5t18.5 -49t51.5 -20h709l-768 -1151q-18 -31 -19 -54q0 -55 78 -55h840q33 0 51 21.5t18 48.5q0 31 -17 50t-52 19h-709z" />
<glyph unicode="[" horiz-adv-x="559" d="M358 -139q33 0 51.5 20.5t18.5 48.5q0 31 -17.5 50.5t-52.5 19.5h-77v1401h77q33 0 51.5 20.5t18.5 48.5q0 31 -17.5 50.5t-52.5 19.5h-147q-72 0 -72 -70v-1540q0 -70 72 -69h147z" />
<glyph unicode="\" horiz-adv-x="1259" d="M1047 -184l-771 1960q-20 45 -63 45q-31 0 -52.5 -19.5t-21.5 -48.5q0 -8 1 -14t3 -15l770 -1960q20 -45 64 -45q31 0 52.5 19.5t21.5 48.5q0 8 -1 14.5t-3 14.5z" />
<glyph unicode="]" horiz-adv-x="559" d="M397 -70v1540q0 70 -69 70h-150q-33 0 -51 -21.5t-18 -48.5q0 -31 19 -50t50 -19h80v-1401h-80q-33 0 -51 -21.5t-18 -48.5q0 -31 19 -50t50 -19h150q69 -1 69 69z" />
<glyph unicode="^" d="M827 1653q-63 86 -151 127t-187 41q-98 0 -186 -44t-149 -124q-14 -20 -15 -43q0 -29 22.5 -50.5t49.5 -21.5q33 0 55 31q41 53 100.5 81.5t122.5 28.5q66 0 125.5 -28.5t100.5 -81.5q20 -31 55 -31q29 0 50.5 21.5t21.5 48.5q-1 25 -15 45z" />
<glyph unicode="_" horiz-adv-x="839" d="M840 -215v139h-840v-139h840z" />
<glyph unicode="a" d="M700 281q0 -59 -41 -100.5t-100 -41.5h-139q-59 0 -99 41t-40 101v419q0 57 39.5 98.5t99.5 41.5h280v-559zM768 92q43 -55 115 -86q14 -8 28 -8q31 0 50.5 22.5t19.5 51.5q0 43 -45 61q-43 20 -69.5 60t-26.5 88v628q0 70 -70 70h-350q-117 0 -199 -82t-82 -197v-419 q0 -119 82 -201q82 -80 199 -80h139q61 0 116.5 25.5t92.5 66.5z" />
<glyph unicode="b" d="M281 840h278q59 0 100 -41t41 -99v-419q0 -59 -41 -100.5t-100 -41.5h-278v701zM281 979v350q0 35 -21.5 53.5t-48.5 18.5q-31 0 -51.5 -19.5t-20.5 -52.5v-1259q0 -70 72 -70h348q119 0 199 80q82 82 82 201v419q0 117 -82 199q-80 80 -199 80h-278z" />
<glyph unicode="c" horiz-adv-x="839" d="M631 0q33 0 51 21.5t18 48.5q0 31 -17 50t-52 19h-211q-59 0 -99 41t-40 101v419q0 57 39.5 98.5t99.5 41.5h211q33 0 51 21.5t18 47.5q0 31 -17 50.5t-52 19.5h-211q-117 0 -199 -82t-82 -197v-419q0 -119 82 -201q82 -80 199 -80h211z" />
<glyph unicode="d" d="M700 840v-701h-280q-59 0 -99 41t-40 101v419q0 57 39.5 98.5t99.5 41.5h280zM700 979h-280q-117 0 -199 -82t-82 -197v-419q0 -119 82 -201q82 -80 199 -80h350q70 0 70 70v1259q0 35 -20.5 53.5t-49.5 18.5t-49.5 -19.5t-20.5 -52.5v-350z" />
<glyph unicode="e" d="M281 559v141q0 57 39.5 98.5t99.5 41.5h139q59 0 100 -41t41 -99v-141h-419zM281 420h489q70 0 70 69v211q0 117 -82 199q-80 80 -199 80h-139q-117 0 -199 -82q-82 -80 -82 -197v-419q0 -119 82 -201q82 -80 199 -80h350q33 0 51.5 21.5t18.5 48.5q0 31 -17.5 50 t-52.5 19h-350q-59 0 -99 41t-40 101v139z" />
<glyph unicode="f" horiz-adv-x="770" d="M350 979v141q0 59 41 99.5t98 40.5h70q35 0 53.5 21.5t18.5 47.5q0 31 -18.5 51.5t-53.5 20.5h-70q-115 0 -196.5 -82t-81.5 -199v-141h-72q-33 0 -51 -20.5t-18 -49.5t19.5 -49t49.5 -20h72v-770q0 -33 20.5 -51.5t49.5 -18.5q31 0 50 17.5t19 52.5v770h209 q35 0 53.5 21.5t18.5 47.5q0 31 -18.5 50.5t-53.5 19.5h-209z" />
<glyph unicode="g" d="M700 139h-280q-59 0 -99 41t-40 101v419q0 57 39.5 98.5t99.5 41.5h280v-701zM700 0v-139q0 -59 -41 -100.5t-100 -41.5h-278q-35 0 -52.5 -20.5t-17.5 -48.5q0 -29 18.5 -49.5t51.5 -20.5h278q119 0 201 82q80 80 80 199v1048q0 70 -70 70h-350q-117 0 -199 -82 t-82 -197v-419q0 -119 82 -201q82 -80 199 -80h280z" />
<glyph unicode="h" d="M281 979v350q0 35 -21.5 53.5t-48.5 18.5q-31 0 -51.5 -19.5t-20.5 -52.5v-1259q0 -33 21.5 -51.5t50.5 -18.5q31 0 50.5 17.5t19.5 52.5v770h278q59 0 100 -41t41 -99v-630q0 -33 20.5 -51.5t49.5 -18.5q31 0 50.5 17.5t19.5 52.5v630q0 117 -82 199q-80 80 -199 80 h-278z" />
<glyph unicode="i" horiz-adv-x="419" d="M281 70v839q0 35 -21.5 52.5t-48.5 17.5q-31 0 -51.5 -18.5t-20.5 -51.5v-839q0 -33 21.5 -51.5t50.5 -18.5q31 0 50.5 17.5t19.5 52.5zM139 1329q0 -29 20.5 -49t51.5 -20q29 0 49.5 20t20.5 49q0 31 -20.5 51.5t-49.5 20.5q-31 0 -51.5 -20.5t-20.5 -51.5z" />
<glyph unicode="j" horiz-adv-x="419" d="M281 -139v1048q0 35 -21.5 52.5t-48.5 17.5q-31 0 -51.5 -18.5t-20.5 -51.5v-1048q0 -59 -40 -100.5t-99 -41.5h-70q-35 0 -52 -20.5t-17 -48.5q0 -29 18.5 -49.5t50.5 -20.5h70q117 0 199 82q82 80 82 199zM139 1329q0 -29 20.5 -49t51.5 -20q29 0 49.5 20t20.5 49 q0 31 -20.5 51.5t-49.5 20.5q-31 0 -51.5 -20.5t-20.5 -51.5z" />
<glyph unicode="k" d="M281 631v698q0 35 -21.5 53.5t-48.5 18.5q-31 0 -51.5 -19.5t-20.5 -52.5v-1259q0 -33 21.5 -51.5t50.5 -18.5q31 0 50.5 17.5t19.5 52.5v385l67 51l367 -477q20 -31 53 -31q29 0 51.5 21.5t22.5 48.5q0 23 -17 45l-364 477l350 264q31 20 31 55q0 27 -21.5 49.5 t-48.5 22.5q-25 0 -45 -14z" />
<glyph unicode="l" horiz-adv-x="559" d="M350 0q33 0 51.5 21.5t18.5 48.5q0 31 -17.5 50t-52.5 19q-29 0 -49 21.5t-20 50.5v1118q0 35 -21.5 53.5t-48.5 18.5q-31 0 -51.5 -19.5t-20.5 -52.5v-1118q0 -43 16.5 -82t46 -67.5t67.5 -45t81 -16.5z" />
<glyph unicode="m" horiz-adv-x="1259" d="M559 840v-770q0 -33 21.5 -51.5t50.5 -18.5q31 0 50 17.5t19 52.5v770h140q59 0 99 -41t40 -99v-630q0 -33 21.5 -51.5t50.5 -18.5q31 0 50 17.5t19 52.5v630q0 117 -82 199q-80 80 -198 80h-629q-72 0 -72 -70v-839q0 -33 21.5 -51.5t50.5 -18.5q31 0 50.5 17.5 t19.5 52.5v770h278z" />
<glyph unicode="n" d="M840 70v630q0 117 -82 199q-80 80 -199 80h-348q-72 0 -72 -70v-839q0 -33 21.5 -51.5t50.5 -18.5q31 0 50.5 17.5t19.5 52.5v770h278q59 0 100 -41t41 -99v-630q0 -33 20.5 -51.5t49.5 -18.5q31 0 50.5 17.5t19.5 52.5z" />
<glyph unicode="o" d="M840 307v365q0 127 -90.5 217t-217.5 90h-83q-125 0 -220 -90q-90 -90 -90 -217v-365q0 -129 90 -219q90 -88 220 -88h83q129 0 218 88q90 90 90 219zM700 307q0 -70 -49 -119t-119 -49h-83q-70 0 -119 49.5t-49 118.5v365q0 70 49 119t119 49h83q70 0 119 -49.5 t49 -118.5v-365z" />
<glyph unicode="p" d="M281 139v701h278q59 0 100 -41t41 -99v-419q0 -59 -41 -100.5t-100 -41.5h-278zM281 0h278q119 0 199 80q82 82 82 201v419q0 117 -82 199q-80 80 -199 80h-348q-72 0 -72 -70v-1259q0 -33 21.5 -51.5t50.5 -18.5q31 0 50.5 17.5t19.5 52.5v350z" />
<glyph unicode="q" d="M700 139h-280q-59 0 -99 41t-40 101v419q0 57 39.5 98.5t99.5 41.5h280v-701zM700 0v-350q0 -33 20.5 -51.5t49.5 -18.5q31 0 50.5 17.5t19.5 52.5v1259q0 70 -70 70h-350q-117 0 -199 -82t-82 -197v-419q0 -119 82 -201q82 -80 199 -80h280z" />
<glyph unicode="r" horiz-adv-x="839" d="M700 770q0 43 -16 81t-45 66.5t-68 45t-82 16.5h-278q-72 0 -72 -70v-839q0 -33 21.5 -51.5t50.5 -18.5q31 0 50.5 17.5t19.5 52.5v770h208q31 0 50.5 -20.5t19.5 -49.5q0 -33 21.5 -51.5t50.5 -18.5q31 0 50 17.5t19 52.5z" />
<glyph unicode="s" d="M797 903q39 -20 39 -61q0 -29 -19.5 -51.5t-48.5 -22.5q-16 0 -33 8q-121 61 -237 62q-117 0 -197 -56q-20 -14 -20 -41t20 -39l447 -292q45 -29 65.5 -74t20.5 -92q0 -49 -21.5 -92t-62.5 -70q-121 -80 -275 -80q-152 0 -289 76q-39 20 -39 59q0 29 20.5 51.5t49.5 22.5 q16 0 37 -10q109 -59 221 -60q111 0 195 58q25 14 24 47q0 31 -24 47l-447 293q-39 27 -57.5 68.5t-18.5 88.5q0 45 20.5 88t55.5 66q113 80 275 80q152 0 299 -74z" />
<glyph unicode="t" horiz-adv-x="839" d="M420 979v350q0 35 -20.5 53.5t-49.5 18.5t-49 -19.5t-20 -52.5v-350h-70q-35 0 -53.5 -20.5t-18.5 -49.5t19.5 -49t52.5 -20h70v-770q0 -33 20.5 -51.5t48.5 -18.5q31 0 50.5 17.5t19.5 52.5v770h211q33 0 51 21.5t18 47.5q0 31 -17 50.5t-52 19.5h-211z" />
<glyph unicode="u" d="M840 70v839q0 35 -20.5 52.5t-49.5 17.5t-49.5 -18.5t-20.5 -51.5v-770h-280q-59 0 -99 41t-40 101v628q0 35 -21.5 52.5t-48.5 17.5q-31 0 -51.5 -18.5t-20.5 -51.5v-628q0 -119 82 -201q82 -80 199 -80h350q70 0 70 70z" />
<glyph unicode="v" d="M836 887q2 8 3 14t1 12q0 29 -21.5 47.5t-50.5 18.5q-20 0 -37.5 -11.5t-25.5 -35.5l-216 -643l-213 643q-8 31 -34 43q-20 4 -31 4q-27 0 -49.5 -18.5t-22.5 -47.5q0 -6 1 -12t3 -14l281 -840q23 -59 65 -59q20 0 39 15t27 44z" />
<glyph unicode="w" horiz-adv-x="1259" d="M1118 893l4 18q0 31 -22.5 49.5t-50.5 18.5q-55 0 -66 -53l-158 -619l-129 348q-20 57 -65 58q-23 0 -40.5 -11.5t-27.5 -42.5l-129 -352l-155 619q-14 53 -68 53q-29 0 -50.5 -18.5t-21.5 -47.5q0 -10 2 -20l211 -840q8 -31 26.5 -48t39.5 -17q47 0 67 57l146 385 l143 -385q20 -57 68 -57q51 0 67 65z" />
<glyph unicode="x" d="M575 489l254 381q12 20 13 39q0 31 -22.5 51.5t-51.5 20.5q-37 0 -57 -33l-222 -332l-221 332q-23 31 -55 31q-29 0 -51.5 -19.5t-22.5 -48.5q0 -8 2 -19t11 -22l254 -381l-254 -380q-12 -18 -13 -39q0 -29 22.5 -50.5t49.5 -21.5q37 0 57 33l221 331l222 -331 q20 -31 57 -31q29 0 51.5 19.5t22.5 48.5q0 25 -13 41z" />
<glyph unicode="y" d="M399 6l-73 -237q-16 -49 -62 -50h-67q-35 0 -52.5 -20.5t-17.5 -48.5q0 -29 18.5 -49.5t51.5 -20.5h69q70 0 123 41t70 107l364 1161q4 16 4 24q0 31 -21.5 49.5t-51.5 18.5q-51 0 -66 -49l-215 -688l-209 688q-18 49 -67 49q-29 0 -50.5 -18.5t-21.5 -49.5q0 -8 4 -24z " />
<glyph unicode="z" d="M829 870q18 31 19 54q0 55 -78 55h-559q-35 0 -53.5 -20.5t-18.5 -49.5t19.5 -49t52.5 -20h428l-487 -731q-20 -29 -21 -54q0 -55 80 -55h559q33 0 51.5 21.5t18.5 48.5q0 31 -17.5 50t-52.5 19h-428z" />
<glyph unicode="{" horiz-adv-x="700" d="M502 -139q33 0 50 19.5t17 47.5q0 29 -18.5 50.5t-52.5 21.5q-29 0 -48.5 19.5t-19.5 48.5v491q0 41 -14.5 76t-38.5 65q53 59 53 138v491q0 27 24.5 49.5t45.5 22.5q33 0 51 20.5t18 48.5q0 31 -17 50.5t-52 19.5q-66 0 -135 -61q-76 -68 -76 -150v-491 q0 -29 -20.5 -48.5t-49.5 -19.5q-33 0 -51 -21.5t-18 -48.5q0 -31 19 -50t50 -19t50.5 -21.5t19.5 -50.5v-491q0 -43 16.5 -81t46 -65.5t68.5 -44t82 -16.5z" />
<glyph unicode="|" horiz-adv-x="770" d="M631 70v1259q0 35 -21.5 53.5t-50.5 18.5t-49.5 -19.5t-20.5 -52.5v-1259q0 -33 21.5 -51.5t48.5 -18.5q31 0 51.5 17.5t20.5 52.5zM281 70v1259q0 35 -21.5 53.5t-48.5 18.5q-31 0 -51.5 -19.5t-20.5 -52.5v-1259q0 -33 21.5 -51.5t50.5 -18.5q31 0 50.5 17.5t19.5 52.5 z" />
<glyph unicode="}" horiz-adv-x="700" d="M492 631q33 0 51 20.5t18 48.5q0 31 -17.5 50.5t-51.5 19.5q-29 0 -49.5 20.5t-20.5 47.5v491q0 78 -78 150q-72 61 -133 61q-33 0 -51.5 -21.5t-18.5 -48.5q0 -31 18.5 -50t51.5 -19q20 0 45 -22.5t25 -49.5v-491q0 -78 53 -138q-25 -31 -39 -65.5t-14 -75.5v-491 q0 -29 -19.5 -48.5t-48.5 -19.5q-35 0 -53.5 -21.5t-18.5 -50.5t17.5 -48t52.5 -19q88 0 149.5 59.5t61.5 147.5v491q0 29 20.5 50.5t49.5 21.5z" />
<glyph unicode="~" horiz-adv-x="1120" d="M958 440q20 20 21 49q0 31 -20.5 51.5t-49.5 20.5q-27 0 -49 -22q-49 -49 -125 -50h-24q-57 6 -103 52q-92 92 -223 92q-63 0 -120.5 -23.5t-102.5 -70.5q-23 -23 -23 -47q0 -29 21.5 -50.5t50.5 -21.5q27 0 47 20q57 53 127 54q72 0 125 -54q70 -72 180 -88 q12 -2 23.5 -3t21.5 -1q61 0 119.5 23.5t103.5 68.5z" />
<glyph unicode="&#xa7;" d="M524 395l-186 215q-57 70 -57 158q0 86 49 151.5t131 86.5l182 -218q57 -70 57 -157q0 -82 -48 -149t-128 -87zM365 1120q-106 -47 -166 -141t-60 -211q0 -137 92 -248l390 -452q10 -10 10 -25q0 -16 -6 -25q-12 -18 -35 -18h-101q-88 0 -167 55q-20 14 -43 15 q-29 0 -48.5 -20.5t-19.5 -49.5q0 -33 29 -55q115 -84 249 -84h101q78 0 129 53t51 127q0 68 -43 117l-106 123q104 49 162.5 144t58.5 206q0 137 -92 248l-381 450q-10 16 -11 29q0 16 11.5 29.5t27.5 13.5h92q94 0 170 -58q20 -14 41 -14q31 0 51.5 22.5t20.5 49.5 q0 33 -29 55q-115 84 -254 84h-92q-39 0 -71.5 -14.5t-57 -39t-38 -57t-13.5 -69.5q0 -72 49 -123z" />
<glyph unicode="&#xa8;" d="M281 840v420h491q33 0 51.5 21.5t18.5 47.5q0 31 -17.5 51.5t-52.5 20.5h-561q-72 0 -72 -72v-1263q0 -66 72 -66h561q33 0 51.5 21.5t18.5 48.5q0 31 -17.5 50t-52.5 19h-491v561h350q35 0 52 20.5t17 49.5q0 31 -17 50.5t-52 19.5h-350zM211 1679q0 -31 20.5 -51 t51.5 -20t52 20.5t21 50.5q0 31 -21.5 52.5t-51.5 21.5q-31 0 -51.5 -21.5t-20.5 -52.5zM631 1679q0 -29 19.5 -49t49.5 -20q29 0 49.5 20.5t20.5 48.5q0 31 -20.5 50.5t-49.5 19.5q-31 0 -50 -19.5t-19 -50.5z" />
<glyph unicode="&#xab;" horiz-adv-x="1120" d="M555 242l-242 247l242 248q14 16 14 41q0 29 -22.5 50.5t-48.5 21.5q-33 0 -56 -29l-272 -289q-14 -20 -14 -43q0 -25 14 -40l272 -291q23 -29 56 -29q27 0 49 20.5t22 49.5q0 27 -14 43zM932 242l-240 247l240 248q16 20 16 41q0 29 -22.5 50.5t-51.5 21.5 q-31 0 -53 -29l-274 -289q-14 -20 -15 -43q0 -25 15 -40l274 -291q23 -29 53 -29q29 0 51.5 20.5t22.5 49.5q0 23 -16 43z" />
<glyph unicode="&#xac;" horiz-adv-x="1120" d="M981 440v260q0 70 -70 70h-700q-35 0 -53.5 -21.5t-18.5 -48.5q0 -31 19.5 -50t52.5 -19h631v-191q0 -35 20.5 -53t48.5 -18q31 0 50.5 18t19.5 53z" />
<glyph unicode="&#xad;" d="M770 420q33 0 51.5 21.5t18.5 47.5q0 31 -17.5 50.5t-52.5 19.5h-559q-35 0 -53.5 -20.5t-18.5 -49.5t19.5 -49t52.5 -20h559z" />
<glyph unicode="&#xb1;" d="M770 139q33 0 51.5 21.5t18.5 50.5q0 31 -17.5 50.5t-52.5 19.5h-559q-35 0 -53.5 -21.5t-18.5 -48.5q0 -31 19.5 -51.5t52.5 -20.5h559zM559 770h211q33 0 51.5 20.5t18.5 49.5q0 31 -17.5 50t-52.5 19h-211v211q0 33 -20.5 51.5t-49.5 18.5t-49 -18.5t-20 -51.5v-211 h-209q-35 0 -53.5 -20.5t-18.5 -48.5q0 -29 19.5 -49.5t52.5 -20.5h209v-211q0 -33 21.5 -51.5t47.5 -18.5q31 0 50.5 17.5t19.5 52.5v211z" />
<glyph unicode="&#xb6;" horiz-adv-x="1259" d="M1051 1260q33 0 51 21.5t18 47.5q0 31 -17.5 51.5t-51.5 20.5h-480q-211 0 -327 -127q-104 -117 -105 -307q0 -162 103 -283q104 -121 260 -141v-893q0 -33 20.5 -51.5t48.5 -18.5q31 0 50.5 17.5t19.5 52.5v1610h172v-1610q0 -33 21.5 -51.5t48.5 -18.5q31 0 50 17.5 t19 52.5v1610h99z" />
<glyph unicode="&#xb8;" d="M281 559v141q0 57 39.5 98.5t99.5 41.5h139q59 0 100 -41t41 -99v-141h-419zM281 420h489q70 0 70 69v211q0 117 -82 199q-80 80 -199 80h-139q-117 0 -199 -82q-82 -80 -82 -197v-419q0 -119 82 -201q82 -80 199 -80h350q33 0 51.5 21.5t18.5 48.5q0 31 -17.5 50 t-52.5 19h-350q-59 0 -99 41t-40 101v139zM211 1329q0 -31 20.5 -51.5t51.5 -20.5t52 20.5t21 51.5t-21.5 52.5t-51.5 21.5q-31 0 -51.5 -21.5t-20.5 -52.5zM631 1329q0 -29 19.5 -49t49.5 -20q29 0 49.5 20t20.5 49q0 31 -20.5 51.5t-49.5 20.5q-31 0 -50 -20.5t-19 -51.5z " />
<glyph unicode="&#xb9;" horiz-adv-x="1679" d="M1540 909v281q0 98 -65 158q-57 51 -146 51q-86 0 -143 -51q-66 -59 -66 -158v-281q0 -98 66 -157q57 -51 143 -52q82 0 146 54q65 59 65 155zM979 70v1259q0 35 -20.5 53.5t-49.5 18.5t-49 -19.5t-20 -52.5v-989l-568 1024q-23 37 -61 37q-31 0 -51.5 -19.5t-20.5 -52.5 v-1259q0 -33 21.5 -51.5t50.5 -18.5q31 0 50.5 17.5t19.5 52.5v989l567 -1022q20 -39 63 -39q29 0 48.5 19.5t19.5 52.5zM1401 909q0 -33 -21.5 -51t-50.5 -18q-31 0 -50 17t-19 52v281q0 33 21.5 50t47.5 17q31 0 51.5 -17t20.5 -50v-281z" />
<glyph unicode="&#xbb;" horiz-adv-x="1120" d="M936 449q16 20 16 40t-16 43l-272 289q-23 29 -56 29q-27 0 -49 -21.5t-22 -48.5t14 -43l242 -248l-242 -247q-14 -16 -14 -41q0 -31 22.5 -51.5t48.5 -20.5q33 0 56 29zM559 449q14 16 14 40q0 23 -14 43l-274 289q-23 29 -54 29q-29 0 -51 -21.5t-22 -48.5 q0 -23 16 -43l240 -248l-240 -247q-16 -20 -16 -41q0 -31 22.5 -51.5t50.5 -20.5q31 0 54 29z" />
<glyph unicode="&#xc0;" horiz-adv-x="1259" d="M385 352h508l100 -303q8 -31 35 -43q20 -4 31 -4q27 0 49 18.5t22 47.5q0 10 -4 26l-421 1260q-18 59 -66 59q-43 0 -66 -59l-419 -1260q-6 -12 -7 -26q0 -29 23 -47.5t49 -18.5q51 0 66 47zM846 494h-414l207 618z" />
<glyph unicode="&#xc1;" horiz-adv-x="1120" d="M281 700h419q57 0 98.5 -41t41.5 -100v-278q0 -59 -41 -100.5t-99 -41.5h-419v561zM281 840v420h489q33 0 51.5 21.5t18.5 47.5q0 31 -17.5 51.5t-52.5 20.5h-559q-72 0 -72 -72v-1259q0 -70 72 -70h489q117 0 197 80q82 82 82 201v278q0 119 -82 201q-80 80 -197 80 h-419z" />
<glyph unicode="&#xc2;" horiz-adv-x="1120" d="M846 799q63 76 63 180v141q0 117 -82 199q-80 82 -196 82h-420q-72 0 -72 -72v-1259q0 -70 72 -70h489q117 0 197 80q82 82 82 201v278q0 78 -35 140.5t-98 99.5zM281 700h419q57 0 98.5 -41t41.5 -100v-278q0 -59 -41 -100.5t-99 -41.5h-419v561zM631 840h-350v420h350 q57 0 98 -40t41 -100v-141q0 -57 -41 -98t-98 -41z" />
<glyph unicode="&#xc3;" d="M770 1260q33 0 51.5 21.5t18.5 47.5q0 31 -17.5 51.5t-52.5 20.5h-559q-72 0 -72 -72v-1259q0 -33 21.5 -51.5t50.5 -18.5q31 0 50.5 17.5t19.5 52.5v1190h489z" />
<glyph unicode="&#xc4;" horiz-adv-x="1259" d="M287 139h-76q-72 0 -72 -69v-140q0 -35 21.5 -52t50.5 -17q31 0 50.5 17.5t19.5 51.5v70h698v-70q0 -35 21.5 -52t50.5 -17q31 0 50 17.5t19 51.5v140q0 70 -69 69h-72v1190q0 72 -70 72h-420q-63 0 -69 -64zM840 139h-414l127 1121h287v-1121z" />
<glyph unicode="&#xc5;" d="M281 840v420h491q33 0 51.5 21.5t18.5 47.5q0 31 -17.5 51.5t-52.5 20.5h-561q-72 0 -72 -72v-1263q0 -66 72 -66h561q33 0 51.5 21.5t18.5 48.5q0 31 -17.5 50t-52.5 19h-491v561h350q35 0 52 20.5t17 49.5q0 31 -17 50.5t-52 19.5h-350z" />
<glyph unicode="&#xc6;" horiz-adv-x="1400" d="M770 852v477q0 35 -21.5 53.5t-48.5 18.5q-31 0 -50 -19.5t-19 -52.5v-477l-363 518q-23 31 -57 31q-27 0 -49.5 -20.5t-22.5 -49.5q0 -25 15 -41l366 -524l-373 -662q-8 -16 -8 -36q0 -29 22.5 -48.5t49.5 -19.5q39 0 61 37l359 639v-606q0 -33 20.5 -51.5t48.5 -18.5 q31 0 50.5 17.5t19.5 52.5v606l358 -639q20 -37 60 -37q29 0 51.5 19.5t22.5 48.5q0 16 -11 36l-370 662l366 524q14 16 15 39q0 31 -22.5 51.5t-51.5 20.5q-14 0 -29.5 -7.5t-25.5 -23.5z" />
<glyph unicode="&#xc7;" d="M559 700q72 0 109 -43q33 -35 32 -98v-278q0 -59 -41 -100.5t-100 -41.5h-139q-47 0 -82 27q-37 31 -51 72q-16 47 -64 47q-31 0 -52 -18.5t-21 -49.5q0 -8 4 -24q29 -86 101.5 -139.5t164.5 -53.5h139q119 0 199 80q82 82 82 201v278q0 129 -95 211q45 39 70 93.5 t25 115.5v141q0 117 -82 199q-80 82 -199 82h-139q-92 0 -165 -53.5t-101 -139.5q-4 -16 -4 -24q0 -31 22.5 -50.5t50.5 -19.5q20 0 39 13.5t27 35.5q14 43 50 70t81 27h139q59 0 100 -40t41 -100v-141q0 -57 -41 -98t-100 -41h-209q-35 0 -52 -20.5t-17 -49.5t18 -49.5 t51 -20.5h209z" />
<glyph unicode="&#xc8;" horiz-adv-x="1120" d="M979 70v1259q0 39 -18.5 60.5t-45.5 21.5q-18 0 -36.5 -12.5t-30.5 -34.5l-567 -1024v989q0 35 -21.5 53.5t-48.5 18.5q-31 0 -51.5 -19.5t-20.5 -52.5v-1259q0 -37 19.5 -58.5t46.5 -21.5q39 0 67 47l568 1022v-989q0 -33 21.5 -51.5t47.5 -18.5q31 0 50.5 17.5 t19.5 52.5z" />
<glyph unicode="&#xc9;" horiz-adv-x="1120" d="M700 1540q33 0 51.5 20.5t18.5 49.5q0 31 -17.5 50t-52.5 19h-280q-33 0 -51.5 -20.5t-18.5 -48.5q0 -29 18.5 -49.5t51.5 -20.5h280zM979 70v1259q0 39 -18.5 60.5t-45.5 21.5q-18 0 -36.5 -12.5t-30.5 -34.5l-567 -1024v989q0 35 -21.5 53.5t-48.5 18.5 q-31 0 -51.5 -19.5t-20.5 -52.5v-1259q0 -37 19.5 -58.5t46.5 -21.5q39 0 67 47l568 1022v-989q0 -33 21.5 -51.5t47.5 -18.5q31 0 50.5 17.5t19.5 52.5z" />
<glyph unicode="&#xca;" horiz-adv-x="1120" d="M281 795v534q0 33 -21.5 51.5t-48.5 18.5q-29 0 -50.5 -18.5t-21.5 -51.5v-1259q0 -33 21.5 -51.5t50.5 -18.5q31 0 50.5 17.5t19.5 52.5v534l165 164l410 -731q20 -39 59 -39q29 0 51.5 19.5t22.5 50.5q0 16 -10 36l-428 760l416 416q23 23 22 49q0 29 -21.5 50.5 t-49.5 21.5q-27 0 -50 -23z" />
<glyph unicode="&#xcb;" horiz-adv-x="1120" d="M979 70v1259q0 72 -70 72h-350q-49 0 -65 -53l-351 -1260q-4 -8 -4 -20q0 -31 21.5 -49.5t50.5 -18.5q23 0 42 11.5t23 39.5l336 1209h228v-1190q0 -33 21.5 -51.5t47.5 -18.5q31 0 50.5 17.5t19.5 52.5z" />
<glyph unicode="&#xcc;" horiz-adv-x="1259" d="M1122 70v1253q0 37 -19.5 59.5t-43.5 22.5q-41 0 -68 -45l-360 -602l-361 602q-27 45 -65 45q-27 0 -46.5 -22.5t-19.5 -59.5v-1253q0 -33 21.5 -51.5t50.5 -18.5q31 0 50.5 17.5t19.5 52.5v999l290 -483q27 -45 60 -45q35 0 61 45l289 483v-999q0 -33 21.5 -51.5 t48.5 -18.5q31 0 51 17.5t20 52.5z" />
<glyph unicode="&#xcd;" horiz-adv-x="1120" d="M840 840h-559v489q0 35 -21.5 53.5t-48.5 18.5q-31 0 -51.5 -19.5t-20.5 -52.5v-1259q0 -33 21.5 -51.5t50.5 -18.5q31 0 50.5 17.5t19.5 52.5v630h559v-630q0 -33 20.5 -50.5t48.5 -17.5q27 0 48.5 18.5t21.5 53.5v1259q0 33 -20.5 51.5t-49.5 18.5t-49 -19.5t-20 -50.5 v-493z" />
<glyph unicode="&#xce;" horiz-adv-x="1232" d="M979 281v839q0 117 -82 199q-80 82 -197 82h-280q-117 0 -199 -82t-82 -199v-839q0 -119 82 -201q82 -80 199 -80h280q117 0 197 80q82 82 82 201zM840 281q0 -59 -41 -100.5t-99 -41.5h-280q-59 0 -99 41t-40 101v839q0 59 39.5 99.5t99.5 40.5h280q57 0 98.5 -40 t41.5 -100v-839z" />
<glyph unicode="&#xcf;" horiz-adv-x="1120" d="M979 70v1259q0 72 -70 72h-698q-72 0 -72 -72v-1259q0 -33 21.5 -51.5t50.5 -18.5q31 0 50.5 17.5t19.5 52.5v1190h559v-1190q0 -33 21.5 -51.5t47.5 -18.5q31 0 50.5 17.5t19.5 52.5z" />
<glyph unicode="&#xd0;" horiz-adv-x="1120" d="M281 700v560h419q57 0 98.5 -40t41.5 -100v-280q0 -59 -41 -99.5t-99 -40.5h-419zM281 559h419q117 0 197 82q82 82 82 199v280q0 117 -82 199q-80 82 -197 82h-489q-72 0 -72 -72v-1259q0 -33 21.5 -51.5t50.5 -18.5q31 0 50.5 17.5t19.5 52.5v489z" />
<glyph unicode="&#xd1;" d="M770 0q33 0 51.5 21.5t18.5 48.5q0 31 -17.5 50t-52.5 19h-350q-59 0 -99 41t-40 101v839q0 59 39.5 99.5t99.5 40.5h350q33 0 51.5 21.5t18.5 47.5q0 31 -17.5 51.5t-52.5 20.5h-350q-117 0 -199 -82t-82 -199v-839q0 -119 82 -201q82 -80 199 -80h350z" />
<glyph unicode="&#xd2;" horiz-adv-x="1120" d="M489 1260v-1190q0 -33 21.5 -51.5t48.5 -18.5q31 0 51.5 17.5t20.5 52.5v1190h278q35 0 52.5 21.5t17.5 47.5q0 31 -17.5 51.5t-52.5 20.5h-698q-35 0 -53.5 -21.5t-18.5 -50.5t19.5 -49t52.5 -20h278z" />
<glyph unicode="&#xd3;" horiz-adv-x="1120" d="M840 559v-278q0 -59 -41 -100.5t-99 -41.5h-350q-35 0 -52 -20.5t-17 -48.5q0 -29 18 -49.5t51 -20.5h350q117 0 197 80q82 82 82 201v1048q0 35 -20.5 53.5t-49.5 18.5t-49 -19.5t-20 -52.5v-629h-420q-59 0 -99 40t-40 100v489q0 35 -21.5 53.5t-48.5 18.5 q-31 0 -51.5 -19.5t-20.5 -52.5v-489q0 -117 82 -199t199 -82h420z" />
<glyph unicode="&#xd4;" horiz-adv-x="1400" d="M770 1051h70q117 0 198.5 -82t81.5 -199v-70q0 -117 -82 -198.5t-198 -81.5h-70v631zM631 420h-72q-115 0 -196.5 82t-81.5 198v70q0 117 81.5 199t196.5 82h72v-631zM631 281v-211q0 -33 20.5 -51.5t48.5 -18.5q31 0 50.5 17.5t19.5 52.5v211h70q176 0 297 120 q123 123 123 299v70q0 174 -123 297q-121 123 -297 123h-70v139q0 35 -21.5 53.5t-48.5 18.5q-31 0 -50 -19.5t-19 -52.5v-139h-72q-174 0 -297 -123t-123 -297v-70q0 -176 123 -299q125 -121 297 -120h72z" />
<glyph unicode="&#xd5;" horiz-adv-x="1259" d="M631 827l-363 541q-20 33 -55 33q-29 0 -51.5 -20.5t-22.5 -49.5q0 -8 2 -19.5t11 -21.5l393 -590l-393 -591q-12 -18 -13 -39q0 -29 22.5 -50.5t49.5 -21.5q37 0 57 33l363 542l360 -542q20 -33 56 -33q31 0 53 21.5t22 48.5t-14 41l-393 591l393 590q14 20 14 39 q0 31 -22.5 51.5t-50.5 20.5q-39 0 -58 -33z" />
<glyph unicode="&#xd6;" horiz-adv-x="1259" d="M840 139h-559v1190q0 35 -21.5 53.5t-48.5 18.5q-31 0 -51.5 -19.5t-20.5 -52.5v-1259q0 -70 72 -70h768v-139q0 -35 21.5 -53.5t50.5 -18.5q31 0 50 18.5t19 53.5v209q0 70 -69 69h-72v1190q0 35 -20.5 53.5t-49.5 18.5t-49 -19.5t-20 -52.5v-1190z" />
<glyph unicode="&#xd7;" horiz-adv-x="1120" d="M840 700h-420q-59 0 -99 40t-40 100v489q0 35 -21.5 53.5t-48.5 18.5q-31 0 -51.5 -19.5t-20.5 -52.5v-489q0 -117 82 -199t199 -82h420v-489q0 -33 21.5 -51.5t47.5 -18.5q31 0 50.5 17.5t19.5 52.5v1259q0 35 -20.5 53.5t-49.5 18.5t-49 -19.5t-20 -52.5v-629z" />
<glyph unicode="&#xd8;" horiz-adv-x="1400" d="M770 139v1190q0 35 -21.5 53.5t-48.5 18.5q-31 0 -50 -19.5t-19 -52.5v-1190h-350v1190q0 35 -21.5 53.5t-48.5 18.5q-31 0 -51.5 -19.5t-20.5 -52.5v-1259q0 -70 72 -70h979q70 0 70 70v1259q0 35 -20.5 53.5t-49.5 18.5t-49.5 -19.5t-20.5 -52.5v-1190h-350z" />
<glyph unicode="&#xd9;" horiz-adv-x="1540" d="M1260 0v-139q0 -35 21.5 -53.5t47.5 -18.5q31 0 51.5 18.5t20.5 53.5v209q0 70 -72 69h-69v1190q0 35 -20.5 53.5t-49.5 18.5t-49.5 -19.5t-20.5 -52.5v-1190h-350v1190q0 35 -21.5 53.5t-48.5 18.5q-31 0 -50 -19.5t-19 -52.5v-1190h-350v1190q0 35 -21.5 53.5 t-48.5 18.5q-31 0 -51.5 -19.5t-20.5 -52.5v-1259q0 -70 72 -70h1049z" />
<glyph unicode="&#xda;" horiz-adv-x="1400" d="M559 700h420q59 0 100 -41t41 -100v-278q0 -59 -41 -100.5t-100 -41.5h-420v561zM559 840v489q0 72 -70 72h-278q-35 0 -53.5 -21.5t-18.5 -50.5t19.5 -49t52.5 -20h209v-1190q0 -70 69 -70h490q119 0 199 80q82 82 82 201v278q0 119 -82 201q-80 80 -199 80h-420z" />
<glyph unicode="&#xdb;" horiz-adv-x="1259" d="M1120 70v1259q0 35 -21.5 53.5t-47.5 18.5q-31 0 -51.5 -19.5t-20.5 -52.5v-1259q0 -33 21.5 -51.5t50.5 -18.5q31 0 50 17.5t19 52.5zM281 700h278q59 0 100 -41t41 -100v-278q0 -59 -41 -100.5t-100 -41.5h-278v561zM281 840v489q0 35 -21.5 53.5t-48.5 18.5 q-31 0 -51.5 -19.5t-20.5 -52.5v-1259q0 -70 72 -70h348q119 0 199 80q82 82 82 201v278q0 119 -82 201q-80 80 -199 80h-278z" />
<glyph unicode="&#xdc;" horiz-adv-x="1120" d="M281 700v-561h419q57 0 98.5 41t41.5 101v278q0 59 -41 100t-99 41h-419zM281 840h419q117 0 199 -82q80 -80 80 -199v-278q0 -119 -82 -201q-80 -80 -197 -80h-489q-72 0 -72 70v1259q0 35 21.5 53.5t50.5 18.5t49.5 -19.5t20.5 -52.5v-489z" />
<glyph unicode="&#xdd;" horiz-adv-x="1120" d="M840 700v-419q0 -59 -41 -100.5t-99 -41.5h-489q-35 0 -53.5 -20.5t-18.5 -48.5q0 -29 19.5 -49.5t52.5 -20.5h489q117 0 197 80q82 82 82 201v839q0 117 -82 199q-80 82 -197 82h-489q-35 0 -53.5 -21.5t-18.5 -50.5t19.5 -49t52.5 -20h489q57 0 98.5 -40t41.5 -100 v-280h-351q-33 0 -51 -20.5t-18 -49.5t19.5 -49.5t49.5 -20.5h351z" />
<glyph unicode="&#xde;" horiz-adv-x="1259" d="M979 281q0 -59 -40 -100.5t-99 -41.5h-140q-59 0 -100 41t-41 101v839q0 59 41 99.5t100 40.5h140q59 0 99 -40t40 -100v-839zM281 840v489q0 35 -21.5 53.5t-48.5 18.5q-31 0 -51.5 -19.5t-20.5 -52.5v-1259q0 -33 21.5 -51.5t50.5 -18.5q31 0 50.5 17.5t19.5 52.5v630 h139v-419q0 -119 82 -201q80 -80 198 -80h140q119 0 198 80q82 82 82 201v839q0 117 -82 199q-80 82 -198 82h-140q-119 0 -200 -82q-80 -84 -80 -199v-280h-139z" />
<glyph unicode="&#xdf;" horiz-adv-x="1120" d="M840 700h-420q-59 0 -99 40t-40 100v280q0 59 39.5 99.5t99.5 40.5h420v-560zM600 559h240v-489q0 -33 21.5 -51.5t47.5 -18.5q31 0 50.5 17.5t19.5 52.5v1259q0 72 -70 72h-489q-117 0 -199 -82t-82 -199v-280q0 -117 82 -199t199 -82h14l-282 -450q-12 -18 -13 -39 q0 -29 22.5 -50.5t51.5 -21.5q33 0 55 35z" />
<glyph unicode="&#xe0;" d="M700 281q0 -59 -41 -100.5t-100 -41.5h-139q-59 0 -99 41t-40 101v419q0 57 39.5 98.5t99.5 41.5h280v-559zM768 92q43 -55 115 -86q14 -8 28 -8q31 0 50.5 22.5t19.5 51.5q0 43 -45 61q-43 20 -69.5 60t-26.5 88v628q0 70 -70 70h-350q-117 0 -199 -82t-82 -197v-419 q0 -119 82 -201q82 -80 199 -80h139q61 0 116.5 25.5t92.5 66.5z" />
<glyph unicode="&#xe1;" d="M700 281q0 -59 -41 -100.5t-100 -41.5h-139q-59 0 -99 41t-40 101v419q0 57 39.5 98.5t99.5 41.5h139q59 0 100 -41t41 -99v-419zM475 979h-55q-117 0 -199 -82t-82 -197v-419q0 -119 82 -201q82 -80 199 -80h139q119 0 199 80q82 82 82 201v419q0 104 -68 183l-16 22 l-371 355h385q33 0 51.5 21.5t18.5 47.5q0 31 -17.5 51.5t-52.5 20.5h-559q-39 0 -57.5 -18.5t-18.5 -45.5q0 -33 27 -57z" />
<glyph unicode="&#xe2;" d="M700 281q0 -59 -41 -100.5t-100 -41.5h-139q-59 0 -99 41t-40 101v419q0 57 39.5 98.5t99.5 41.5h139q59 0 100 -41t41 -99v-419zM281 932v215q0 53 32.5 81.5t77.5 28.5t79 -28.5t34 -81.5q0 -35 -27 -68q-14 -18 -57 -51q-14 -10 -34.5 -25.5t-47.5 -33.5 q-10 -8 -24.5 -17.5t-32.5 -19.5zM559 975q45 31 64.5 70.5t19.5 103.5q0 117 -78 188q-70 63 -172 64q-104 0 -174 -64q-80 -72 -80 -190v-866q0 -119 82 -201q82 -80 199 -80h139q119 0 199 80q82 82 82 201v419q0 123 -70 195q-78 80 -211 80z" />
<glyph unicode="&#xe3;" d="M803 63q39 20 39 60q0 31 -19.5 52.5t-50.5 21.5q-20 0 -35 -9q-51 -29 -105 -39t-124 -10q-37 0 -83 4t-77 9q-29 6 -46 27.5t-17 47.5q0 31 24 54l447 309q80 68 80 155v3q0 49 -25 91t-70 71.5t-106.5 46t-134.5 16.5h-25q-88 0 -173 -20.5t-134 -57.5 q-29 -23 -29 -53q0 -31 20.5 -52.5t49.5 -21.5q20 0 43 16q72 51 211 52q90 0 158 -21q72 -23 71 -74q0 -20 -22 -43l-447 -307q-39 -33 -57.5 -76t-18.5 -90q0 -78 46.5 -137t132.5 -72q39 -8 83 -13t97 -5q82 0 159 16t138 49z" />
<glyph unicode="&#xe4;" d="M700 840v-559q0 -59 -41 -100.5t-100 -41.5h-139q-59 0 -99 41t-40 101v419q0 57 39.5 98.5t99.5 41.5h280zM700 979h-280q-117 0 -199 -82t-82 -197v-419q0 -119 82 -201q82 -80 199 -80h139q119 0 199 80q82 82 82 201v839q0 117 -82 199q-80 82 -199 82h-278 q-35 0 -52.5 -21.5t-17.5 -50.5t18.5 -49t51.5 -20h278q59 0 100 -40t41 -100v-141z" />
<glyph unicode="&#xe5;" d="M281 559v141q0 57 39.5 98.5t99.5 41.5h139q59 0 100 -41t41 -99v-141h-419zM281 420h489q70 0 70 69v211q0 117 -82 199q-80 80 -199 80h-139q-117 0 -199 -82q-82 -80 -82 -197v-419q0 -119 82 -201q82 -80 199 -80h350q33 0 51.5 21.5t18.5 48.5q0 31 -17.5 50 t-52.5 19h-350q-59 0 -99 41t-40 101v139z" />
<glyph unicode="&#xe6;" horiz-adv-x="1259" d="M719 559h-33v350q0 35 -21.5 52.5t-48.5 17.5q-31 0 -50 -18.5t-19 -51.5v-350h-33l-260 389q-20 33 -55 33q-29 0 -51.5 -20.5t-22.5 -49.5q0 -20 12 -41l254 -381l-254 -380q-12 -18 -12 -39q0 -29 22.5 -50.5t49.5 -21.5q37 0 57 33l260 389h33v-350q0 -33 20.5 -51.5 t48.5 -18.5q31 0 50.5 17.5t19.5 52.5v350h33l258 -389q20 -33 55 -33q31 0 53.5 21.5t22.5 48.5q0 25 -12 41l-254 380l254 381q12 20 12 39q0 31 -22.5 51.5t-51.5 20.5q-35 0 -57 -33z" />
<glyph unicode="&#xe7;" horiz-adv-x="909" d="M508 420q57 -6 92 -47q31 -37 31 -92q0 -57 -37 -99.5t-105 -42.5h-69q-96 0 -168 58q-23 16 -43 16q-29 0 -49.5 -22.5t-20.5 -51.5q0 -33 29 -55q109 -84 252 -84h69q133 0 211 86q70 78 70 193q0 59 -22.5 115.5t-65.5 94.5q88 82 88 211q0 117 -70 193 q-78 86 -211 86h-69q-143 0 -252 -84q-29 -23 -29 -53q0 -31 20.5 -52.5t49.5 -21.5q20 0 43 16q74 55 168 56h69q70 0 107 -43q35 -41 35 -97q0 -57 -38 -99t-104 -42h-69q-33 0 -51.5 -20.5t-18.5 -49.5t18.5 -49t51.5 -20h88z" />
<glyph unicode="&#xe8;" d="M840 70v839q0 35 -20.5 52.5t-49.5 17.5t-49.5 -18.5t-20.5 -51.5v-770h-280q-59 0 -99 41t-40 101v628q0 35 -21.5 52.5t-48.5 17.5q-31 0 -51.5 -18.5t-20.5 -51.5v-628q0 -119 82 -201q82 -80 199 -80h350q70 0 70 70z" />
<glyph unicode="&#xe9;" d="M631 1260q33 0 51 21.5t18 47.5q0 31 -17 51.5t-52 20.5h-281q-35 0 -52 -21.5t-17 -50.5t18 -49t51 -20h281zM840 70v839q0 35 -20.5 52.5t-49.5 17.5t-49.5 -18.5t-20.5 -51.5v-770h-280q-59 0 -99 41t-40 101v628q0 35 -21.5 52.5t-48.5 17.5q-31 0 -51.5 -18.5 t-20.5 -51.5v-628q0 -119 82 -201q82 -80 199 -80h350q70 0 70 70z" />
<glyph unicode="&#xea;" d="M422 459l280 -434q18 -27 52 -27q27 0 49 19.5t22 50.5q0 20 -16 47l-289 446l283 295q23 27 22 53q0 31 -21.5 53.5t-49.5 22.5q-25 0 -43 -22l-445 -465v411q0 35 -21.5 52.5t-47.5 17.5q-31 0 -50.5 -18.5t-19.5 -51.5v-839q0 -33 20.5 -51.5t49.5 -18.5q31 0 50 17.5 t19 52.5v225z" />
<glyph unicode="&#xeb;" d="M840 70v839q0 70 -70 70h-281q-51 0 -67 -47l-277 -840q-4 -16 -4 -24q0 -31 21.5 -49.5t50.5 -18.5q20 0 37.5 12.5t25.5 34.5l263 793h161v-770q0 -33 20.5 -51.5t49.5 -18.5q31 0 50.5 17.5t19.5 52.5z" />
<glyph unicode="&#xec;" horiz-adv-x="1120" d="M979 70q0 -33 -20.5 -51.5t-49.5 -18.5q-31 0 -50 17.5t-19 52.5v622l-224 -313q-29 -37 -57 -37q-31 0 -57 37l-221 313v-622q0 -33 -21.5 -51.5t-48.5 -18.5q-33 0 -52.5 17.5t-19.5 52.5v839q0 39 17.5 60.5t44.5 21.5q39 0 67 -41l291 -409l293 409q31 41 66 41 q27 0 44 -21.5t17 -60.5v-839z" />
<glyph unicode="&#xed;" d="M700 559h-419v350q0 35 -21.5 52.5t-48.5 17.5q-31 0 -51.5 -18.5t-20.5 -51.5v-839q0 -33 21.5 -51.5t50.5 -18.5q31 0 50.5 17.5t19.5 52.5v350h419v-350q0 -33 20.5 -51.5t49.5 -18.5q31 0 50.5 17.5t19.5 52.5v839q0 35 -20.5 52.5t-49.5 17.5t-49.5 -18.5 t-20.5 -51.5v-350z" />
<glyph unicode="&#xee;" d="M840 307v365q0 127 -90.5 217t-217.5 90h-83q-125 0 -220 -90q-90 -90 -90 -217v-365q0 -129 90 -219q90 -88 220 -88h83q129 0 218 88q90 90 90 219zM700 307q0 -70 -49 -119t-119 -49h-83q-70 0 -119 49.5t-49 118.5v365q0 70 49 119t119 49h83q70 0 119 -49.5 t49 -118.5v-365z" />
<glyph unicode="&#xef;" d="M840 70v630q0 117 -84 197q-82 82 -197 82h-348q-72 0 -72 -70v-839q0 -33 21.5 -51.5t50.5 -18.5q31 0 50.5 17.5t19.5 52.5v770h278q59 0 100 -41t41 -99v-630q0 -33 20.5 -51.5t49.5 -18.5q31 0 50.5 17.5t19.5 52.5z" />
<glyph unicode="&#xf0;" d="M281 139v701h278q59 0 100 -41t41 -99v-419q0 -59 -41 -100.5t-100 -41.5h-278zM281 0h278q119 0 199 80q82 82 82 201v419q0 117 -82 199q-80 80 -199 80h-348q-72 0 -72 -70v-1259q0 -33 21.5 -51.5t50.5 -18.5q31 0 50.5 17.5t19.5 52.5v350z" />
<glyph unicode="&#xf1;" horiz-adv-x="839" d="M631 0q33 0 51 21.5t18 48.5q0 31 -17 50t-52 19h-211q-59 0 -99 41t-40 101v419q0 57 39.5 98.5t99.5 41.5h211q33 0 51 21.5t18 47.5q0 31 -17 50.5t-52 19.5h-211q-117 0 -199 -82t-82 -197v-419q0 -119 82 -201q82 -80 199 -80h211z" />
<glyph unicode="&#xf2;" horiz-adv-x="1259" d="M559 840v-770q0 -33 21.5 -51.5t50.5 -18.5q31 0 50 17.5t19 52.5v770h140q59 0 99 -41t40 -99v-630q0 -33 21.5 -51.5t50.5 -18.5q31 0 50 17.5t19 52.5v630q0 117 -82 199q-80 80 -198 80h-629q-72 0 -72 -70v-839q0 -33 21.5 -51.5t50.5 -18.5q31 0 50.5 17.5 t19.5 52.5v770h278z" />
<glyph unicode="&#xf3;" d="M700 0v-139q0 -59 -41 -100.5t-100 -41.5h-278q-35 0 -52.5 -20.5t-17.5 -48.5q0 -29 18.5 -49.5t51.5 -20.5h278q119 0 201 82q80 80 80 199v1048q0 35 -20.5 52.5t-49.5 17.5t-49.5 -18.5t-20.5 -51.5v-770h-280q-59 0 -99 41t-40 101v628q0 35 -21.5 52.5t-48.5 17.5 q-31 0 -51.5 -18.5t-20.5 -51.5v-628q0 -119 82 -201q82 -80 199 -80h280z" />
<glyph unicode="&#xf4;" horiz-adv-x="1259" d="M700 840q115 0 197 -82t82 -199v-139q0 -117 -82 -199q-80 -82 -197 -82v701zM559 139q-115 0 -196.5 82t-81.5 199v139q0 117 81.5 199t196.5 82v-701zM700 979v211q0 33 -21.5 51.5t-47.5 18.5q-31 0 -51.5 -18.5t-20.5 -51.5v-211q-174 0 -297 -123 q-123 -121 -123 -297v-139q0 -174 123 -297t297 -123v-350q0 -33 21.5 -51.5t50.5 -18.5q31 0 50 17.5t19 52.5v350q174 0 297 123t123 297v139q0 178 -123 299q-121 121 -297 121z" />
<glyph unicode="&#xf5;" d="M575 489l254 381q12 20 13 39q0 31 -22.5 51.5t-51.5 20.5q-37 0 -57 -33l-222 -332l-221 332q-23 31 -55 31q-29 0 -51.5 -19.5t-22.5 -48.5q0 -8 2 -19t11 -22l254 -381l-254 -380q-12 -18 -13 -39q0 -29 22.5 -50.5t49.5 -21.5q37 0 57 33l221 331l222 -331 q20 -31 57 -31q29 0 51.5 19.5t22.5 48.5q0 25 -13 41z" />
<glyph unicode="&#xf6;" horiz-adv-x="1120" d="M700 139h-280q-59 0 -99 41t-40 101v628q0 35 -21.5 52.5t-48.5 17.5q-31 0 -51.5 -18.5t-20.5 -51.5v-628q0 -119 82 -201q82 -80 199 -80h420v-55q0 -35 21.5 -53.5t47.5 -18.5q31 0 50.5 18.5t19.5 53.5v125q0 70 -70 69h-69v770q0 35 -20.5 52.5t-49.5 17.5 t-49.5 -18.5t-20.5 -51.5v-770z" />
<glyph unicode="&#xf7;" d="M700 559h-280q-59 0 -99 41t-40 100v209q0 35 -21.5 52.5t-48.5 17.5q-31 0 -51.5 -18.5t-20.5 -51.5v-209q0 -119 82 -200q82 -80 199 -80h280v-350q0 -33 20.5 -51.5t49.5 -18.5q31 0 50.5 17.5t19.5 52.5v839q0 35 -20.5 52.5t-49.5 17.5t-49.5 -18.5t-20.5 -51.5 v-350z" />
<glyph unicode="&#xf8;" horiz-adv-x="1259" d="M700 139v770q0 35 -21.5 52.5t-47.5 17.5q-31 0 -51.5 -18.5t-20.5 -51.5v-770h-139q-59 0 -99 41t-40 101v628q0 35 -21.5 52.5t-48.5 17.5q-31 0 -51.5 -18.5t-20.5 -51.5v-628q0 -119 82 -201q82 -80 199 -80h631q70 0 69 70v839q0 35 -21.5 52.5t-47.5 17.5 q-31 0 -51.5 -18.5t-20.5 -51.5v-770h-279z" />
<glyph unicode="&#xf9;" horiz-adv-x="1400" d="M700 139v770q0 35 -21.5 52.5t-47.5 17.5q-31 0 -51.5 -18.5t-20.5 -51.5v-770h-139q-59 0 -99 41t-40 101v628q0 35 -21.5 52.5t-48.5 17.5q-31 0 -51.5 -18.5t-20.5 -51.5v-628q0 -119 82 -201q82 -80 199 -80h700v-70q0 -35 20.5 -52t49.5 -17q31 0 50.5 17.5 t19.5 51.5v140q0 70 -70 69h-70v770q0 35 -21.5 52.5t-47.5 17.5q-31 0 -51.5 -18.5t-20.5 -51.5v-770h-279z" />
<glyph unicode="&#xfa;" horiz-adv-x="1050" d="M350 420h281q66 0 106 -43q33 -39 33 -96t-37 -99.5t-102 -42.5h-281v281zM350 559v350q0 70 -69 70h-142q-33 0 -51 -20.5t-18 -49.5t19.5 -49t49.5 -20h72v-770q0 -70 70 -70h350q135 0 211 88q68 76 67 193q0 117 -69 192q-78 86 -209 86h-281z" />
<glyph unicode="&#xfb;" horiz-adv-x="1120" d="M979 70v839q0 35 -20.5 52.5t-49.5 17.5t-49 -18.5t-20 -51.5v-839q0 -33 21.5 -51.5t47.5 -18.5q31 0 50.5 17.5t19.5 52.5zM281 420h139q70 0 106 -43q33 -39 33 -96t-37 -99.5t-102 -42.5h-139v281zM281 559v350q0 35 -21.5 52.5t-48.5 17.5q-31 0 -51.5 -18.5 t-20.5 -51.5v-839q0 -70 72 -70h209q135 0 211 88q70 76 69 193q0 117 -69 192q-78 86 -211 86h-139z" />
<glyph unicode="&#xfc;" d="M281 420h278q70 0 107 -43q35 -41 34 -96q0 -57 -36.5 -99.5t-104.5 -42.5h-278v281zM281 559v350q0 35 -21.5 52.5t-48.5 17.5q-31 0 -51.5 -18.5t-20.5 -51.5v-839q0 -70 72 -70h348q133 0 213 88q68 76 68 193t-70 192q-78 86 -211 86h-278z" />
<glyph unicode="&#xfd;" d="M700 420v-139q0 -59 -41 -100.5t-100 -41.5h-348q-35 0 -53.5 -20.5t-18.5 -48.5q0 -29 19.5 -49.5t52.5 -20.5h348q119 0 199 80q82 82 82 201v419q0 117 -82 199q-80 80 -199 80h-348q-35 0 -53.5 -20.5t-18.5 -49.5t19.5 -49t52.5 -20h348q59 0 100 -41t41 -99v-141 h-211q-33 0 -51 -20.5t-18 -49.5t19.5 -49t49.5 -20h211z" />
<glyph unicode="&#xfe;" horiz-adv-x="1120" d="M840 238q0 -41 -28 -70t-71 -29h-84q-41 0 -69.5 29t-28.5 70v503q0 41 28.5 70t69.5 29h84q41 0 70 -29t29 -70v-503zM281 559v350q0 35 -21.5 52.5t-48.5 17.5q-31 0 -51.5 -18.5t-20.5 -51.5v-839q0 -33 21.5 -51.5t50.5 -18.5q31 0 50.5 17.5t19.5 52.5v350h139v-182 q0 -98 69.5 -168t167.5 -70h84q100 0 168 70q70 70 70 168v503q0 49 -18.5 93.5t-50 76t-75.5 50t-94 18.5h-84q-98 0 -168 -70q-70 -68 -69 -168v-182h-139z" />
<glyph unicode="&#xff;" d="M700 559h-280q-68 0 -103.5 42t-35.5 99t36.5 98.5t102.5 41.5h280v-281zM528 420h172v-350q0 -33 20.5 -51.5t49.5 -18.5q31 0 50.5 17.5t19.5 52.5v839q0 70 -70 70h-350q-133 0 -209 -88q-72 -78 -72 -191q0 -100 58.5 -179t162.5 -97l-208 -315q-12 -18 -13 -39 q0 -29 22.5 -50.5t49.5 -21.5q37 0 57 33z" />
<glyph unicode="&#x2c6;" horiz-adv-x="1400" d="M1257 516q0 96 -38 154q-45 72 -156 94q-2 2 -14 2q-31 0 -50.5 -21.5t-19.5 -50.5q0 -27 14 -43q6 -10 20.5 -15t32 -11.5t33 -15.5t25.5 -23q14 -27 14 -70q0 -39 -29.5 -67.5t-72.5 -28.5q-31 0 -58 18l-438 291q-37 25 -69.5 35t-67.5 10q-104 0 -174 -74 q-70 -72 -70 -168v-24q16 -102 66 -156q45 -47 129 -67q10 -2 18 -2q31 0 50.5 21.5t19.5 51.5q0 53 -55 66q-37 10 -59.5 33.5t-28.5 70.5v11q0 39 30.5 66.5t71.5 27.5q33 0 61 -19l437 -290q63 -43 133 -43q94 0 170 71q75 70 75 166z" />
<glyph unicode="&#x401;" d="M281 840v420h491q33 0 51.5 21.5t18.5 47.5q0 31 -17.5 51.5t-52.5 20.5h-561q-72 0 -72 -72v-1263q0 -66 72 -66h561q33 0 51.5 21.5t18.5 48.5q0 31 -17.5 50t-52.5 19h-491v561h350q35 0 52 20.5t17 49.5q0 31 -17 50.5t-52 19.5h-350zM211 1679q0 -31 20.5 -51 t51.5 -20t52 20.5t21 50.5q0 31 -21.5 52.5t-51.5 21.5q-31 0 -51.5 -21.5t-20.5 -52.5zM631 1679q0 -29 19.5 -49t49.5 -20q29 0 49.5 20.5t20.5 48.5q0 31 -20.5 50.5t-49.5 19.5q-31 0 -50 -19.5t-19 -50.5z" />
<glyph unicode="&#x405;" horiz-adv-x="1120" d="M936 1282q-80 57 -176 88t-201 31q-143 0 -252 -58q-80 -41 -118.5 -108.5t-38.5 -144.5q0 -61 21.5 -112.5t72.5 -82.5l522 -383q41 -27 62.5 -74t21.5 -98q0 -47 -19.5 -87t-58.5 -60q-113 -57 -221 -58q-74 0 -146.5 25.5t-150.5 77.5q-23 12 -39 12 q-31 0 -50.5 -22.5t-19.5 -51.5q0 -37 33 -57q98 -63 185.5 -94t185.5 -31q72 0 142.5 17.5t144.5 56.5q76 41 112.5 113.5t36.5 160.5q0 86 -36 163t-105 122l-518 385q-41 29 -41 78q0 37 22.5 71.5t63.5 57.5q84 45 188 45q160 0 297 -97q16 -14 41 -14q29 0 49.5 22.5 t20.5 51.5q0 14 -7.5 29.5t-23.5 25.5z" />
<glyph unicode="&#x406;" horiz-adv-x="419" d="M281 70v1259q0 35 -21.5 53.5t-48.5 18.5q-31 0 -51.5 -19.5t-20.5 -52.5v-1259q0 -33 21.5 -51.5t50.5 -18.5q31 0 50.5 17.5t19.5 52.5z" />
<glyph unicode="&#x408;" horiz-adv-x="839" d="M700 281v1048q0 35 -21.5 53.5t-47.5 18.5q-31 0 -51.5 -19.5t-20.5 -52.5v-1048q0 -59 -40 -100.5t-99 -41.5h-209q-35 0 -53.5 -20.5t-18.5 -48.5q0 -29 19.5 -49.5t52.5 -20.5h209q115 0 198 80q82 82 82 201z" />
<glyph unicode="&#x410;" horiz-adv-x="1259" d="M385 352h508l100 -303q8 -31 35 -43q20 -4 31 -4q27 0 49 18.5t22 47.5q0 10 -4 26l-421 1260q-18 59 -66 59q-43 0 -66 -59l-419 -1260q-6 -12 -7 -26q0 -29 23 -47.5t49 -18.5q51 0 66 47zM846 494h-414l207 618z" />
<glyph unicode="&#x411;" horiz-adv-x="1120" d="M281 700h419q57 0 98.5 -41t41.5 -100v-278q0 -59 -41 -100.5t-99 -41.5h-419v561zM281 840v420h489q33 0 51.5 21.5t18.5 47.5q0 31 -17.5 51.5t-52.5 20.5h-559q-72 0 -72 -72v-1259q0 -70 72 -70h489q117 0 197 80q82 82 82 201v278q0 119 -82 201q-80 80 -197 80 h-419z" />
<glyph unicode="&#x412;" horiz-adv-x="1120" d="M846 799q63 76 63 180v141q0 117 -82 199q-80 82 -196 82h-420q-72 0 -72 -72v-1259q0 -70 72 -70h489q117 0 197 80q82 82 82 201v278q0 78 -35 140.5t-98 99.5zM281 700h419q57 0 98.5 -41t41.5 -100v-278q0 -59 -41 -100.5t-99 -41.5h-419v561zM631 840h-350v420h350 q57 0 98 -40t41 -100v-141q0 -57 -41 -98t-98 -41z" />
<glyph unicode="&#x413;" d="M770 1260q33 0 51.5 21.5t18.5 47.5q0 31 -17.5 51.5t-52.5 20.5h-559q-72 0 -72 -72v-1259q0 -33 21.5 -51.5t50.5 -18.5q31 0 50.5 17.5t19.5 52.5v1190h489z" />
<glyph unicode="&#x414;" horiz-adv-x="1259" d="M287 139h-76q-72 0 -72 -69v-140q0 -35 21.5 -52t50.5 -17q31 0 50.5 17.5t19.5 51.5v70h698v-70q0 -35 21.5 -52t50.5 -17q31 0 50 17.5t19 51.5v140q0 70 -69 69h-72v1190q0 72 -70 72h-420q-63 0 -69 -64zM840 139h-414l127 1121h287v-1121z" />
<glyph unicode="&#x415;" d="M281 840v420h491q33 0 51.5 21.5t18.5 47.5q0 31 -17.5 51.5t-52.5 20.5h-561q-72 0 -72 -72v-1263q0 -66 72 -66h561q33 0 51.5 21.5t18.5 48.5q0 31 -17.5 50t-52.5 19h-491v561h350q35 0 52 20.5t17 49.5q0 31 -17 50.5t-52 19.5h-350z" />
<glyph unicode="&#x416;" horiz-adv-x="1400" d="M770 852v477q0 35 -21.5 53.5t-48.5 18.5q-31 0 -50 -19.5t-19 -52.5v-477l-363 518q-23 31 -57 31q-27 0 -49.5 -20.5t-22.5 -49.5q0 -25 15 -41l366 -524l-373 -662q-8 -16 -8 -36q0 -29 22.5 -48.5t49.5 -19.5q39 0 61 37l359 639v-606q0 -33 20.5 -51.5t48.5 -18.5 q31 0 50.5 17.5t19.5 52.5v606l358 -639q20 -37 60 -37q29 0 51.5 19.5t22.5 48.5q0 16 -11 36l-370 662l366 524q14 16 15 39q0 31 -22.5 51.5t-51.5 20.5q-14 0 -29.5 -7.5t-25.5 -23.5z" />
<glyph unicode="&#x417;" d="M559 700q72 0 109 -43q33 -35 32 -98v-278q0 -59 -41 -100.5t-100 -41.5h-139q-47 0 -82 27q-37 31 -51 72q-16 47 -64 47q-31 0 -52 -18.5t-21 -49.5q0 -8 4 -24q29 -86 101.5 -139.5t164.5 -53.5h139q119 0 199 80q82 82 82 201v278q0 129 -95 211q45 39 70 93.5 t25 115.5v141q0 117 -82 199q-80 82 -199 82h-139q-92 0 -165 -53.5t-101 -139.5q-4 -16 -4 -24q0 -31 22.5 -50.5t50.5 -19.5q20 0 39 13.5t27 35.5q14 43 50 70t81 27h139q59 0 100 -40t41 -100v-141q0 -57 -41 -98t-100 -41h-209q-35 0 -52 -20.5t-17 -49.5t18 -49.5 t51 -20.5h209z" />
<glyph unicode="&#x418;" horiz-adv-x="1120" d="M979 70v1259q0 39 -18.5 60.5t-45.5 21.5q-18 0 -36.5 -12.5t-30.5 -34.5l-567 -1024v989q0 35 -21.5 53.5t-48.5 18.5q-31 0 -51.5 -19.5t-20.5 -52.5v-1259q0 -37 19.5 -58.5t46.5 -21.5q39 0 67 47l568 1022v-989q0 -33 21.5 -51.5t47.5 -18.5q31 0 50.5 17.5 t19.5 52.5z" />
<glyph unicode="&#x419;" horiz-adv-x="1120" d="M700 1540q33 0 51.5 20.5t18.5 49.5q0 31 -17.5 50t-52.5 19h-280q-33 0 -51.5 -20.5t-18.5 -48.5q0 -29 18.5 -49.5t51.5 -20.5h280zM979 70v1259q0 39 -18.5 60.5t-45.5 21.5q-18 0 -36.5 -12.5t-30.5 -34.5l-567 -1024v989q0 35 -21.5 53.5t-48.5 18.5 q-31 0 -51.5 -19.5t-20.5 -52.5v-1259q0 -37 19.5 -58.5t46.5 -21.5q39 0 67 47l568 1022v-989q0 -33 21.5 -51.5t47.5 -18.5q31 0 50.5 17.5t19.5 52.5z" />
<glyph unicode="&#x41a;" horiz-adv-x="1120" d="M281 795v534q0 33 -21.5 51.5t-48.5 18.5q-29 0 -50.5 -18.5t-21.5 -51.5v-1259q0 -33 21.5 -51.5t50.5 -18.5q31 0 50.5 17.5t19.5 52.5v534l165 164l410 -731q20 -39 59 -39q29 0 51.5 19.5t22.5 50.5q0 16 -10 36l-428 760l416 416q23 23 22 49q0 29 -21.5 50.5 t-49.5 21.5q-27 0 -50 -23z" />
<glyph unicode="&#x41b;" horiz-adv-x="1120" d="M979 70v1259q0 72 -70 72h-350q-49 0 -65 -53l-351 -1260q-4 -8 -4 -20q0 -31 21.5 -49.5t50.5 -18.5q23 0 41 12.5t22 38.5l338 1209h228v-1190q0 -33 21.5 -51.5t47.5 -18.5q31 0 50.5 17.5t19.5 52.5z" />
<glyph unicode="&#x41c;" horiz-adv-x="1259" d="M1122 70v1253q0 37 -19.5 59.5t-43.5 22.5q-41 0 -68 -45l-360 -602l-361 602q-27 45 -65 45q-27 0 -46.5 -22.5t-19.5 -59.5v-1253q0 -33 21.5 -51.5t50.5 -18.5q31 0 50.5 17.5t19.5 52.5v999l290 -483q27 -45 60 -45q35 0 61 45l289 483v-999q0 -33 21.5 -51.5 t48.5 -18.5q31 0 51 17.5t20 52.5z" />
<glyph unicode="&#x41d;" horiz-adv-x="1120" d="M840 840h-559v489q0 35 -21.5 53.5t-48.5 18.5q-31 0 -51.5 -19.5t-20.5 -52.5v-1259q0 -33 21.5 -51.5t50.5 -18.5q31 0 50.5 17.5t19.5 52.5v630h559v-630q0 -33 20.5 -50.5t48.5 -17.5q27 0 48.5 18.5t21.5 53.5v1259q0 33 -20.5 51.5t-49.5 18.5t-49 -19.5t-20 -50.5 v-493z" />
<glyph unicode="&#x41e;" horiz-adv-x="1232" d="M979 281v839q0 117 -82 199q-80 82 -197 82h-280q-117 0 -199 -82t-82 -199v-839q0 -119 82 -201q82 -80 199 -80h280q117 0 197 80q82 82 82 201zM840 281q0 -59 -41 -100.5t-99 -41.5h-280q-59 0 -99 41t-40 101v839q0 59 39.5 99.5t99.5 40.5h280q57 0 98.5 -40 t41.5 -100v-839z" />
<glyph unicode="&#x41f;" horiz-adv-x="1120" d="M979 70v1259q0 72 -70 72h-698q-72 0 -72 -72v-1259q0 -33 21.5 -51.5t50.5 -18.5q31 0 50.5 17.5t19.5 52.5v1190h559v-1190q0 -33 21.5 -51.5t47.5 -18.5q31 0 50.5 17.5t19.5 52.5z" />
<glyph unicode="&#x420;" horiz-adv-x="1120" d="M281 700v560h419q57 0 98.5 -40t41.5 -100v-280q0 -59 -41 -99.5t-99 -40.5h-419zM281 559h419q117 0 197 82q82 82 82 199v280q0 117 -82 199q-80 82 -197 82h-489q-72 0 -72 -72v-1259q0 -33 21.5 -51.5t50.5 -18.5q31 0 50.5 17.5t19.5 52.5v489z" />
<glyph unicode="&#x421;" d="M770 0q33 0 51.5 21.5t18.5 48.5q0 31 -17.5 50t-52.5 19h-350q-59 0 -99 41t-40 101v839q0 59 39.5 99.5t99.5 40.5h350q33 0 51.5 21.5t18.5 47.5q0 31 -17.5 51.5t-52.5 20.5h-350q-117 0 -199 -82t-82 -199v-839q0 -119 82 -201q82 -80 199 -80h350z" />
<glyph unicode="&#x422;" horiz-adv-x="1120" d="M489 1260v-1190q0 -33 21.5 -51.5t48.5 -18.5q31 0 51.5 17.5t20.5 52.5v1190h278q35 0 52.5 21.5t17.5 47.5q0 31 -17.5 51.5t-52.5 20.5h-698q-35 0 -53.5 -21.5t-18.5 -50.5t19.5 -49t52.5 -20h278z" />
<glyph unicode="&#x423;" horiz-adv-x="1120" d="M840 559v-278q0 -59 -41 -100.5t-99 -41.5h-350q-35 0 -52 -20.5t-17 -48.5q0 -29 18 -49.5t51 -20.5h350q117 0 197 80q82 82 82 201v1048q0 35 -20.5 53.5t-49.5 18.5t-49 -19.5t-20 -52.5v-629h-420q-59 0 -99 40t-40 100v489q0 35 -21.5 53.5t-48.5 18.5 q-31 0 -51.5 -19.5t-20.5 -52.5v-489q0 -117 82 -199t199 -82h420z" />
<glyph unicode="&#x424;" horiz-adv-x="1400" d="M770 1051h70q117 0 198.5 -82t81.5 -199v-70q0 -117 -82 -198.5t-198 -81.5h-70v631zM631 420h-72q-115 0 -196.5 82t-81.5 198v70q0 117 81.5 199t196.5 82h72v-631zM631 281v-211q0 -33 20.5 -51.5t48.5 -18.5q31 0 50.5 17.5t19.5 52.5v211h70q176 0 297 120 q123 123 123 299v70q0 174 -123 297q-121 123 -297 123h-70v139q0 35 -21.5 53.5t-48.5 18.5q-31 0 -50 -19.5t-19 -52.5v-139h-72q-174 0 -297 -123t-123 -297v-70q0 -176 123 -299q125 -121 297 -120h72z" />
<glyph unicode="&#x425;" horiz-adv-x="1259" d="M631 827l-363 541q-20 33 -55 33q-29 0 -51.5 -20.5t-22.5 -49.5q0 -8 2 -19.5t11 -21.5l393 -590l-393 -591q-12 -18 -13 -39q0 -29 22.5 -50.5t49.5 -21.5q37 0 57 33l363 542l360 -542q20 -33 56 -33q31 0 53 21.5t22 48.5t-14 41l-393 591l393 590q14 20 14 39 q0 31 -22.5 51.5t-50.5 20.5q-39 0 -58 -33z" />
<glyph unicode="&#x426;" horiz-adv-x="1259" d="M840 139h-559v1190q0 35 -21.5 53.5t-48.5 18.5q-31 0 -51.5 -19.5t-20.5 -52.5v-1259q0 -70 72 -70h768v-139q0 -35 21.5 -53.5t50.5 -18.5q31 0 50 18.5t19 53.5v209q0 70 -69 69h-72v1190q0 35 -20.5 53.5t-49.5 18.5t-49 -19.5t-20 -52.5v-1190z" />
<glyph unicode="&#x427;" horiz-adv-x="1120" d="M840 700h-420q-59 0 -99 40t-40 100v489q0 35 -21.5 53.5t-48.5 18.5q-31 0 -51.5 -19.5t-20.5 -52.5v-489q0 -117 82 -199t199 -82h420v-489q0 -33 21.5 -51.5t47.5 -18.5q31 0 50.5 17.5t19.5 52.5v1259q0 35 -20.5 53.5t-49.5 18.5t-49 -19.5t-20 -52.5v-629z" />
<glyph unicode="&#x428;" horiz-adv-x="1400" d="M770 139v1190q0 35 -21.5 53.5t-48.5 18.5q-31 0 -50 -19.5t-19 -52.5v-1190h-350v1190q0 35 -21.5 53.5t-48.5 18.5q-31 0 -51.5 -19.5t-20.5 -52.5v-1259q0 -70 72 -70h979q70 0 70 70v1259q0 35 -20.5 53.5t-49.5 18.5t-49.5 -19.5t-20.5 -52.5v-1190h-350z" />
<glyph unicode="&#x429;" horiz-adv-x="1540" d="M1260 0v-139q0 -35 21.5 -53.5t47.5 -18.5q31 0 51.5 18.5t20.5 53.5v209q0 70 -72 69h-69v1190q0 35 -20.5 53.5t-49.5 18.5t-49.5 -19.5t-20.5 -52.5v-1190h-350v1190q0 35 -21.5 53.5t-48.5 18.5q-31 0 -50 -19.5t-19 -52.5v-1190h-350v1190q0 35 -21.5 53.5 t-48.5 18.5q-31 0 -51.5 -19.5t-20.5 -52.5v-1259q0 -70 72 -70h1049z" />
<glyph unicode="&#x42a;" horiz-adv-x="1400" d="M559 700h420q59 0 100 -41t41 -100v-278q0 -59 -41 -100.5t-100 -41.5h-420v561zM559 840v489q0 72 -70 72h-278q-35 0 -53.5 -21.5t-18.5 -50.5t19.5 -49t52.5 -20h209v-1190q0 -70 69 -70h490q119 0 199 80q82 82 82 201v278q0 119 -82 201q-80 80 -199 80h-420z" />
<glyph unicode="&#x42b;" horiz-adv-x="1259" d="M1120 70v1259q0 35 -21.5 53.5t-47.5 18.5q-31 0 -51.5 -19.5t-20.5 -52.5v-1259q0 -33 21.5 -51.5t50.5 -18.5q31 0 50 17.5t19 52.5zM281 700h278q59 0 100 -41t41 -100v-278q0 -59 -41 -100.5t-100 -41.5h-278v561zM281 840v489q0 35 -21.5 53.5t-48.5 18.5 q-31 0 -51.5 -19.5t-20.5 -52.5v-1259q0 -70 72 -70h348q119 0 199 80q82 82 82 201v278q0 119 -82 201q-80 80 -199 80h-278z" />
<glyph unicode="&#x42c;" horiz-adv-x="1120" d="M281 700v-561h419q57 0 98.5 41t41.5 101v278q0 59 -41 100t-99 41h-419zM281 840h419q117 0 199 -82q80 -80 80 -199v-278q0 -119 -82 -201q-80 -80 -197 -80h-489q-72 0 -72 70v1259q0 35 21.5 53.5t50.5 18.5t49.5 -19.5t20.5 -52.5v-489z" />
<glyph unicode="&#x42d;" horiz-adv-x="1120" d="M840 700v-419q0 -59 -41 -100.5t-99 -41.5h-489q-35 0 -53.5 -20.5t-18.5 -48.5q0 -29 19.5 -49.5t52.5 -20.5h489q117 0 197 80q82 82 82 201v839q0 117 -82 199q-80 82 -197 82h-489q-35 0 -53.5 -21.5t-18.5 -50.5t19.5 -49t52.5 -20h489q57 0 98.5 -40t41.5 -100 v-280h-351q-33 0 -51 -20.5t-18 -49.5t19.5 -49.5t49.5 -20.5h351z" />
<glyph unicode="&#x42e;" horiz-adv-x="1259" d="M979 281q0 -59 -40 -100.5t-99 -41.5h-140q-59 0 -100 41t-41 101v839q0 59 41 99.5t100 40.5h140q59 0 99 -40t40 -100v-839zM281 840v489q0 35 -21.5 53.5t-48.5 18.5q-31 0 -51.5 -19.5t-20.5 -52.5v-1259q0 -33 21.5 -51.5t50.5 -18.5q31 0 50.5 17.5t19.5 52.5v630 h139v-419q0 -119 82 -201q80 -80 198 -80h140q119 0 198 80q82 82 82 201v839q0 117 -82 199q-80 82 -198 82h-140q-119 0 -200 -82q-80 -84 -80 -199v-280h-139z" />
<glyph unicode="&#x42f;" horiz-adv-x="1120" d="M840 700h-420q-59 0 -99 40t-40 100v280q0 59 39.5 99.5t99.5 40.5h420v-560zM600 559h240v-489q0 -33 21.5 -51.5t47.5 -18.5q31 0 50.5 17.5t19.5 52.5v1259q0 72 -70 72h-489q-117 0 -199 -82t-82 -199v-280q0 -117 82 -199t199 -82h14l-282 -450q-12 -18 -13 -39 q0 -29 22.5 -50.5t51.5 -21.5q33 0 55 35z" />
<glyph unicode="&#x430;" d="M700 281q0 -59 -41 -100.5t-100 -41.5h-139q-59 0 -99 41t-40 101v419q0 57 39.5 98.5t99.5 41.5h280v-559zM768 92q43 -55 115 -86q14 -8 28 -8q31 0 50.5 22.5t19.5 51.5q0 43 -45 61q-43 20 -69.5 60t-26.5 88v628q0 70 -70 70h-350q-117 0 -199 -82t-82 -197v-419 q0 -119 82 -201q82 -80 199 -80h139q61 0 116.5 25.5t92.5 66.5z" />
<glyph unicode="&#x431;" d="M700 281q0 -59 -41 -100.5t-100 -41.5h-139q-59 0 -99 41t-40 101v419q0 57 39.5 98.5t99.5 41.5h139q59 0 100 -41t41 -99v-419zM475 979h-55q-117 0 -199 -82t-82 -197v-419q0 -119 82 -201q82 -80 199 -80h139q119 0 199 80q82 82 82 201v419q0 104 -68 183l-16 22 l-371 355h385q33 0 51.5 21.5t18.5 47.5q0 31 -17.5 51.5t-52.5 20.5h-559q-39 0 -57.5 -18.5t-18.5 -45.5q0 -33 27 -57z" />
<glyph unicode="&#x432;" d="M700 281q0 -59 -41 -100.5t-100 -41.5h-139q-59 0 -99 41t-40 101v419q0 57 39.5 98.5t99.5 41.5h139q59 0 100 -41t41 -99v-419zM281 932v215q0 53 32.5 81.5t77.5 28.5t79 -28.5t34 -81.5q0 -35 -27 -68q-14 -18 -57 -51q-14 -10 -34.5 -25.5t-47.5 -33.5 q-10 -8 -24.5 -17.5t-32.5 -19.5zM559 975q45 31 64.5 70.5t19.5 103.5q0 117 -78 188q-70 63 -172 64q-104 0 -174 -64q-80 -72 -80 -190v-866q0 -119 82 -201q82 -80 199 -80h139q119 0 199 80q82 82 82 201v419q0 123 -70 195q-78 80 -211 80z" />
<glyph unicode="&#x433;" d="M803 63q39 20 39 60q0 31 -19.5 52.5t-50.5 21.5q-20 0 -35 -9q-51 -29 -105 -39t-124 -10q-37 0 -83 4t-77 9q-29 6 -46 27.5t-17 47.5q0 31 24 54l447 309q80 68 80 155v3q0 49 -25 91t-70 71.5t-106.5 46t-134.5 16.5h-25q-88 0 -173 -20.5t-134 -57.5 q-29 -23 -29 -53q0 -31 20.5 -52.5t49.5 -21.5q20 0 43 16q72 51 211 52q90 0 158 -21q72 -23 71 -74q0 -20 -22 -43l-447 -307q-39 -33 -57.5 -76t-18.5 -90q0 -78 46.5 -137t132.5 -72q39 -8 83 -13t97 -5q82 0 159 16t138 49z" />
<glyph unicode="&#x434;" d="M700 840v-559q0 -59 -41 -100.5t-100 -41.5h-139q-59 0 -99 41t-40 101v419q0 57 39.5 98.5t99.5 41.5h280zM700 979h-280q-117 0 -199 -82t-82 -197v-419q0 -119 82 -201q82 -80 199 -80h139q119 0 199 80q82 82 82 201v839q0 117 -82 199q-80 82 -199 82h-278 q-35 0 -52.5 -21.5t-17.5 -50.5t18.5 -49t51.5 -20h278q59 0 100 -40t41 -100v-141z" />
<glyph unicode="&#x435;" d="M281 559v141q0 57 39.5 98.5t99.5 41.5h139q59 0 100 -41t41 -99v-141h-419zM281 420h489q70 0 70 69v211q0 117 -82 199q-80 80 -199 80h-139q-117 0 -199 -82q-82 -80 -82 -197v-419q0 -119 82 -201q82 -80 199 -80h350q33 0 51.5 21.5t18.5 48.5q0 31 -17.5 50 t-52.5 19h-350q-59 0 -99 41t-40 101v139z" />
<glyph unicode="&#x436;" horiz-adv-x="1259" d="M719 559h-33v350q0 35 -21.5 52.5t-48.5 17.5q-31 0 -50 -18.5t-19 -51.5v-350h-33l-260 389q-20 33 -55 33q-29 0 -51.5 -20.5t-22.5 -49.5q0 -20 12 -41l254 -381l-254 -380q-12 -18 -12 -39q0 -29 22.5 -50.5t49.5 -21.5q37 0 57 33l260 389h33v-350q0 -33 20.5 -51.5 t48.5 -18.5q31 0 50.5 17.5t19.5 52.5v350h33l258 -389q20 -33 55 -33q31 0 53.5 21.5t22.5 48.5q0 25 -12 41l-254 380l254 381q12 20 12 39q0 31 -22.5 51.5t-51.5 20.5q-35 0 -57 -33z" />
<glyph unicode="&#x437;" horiz-adv-x="909" d="M508 420q57 -6 92 -47q31 -37 31 -92q0 -57 -37 -99.5t-105 -42.5h-69q-96 0 -168 58q-23 16 -43 16q-29 0 -49.5 -22.5t-20.5 -51.5q0 -33 29 -55q109 -84 252 -84h69q133 0 211 86q70 78 70 193q0 59 -22.5 115.5t-65.5 94.5q88 82 88 211q0 117 -70 193 q-78 86 -211 86h-69q-143 0 -252 -84q-29 -23 -29 -53q0 -31 20.5 -52.5t49.5 -21.5q20 0 43 16q74 55 168 56h69q70 0 107 -43q35 -41 35 -97q0 -57 -38 -99t-104 -42h-69q-33 0 -51.5 -20.5t-18.5 -49.5t18.5 -49t51.5 -20h88z" />
<glyph unicode="&#x438;" d="M840 70v839q0 35 -20.5 52.5t-49.5 17.5t-49.5 -18.5t-20.5 -51.5v-770h-280q-59 0 -99 41t-40 101v628q0 35 -21.5 52.5t-48.5 17.5q-31 0 -51.5 -18.5t-20.5 -51.5v-628q0 -119 82 -201q82 -80 199 -80h350q70 0 70 70z" />
<glyph unicode="&#x439;" d="M631 1260q33 0 51 21.5t18 47.5q0 31 -17 51.5t-52 20.5h-281q-35 0 -52 -21.5t-17 -50.5t18 -49t51 -20h281zM840 70v839q0 35 -20.5 52.5t-49.5 17.5t-49.5 -18.5t-20.5 -51.5v-770h-280q-59 0 -99 41t-40 101v628q0 35 -21.5 52.5t-48.5 17.5q-31 0 -51.5 -18.5 t-20.5 -51.5v-628q0 -119 82 -201q82 -80 199 -80h350q70 0 70 70z" />
<glyph unicode="&#x43a;" d="M422 459l280 -434q18 -27 52 -27q27 0 49 19.5t22 50.5q0 20 -16 47l-289 446l283 295q23 27 22 53q0 31 -21.5 53.5t-49.5 22.5q-25 0 -43 -22l-445 -465v411q0 35 -21.5 52.5t-47.5 17.5q-31 0 -50.5 -18.5t-19.5 -51.5v-839q0 -33 20.5 -51.5t49.5 -18.5q31 0 50 17.5 t19 52.5v225z" />
<glyph unicode="&#x43b;" d="M840 70v839q0 70 -70 70h-281q-51 0 -67 -47l-277 -840q-4 -16 -4 -24q0 -31 21.5 -49.5t50.5 -18.5q20 0 37.5 12.5t25.5 34.5l263 793h161v-770q0 -33 20.5 -51.5t49.5 -18.5q31 0 50.5 17.5t19.5 52.5z" />
<glyph unicode="&#x43c;" horiz-adv-x="1120" d="M979 70q0 -33 -20.5 -51.5t-49.5 -18.5q-31 0 -50 17.5t-19 52.5v622l-224 -313q-29 -37 -57 -37q-31 0 -57 37l-221 313v-622q0 -33 -21.5 -51.5t-48.5 -18.5q-33 0 -52.5 17.5t-19.5 52.5v839q0 39 17.5 60.5t44.5 21.5q39 0 67 -41l291 -409l293 409q31 41 66 41 q27 0 44 -21.5t17 -60.5v-839z" />
<glyph unicode="&#x43d;" d="M700 559h-419v350q0 35 -21.5 52.5t-48.5 17.5q-31 0 -51.5 -18.5t-20.5 -51.5v-839q0 -33 21.5 -51.5t50.5 -18.5q31 0 50.5 17.5t19.5 52.5v350h419v-350q0 -33 20.5 -51.5t49.5 -18.5q31 0 50.5 17.5t19.5 52.5v839q0 35 -20.5 52.5t-49.5 17.5t-49.5 -18.5 t-20.5 -51.5v-350z" />
<glyph unicode="&#x43e;" d="M840 307v365q0 127 -90.5 217t-217.5 90h-83q-125 0 -220 -90q-90 -90 -90 -217v-365q0 -129 90 -219q90 -88 220 -88h83q129 0 218 88q90 90 90 219zM700 307q0 -70 -49 -119t-119 -49h-83q-70 0 -119 49.5t-49 118.5v365q0 70 49 119t119 49h83q70 0 119 -49.5 t49 -118.5v-365z" />
<glyph unicode="&#x43f;" d="M840 70v630q0 117 -84 197q-82 82 -197 82h-348q-72 0 -72 -70v-839q0 -33 21.5 -51.5t50.5 -18.5q31 0 50.5 17.5t19.5 52.5v770h278q59 0 100 -41t41 -99v-630q0 -33 20.5 -51.5t49.5 -18.5q31 0 50.5 17.5t19.5 52.5z" />
<glyph unicode="&#x440;" d="M281 139v701h278q59 0 100 -41t41 -99v-419q0 -59 -41 -100.5t-100 -41.5h-278zM281 0h278q119 0 199 80q82 82 82 201v419q0 117 -82 199q-80 80 -199 80h-348q-72 0 -72 -70v-1259q0 -33 21.5 -51.5t50.5 -18.5q31 0 50.5 17.5t19.5 52.5v350z" />
<glyph unicode="&#x441;" horiz-adv-x="839" d="M631 0q33 0 51 21.5t18 48.5q0 31 -17 50t-52 19h-211q-59 0 -99 41t-40 101v419q0 57 39.5 98.5t99.5 41.5h211q33 0 51 21.5t18 47.5q0 31 -17 50.5t-52 19.5h-211q-117 0 -199 -82t-82 -197v-419q0 -119 82 -201q82 -80 199 -80h211z" />
<glyph unicode="&#x442;" horiz-adv-x="1259" d="M559 840v-770q0 -33 21.5 -51.5t50.5 -18.5q31 0 50 17.5t19 52.5v770h140q59 0 99 -41t40 -99v-630q0 -33 21.5 -51.5t50.5 -18.5q31 0 50 17.5t19 52.5v630q0 117 -82 199q-80 80 -198 80h-629q-72 0 -72 -70v-839q0 -33 21.5 -51.5t50.5 -18.5q31 0 50.5 17.5 t19.5 52.5v770h278z" />
<glyph unicode="&#x443;" d="M700 0v-139q0 -59 -41 -100.5t-100 -41.5h-278q-35 0 -52.5 -20.5t-17.5 -48.5q0 -29 18.5 -49.5t51.5 -20.5h278q119 0 201 82q80 80 80 199v1048q0 35 -20.5 52.5t-49.5 17.5t-49.5 -18.5t-20.5 -51.5v-770h-280q-59 0 -99 41t-40 101v628q0 35 -21.5 52.5t-48.5 17.5 q-31 0 -51.5 -18.5t-20.5 -51.5v-628q0 -119 82 -201q82 -80 199 -80h280z" />
<glyph unicode="&#x444;" horiz-adv-x="1259" d="M700 840q115 0 197 -82t82 -199v-139q0 -117 -82 -199q-80 -82 -197 -82v701zM559 139q-115 0 -196.5 82t-81.5 199v139q0 117 81.5 199t196.5 82v-701zM700 979v211q0 33 -21.5 51.5t-47.5 18.5q-31 0 -51.5 -18.5t-20.5 -51.5v-211q-174 0 -297 -123 q-123 -121 -123 -297v-139q0 -174 123 -297t297 -123v-350q0 -33 21.5 -51.5t50.5 -18.5q31 0 50 17.5t19 52.5v350q174 0 297 123t123 297v139q0 178 -123 299q-121 121 -297 121z" />
<glyph unicode="&#x445;" d="M575 489l254 381q12 20 13 39q0 31 -22.5 51.5t-51.5 20.5q-37 0 -57 -33l-222 -332l-221 332q-23 31 -55 31q-29 0 -51.5 -19.5t-22.5 -48.5q0 -8 2 -19t11 -22l254 -381l-254 -380q-12 -18 -13 -39q0 -29 22.5 -50.5t49.5 -21.5q37 0 57 33l221 331l222 -331 q20 -31 57 -31q29 0 51.5 19.5t22.5 48.5q0 25 -13 41z" />
<glyph unicode="&#x446;" horiz-adv-x="1120" d="M700 139h-280q-59 0 -99 41t-40 101v628q0 35 -21.5 52.5t-48.5 17.5q-31 0 -51.5 -18.5t-20.5 -51.5v-628q0 -119 82 -201q82 -80 199 -80h420v-55q0 -35 21.5 -53.5t47.5 -18.5q31 0 50.5 18.5t19.5 53.5v125q0 70 -70 69h-69v770q0 35 -20.5 52.5t-49.5 17.5 t-49.5 -18.5t-20.5 -51.5v-770z" />
<glyph unicode="&#x447;" d="M700 559h-280q-59 0 -99 41t-40 100v209q0 35 -21.5 52.5t-48.5 17.5q-31 0 -51.5 -18.5t-20.5 -51.5v-209q0 -119 82 -200q82 -80 199 -80h280v-350q0 -33 20.5 -51.5t49.5 -18.5q31 0 50.5 17.5t19.5 52.5v839q0 35 -20.5 52.5t-49.5 17.5t-49.5 -18.5t-20.5 -51.5 v-350z" />
<glyph unicode="&#x448;" horiz-adv-x="1259" d="M700 139v770q0 35 -21.5 52.5t-47.5 17.5q-31 0 -51.5 -18.5t-20.5 -51.5v-770h-139q-59 0 -99 41t-40 101v628q0 35 -21.5 52.5t-48.5 17.5q-31 0 -51.5 -18.5t-20.5 -51.5v-628q0 -119 82 -201q82 -80 199 -80h631q70 0 69 70v839q0 35 -21.5 52.5t-47.5 17.5 q-31 0 -51.5 -18.5t-20.5 -51.5v-770h-279z" />
<glyph unicode="&#x449;" horiz-adv-x="1400" d="M700 139v770q0 35 -21.5 52.5t-47.5 17.5q-31 0 -51.5 -18.5t-20.5 -51.5v-770h-139q-59 0 -99 41t-40 101v628q0 35 -21.5 52.5t-48.5 17.5q-31 0 -51.5 -18.5t-20.5 -51.5v-628q0 -119 82 -201q82 -80 199 -80h700v-70q0 -35 20.5 -52t49.5 -17q31 0 50.5 17.5 t19.5 51.5v140q0 70 -70 69h-70v770q0 35 -21.5 52.5t-47.5 17.5q-31 0 -51.5 -18.5t-20.5 -51.5v-770h-279z" />
<glyph unicode="&#x44a;" horiz-adv-x="1050" d="M350 420h281q66 0 106 -43q33 -39 33 -96t-37 -99.5t-102 -42.5h-281v281zM350 559v350q0 70 -69 70h-142q-33 0 -51 -20.5t-18 -49.5t19.5 -49t49.5 -20h72v-770q0 -70 70 -70h350q135 0 211 88q68 76 67 193q0 117 -69 192q-78 86 -209 86h-281z" />
<glyph unicode="&#x44b;" horiz-adv-x="1120" d="M979 70v839q0 35 -20.5 52.5t-49.5 17.5t-49 -18.5t-20 -51.5v-839q0 -33 21.5 -51.5t47.5 -18.5q31 0 50.5 17.5t19.5 52.5zM281 420h139q70 0 106 -43q33 -39 33 -96t-37 -99.5t-102 -42.5h-139v281zM281 559v350q0 35 -21.5 52.5t-48.5 17.5q-31 0 -51.5 -18.5 t-20.5 -51.5v-839q0 -70 72 -70h209q135 0 211 88q70 76 69 193q0 117 -69 192q-78 86 -211 86h-139z" />
<glyph unicode="&#x44c;" d="M281 420h278q70 0 107 -43q35 -41 34 -96q0 -57 -36.5 -99.5t-104.5 -42.5h-278v281zM281 559v350q0 35 -21.5 52.5t-48.5 17.5q-31 0 -51.5 -18.5t-20.5 -51.5v-839q0 -70 72 -70h348q133 0 213 88q68 76 68 193t-70 192q-78 86 -211 86h-278z" />
<glyph unicode="&#x44d;" d="M700 420v-139q0 -59 -41 -100.5t-100 -41.5h-348q-35 0 -53.5 -20.5t-18.5 -48.5q0 -29 19.5 -49.5t52.5 -20.5h348q119 0 199 80q82 82 82 201v419q0 117 -82 199q-80 80 -199 80h-348q-35 0 -53.5 -20.5t-18.5 -49.5t19.5 -49t52.5 -20h348q59 0 100 -41t41 -99v-141 h-211q-33 0 -51 -20.5t-18 -49.5t19.5 -49t49.5 -20h211z" />
<glyph unicode="&#x44e;" horiz-adv-x="1120" d="M840 238q0 -41 -28 -70t-71 -29h-84q-41 0 -69.5 29t-28.5 70v503q0 41 28.5 70t69.5 29h84q41 0 70 -29t29 -70v-503zM281 559v350q0 35 -21.5 52.5t-48.5 17.5q-31 0 -51.5 -18.5t-20.5 -51.5v-839q0 -33 21.5 -51.5t50.5 -18.5q31 0 50.5 17.5t19.5 52.5v350h139v-182 q0 -98 69.5 -168t167.5 -70h84q100 0 168 70q70 70 70 168v503q0 49 -18.5 93.5t-50 76t-75.5 50t-94 18.5h-84q-98 0 -168 -70q-70 -68 -69 -168v-182h-139z" />
<glyph unicode="&#x44f;" d="M700 559h-280q-68 0 -103.5 42t-35.5 99t36.5 98.5t102.5 41.5h280v-281zM528 420h172v-350q0 -33 20.5 -51.5t49.5 -18.5q31 0 50.5 17.5t19.5 52.5v839q0 70 -70 70h-350q-133 0 -209 -88q-72 -78 -72 -191q0 -100 58.5 -179t162.5 -97l-208 -315q-12 -18 -13 -39 q0 -29 22.5 -50.5t49.5 -21.5q37 0 57 33z" />
<glyph unicode="&#x451;" d="M281 559v141q0 57 39.5 98.5t99.5 41.5h139q59 0 100 -41t41 -99v-141h-419zM281 420h489q70 0 70 69v211q0 117 -82 199q-80 80 -199 80h-139q-117 0 -199 -82q-82 -80 -82 -197v-419q0 -119 82 -201q82 -80 199 -80h350q33 0 51.5 21.5t18.5 48.5q0 31 -17.5 50 t-52.5 19h-350q-59 0 -99 41t-40 101v139zM211 1329q0 -31 20.5 -51.5t51.5 -20.5t52 20.5t21 51.5t-21.5 52.5t-51.5 21.5q-31 0 -51.5 -21.5t-20.5 -52.5zM631 1329q0 -29 19.5 -49t49.5 -20q29 0 49.5 20t20.5 49q0 31 -20.5 51.5t-49.5 20.5q-31 0 -50 -20.5t-19 -51.5z " />
<glyph unicode="&#x455;" d="M797 903q39 -20 39 -61q0 -29 -19.5 -51.5t-48.5 -22.5q-16 0 -33 8q-121 61 -237 62q-117 0 -197 -56q-20 -14 -20 -41t20 -39l447 -292q45 -29 65.5 -74t20.5 -92q0 -49 -21.5 -92t-62.5 -70q-121 -80 -275 -80q-152 0 -289 76q-39 20 -39 59q0 29 20.5 51.5t49.5 22.5 q16 0 37 -10q109 -59 221 -60q111 0 195 58q25 14 24 47q0 31 -24 47l-447 293q-39 27 -57.5 68.5t-18.5 88.5q0 45 20.5 88t55.5 66q113 80 275 80q152 0 299 -74z" />
<glyph unicode="&#x456;" horiz-adv-x="419" d="M281 70v839q0 35 -21.5 52.5t-48.5 17.5q-31 0 -51.5 -18.5t-20.5 -51.5v-839q0 -33 21.5 -51.5t50.5 -18.5q31 0 50.5 17.5t19.5 52.5zM139 1329q0 -29 20.5 -49t51.5 -20q29 0 49.5 20t20.5 49q0 31 -20.5 51.5t-49.5 20.5q-31 0 -51.5 -20.5t-20.5 -51.5z" />
<glyph unicode="&#x458;" horiz-adv-x="419" d="M281 -139v1048q0 35 -21.5 52.5t-48.5 17.5q-31 0 -51.5 -18.5t-20.5 -51.5v-1048q0 -59 -40 -100.5t-99 -41.5h-70q-35 0 -52 -20.5t-17 -48.5q0 -29 18.5 -49.5t50.5 -20.5h70q117 0 199 82q82 80 82 199zM139 1329q0 -29 20.5 -49t51.5 -20q29 0 49.5 20t20.5 49 q0 31 -20.5 51.5t-49.5 20.5q-31 0 -51.5 -20.5t-20.5 -51.5z" />
<glyph unicode="&#x2000;" horiz-adv-x="910" />
<glyph unicode="&#x2001;" horiz-adv-x="1821" />
<glyph unicode="&#x2002;" horiz-adv-x="910" />
<glyph unicode="&#x2003;" horiz-adv-x="1821" />
<glyph unicode="&#x2004;" horiz-adv-x="607" />
<glyph unicode="&#x2005;" horiz-adv-x="455" />
<glyph unicode="&#x2006;" horiz-adv-x="303" />
<glyph unicode="&#x2007;" horiz-adv-x="303" />
<glyph unicode="&#x2008;" horiz-adv-x="227" />
<glyph unicode="&#x2009;" horiz-adv-x="364" />
<glyph unicode="&#x200a;" horiz-adv-x="101" />
<glyph unicode="&#x2010;" d="M770 420q33 0 51.5 21.5t18.5 47.5q0 31 -17.5 50.5t-52.5 19.5h-559q-35 0 -53.5 -20.5t-18.5 -49.5t19.5 -49t52.5 -20h559z" />
<glyph unicode="&#x2011;" d="M770 420q33 0 51.5 21.5t18.5 47.5q0 31 -17.5 50.5t-52.5 19.5h-559q-35 0 -53.5 -20.5t-18.5 -49.5t19.5 -49t52.5 -20h559z" />
<glyph unicode="&#x2012;" d="M770 420q33 0 51.5 21.5t18.5 47.5q0 31 -17.5 50.5t-52.5 19.5h-559q-35 0 -53.5 -20.5t-18.5 -49.5t19.5 -49t52.5 -20h559z" />
<glyph unicode="&#x2013;" d="M770 420q33 0 51.5 21.5t18.5 47.5q0 31 -17.5 50.5t-52.5 19.5h-559q-35 0 -53.5 -20.5t-18.5 -49.5t19.5 -49t52.5 -20h559z" />
<glyph unicode="&#x2014;" d="M770 420q33 0 51.5 21.5t18.5 47.5q0 31 -17.5 50.5t-52.5 19.5h-559q-35 0 -53.5 -20.5t-18.5 -49.5t19.5 -49t52.5 -20h559z" />
<glyph unicode="&#x201e;" horiz-adv-x="700" d="M557 53q2 6 2 19q0 29 -21.5 48t-48.5 19q-23 0 -44 -12t-25 -41l-68 -279q-2 -6 -2 -18q0 -29 21.5 -47t50.5 -18q23 0 41 13t24 38zM276 53q4 12 5 19q0 29 -21.5 48t-50.5 19q-23 0 -41 -13t-25 -40l-69 -279q-4 -12 -4 -18q0 -29 21.5 -47t49.5 -18q23 0 41.5 12 t24.5 39z" />
<glyph unicode="&#x2022;" d="M489 588l-231 231q-20 20 -47 21q-29 0 -50.5 -20.5t-21.5 -51.5q0 -25 23 -47l229 -232l-229 -231q-23 -23 -23 -47q0 -29 21.5 -50.5t50.5 -21.5q25 0 47 23l231 229l232 -229q23 -23 47 -23q31 0 51.5 21.5t20.5 50.5q0 27 -21 47l-231 231l231 232q20 20 21 47 q0 31 -20.5 51.5t-51.5 20.5q-27 0 -47 -21z" />
<glyph unicode="&#x2026;" horiz-adv-x="1540" d="M440 111q0 -53 -31.5 -83t-76.5 -30q-47 0 -79 29.5t-32 83.5q0 53 33 81.5t78 28.5t76.5 -29.5t31.5 -80.5zM883 111q0 -53 -33 -83t-78 -30t-77.5 29.5t-32.5 83.5q0 53 32.5 81.5t77.5 28.5t78 -29.5t33 -80.5zM1323 111q0 -53 -33 -83t-76 -30q-47 0 -78.5 29.5 t-31.5 83.5q0 53 32.5 81.5t77.5 28.5q43 0 76 -29.5t33 -80.5z" />
<glyph unicode="&#x202f;" horiz-adv-x="364" />
<glyph unicode="&#x2030;" horiz-adv-x="2938" d="M1960 322q0 154 -100 241q-90 80 -222 80q-133 0 -221 -80q-100 -88 -100 -241q0 -154 100 -242q88 -80 221 -80q131 0 222 80q100 88 100 242zM1528 1290q14 20 14 39q0 31 -22.5 51.5t-51.5 20.5q-39 0 -57 -33l-840 -1259q-12 -18 -12 -39q0 -29 22.5 -50.5 t49.5 -21.5q37 0 57 33zM784 1077q0 156 -100 244q-90 80 -221 80q-133 0 -221 -82q-102 -90 -103 -242q0 -152 103 -241q88 -80 221 -80q131 0 221 80q100 87 100 241zM1821 322q0 -86 -58 -138q-51 -45 -125 -45t-127 47q-55 51 -55 136q0 88 57 137q47 45 125 45 q74 0 128.5 -48t54.5 -134zM643 1077q0 -86 -57 -137q-47 -45 -123 -45q-74 0 -127 47q-55 51 -55 135q0 88 57 137q47 45 125 46q74 0 127 -48.5t53 -134.5zM2800 322q0 154 -101 241q-90 80 -221 80q-133 0 -221 -80q-100 -88 -100 -241q0 -154 100 -242q88 -80 221 -80 q131 0 221 80q101 88 101 242zM2660 322q0 -86 -57 -138q-51 -45 -125 -45t-127 47q-55 51 -55 136q0 88 57 137q51 45 125 45t128 -48t54 -134z" />
<glyph unicode="&#x205f;" horiz-adv-x="455" />
<glyph unicode="&#x2116;" horiz-adv-x="1679" d="M1540 909v281q0 98 -65 158q-57 51 -146 51q-86 0 -143 -51q-66 -59 -66 -158v-281q0 -98 66 -157q57 -51 143 -52q82 0 146 54q65 59 65 155zM979 70v1259q0 35 -20.5 53.5t-49.5 18.5t-49 -19.5t-20 -52.5v-989l-568 1024q-23 37 -61 37q-31 0 -51.5 -19.5t-20.5 -52.5 v-1259q0 -33 21.5 -51.5t50.5 -18.5q31 0 50.5 17.5t19.5 52.5v989l567 -1022q20 -39 63 -39q29 0 48.5 19.5t19.5 52.5zM1401 909q0 -33 -21.5 -51t-50.5 -18q-31 0 -50 17t-19 52v281q0 33 21.5 50t47.5 17q31 0 51.5 -17t20.5 -50v-281z" />
<glyph unicode="&#x2212;" d="M770 420q33 0 51.5 21.5t18.5 47.5q0 31 -17.5 50.5t-52.5 19.5h-559q-35 0 -53.5 -20.5t-18.5 -49.5t19.5 -49t52.5 -20h559z" />
<glyph unicode="&#x2219;" horiz-adv-x="419" d="M139 700q0 -31 20.5 -50t51.5 -19q29 0 49.5 19.5t20.5 49.5q0 29 -20.5 49.5t-49.5 20.5q-31 0 -51.5 -20.5t-20.5 -49.5z" />
<glyph unicode="&#xe000;" horiz-adv-x="983" d="M0 983h983v-983h-983v983z" />
<glyph horiz-adv-x="1259" d="M385 352h508l100 -303q8 -31 35 -43q20 -4 31 -4q27 0 49 18.5t22 47.5q0 10 -4 26l-421 1260q-18 59 -66 59q-43 0 -66 -59l-419 -1260q-6 -12 -7 -26q0 -29 23 -47.5t49 -18.5q51 0 66 47zM846 494h-414l207 618z" />
<glyph horiz-adv-x="1120" d="M281 700h419q57 0 98.5 -41t41.5 -100v-278q0 -59 -41 -100.5t-99 -41.5h-419v561zM281 840v420h489q33 0 51.5 21.5t18.5 47.5q0 31 -17.5 51.5t-52.5 20.5h-559q-72 0 -72 -72v-1259q0 -70 72 -70h489q117 0 197 80q82 82 82 201v278q0 119 -82 201q-80 80 -197 80 h-419z" />
<glyph horiz-adv-x="1120" d="M846 799q63 76 63 180v141q0 117 -82 199q-80 82 -196 82h-420q-72 0 -72 -72v-1259q0 -70 72 -70h489q117 0 197 80q82 82 82 201v278q0 78 -35 140.5t-98 99.5zM281 700h419q57 0 98.5 -41t41.5 -100v-278q0 -59 -41 -100.5t-99 -41.5h-419v561zM631 840h-350v420h350 q57 0 98 -40t41 -100v-141q0 -57 -41 -98t-98 -41z" />
<glyph d="M770 1260q33 0 51.5 21.5t18.5 47.5q0 31 -17.5 51.5t-52.5 20.5h-559q-72 0 -72 -72v-1259q0 -33 21.5 -51.5t50.5 -18.5q31 0 50.5 17.5t19.5 52.5v1190h489z" />
<glyph horiz-adv-x="1259" d="M287 139h-76q-72 0 -72 -69v-140q0 -35 21.5 -52t50.5 -17q31 0 50.5 17.5t19.5 51.5v70h698v-70q0 -35 21.5 -52t50.5 -17q31 0 50 17.5t19 51.5v140q0 70 -69 69h-72v1190q0 72 -70 72h-420q-63 0 -69 -64zM840 139h-414l127 1121h287v-1121z" />
<glyph d="M281 840v420h491q33 0 51.5 21.5t18.5 47.5q0 31 -17.5 51.5t-52.5 20.5h-561q-72 0 -72 -72v-1263q0 -66 72 -66h561q33 0 51.5 21.5t18.5 48.5q0 31 -17.5 50t-52.5 19h-491v561h350q35 0 52 20.5t17 49.5q0 31 -17 50.5t-52 19.5h-350z" />
<glyph horiz-adv-x="1400" d="M770 852v477q0 35 -21.5 53.5t-48.5 18.5q-31 0 -50 -19.5t-19 -52.5v-477l-363 518q-23 31 -57 31q-27 0 -49.5 -20.5t-22.5 -49.5q0 -25 15 -41l366 -524l-373 -662q-8 -16 -8 -36q0 -29 22.5 -48.5t49.5 -19.5q39 0 61 37l359 639v-606q0 -33 20.5 -51.5t48.5 -18.5 q31 0 50.5 17.5t19.5 52.5v606l358 -639q20 -37 60 -37q29 0 51.5 19.5t22.5 48.5q0 16 -11 36l-370 662l366 524q14 16 15 39q0 31 -22.5 51.5t-51.5 20.5q-14 0 -29.5 -7.5t-25.5 -23.5z" />
<glyph d="M559 700q72 0 109 -43q33 -35 32 -98v-278q0 -59 -41 -100.5t-100 -41.5h-139q-47 0 -82 27q-37 31 -51 72q-16 47 -64 47q-31 0 -52 -18.5t-21 -49.5q0 -8 4 -24q29 -86 101.5 -139.5t164.5 -53.5h139q119 0 199 80q82 82 82 201v278q0 129 -95 211q45 39 70 93.5 t25 115.5v141q0 117 -82 199q-80 82 -199 82h-139q-92 0 -165 -53.5t-101 -139.5q-4 -16 -4 -24q0 -31 22.5 -50.5t50.5 -19.5q20 0 39 13.5t27 35.5q14 43 50 70t81 27h139q59 0 100 -40t41 -100v-141q0 -57 -41 -98t-100 -41h-209q-35 0 -52 -20.5t-17 -49.5t18 -49.5 t51 -20.5h209z" />
<glyph horiz-adv-x="1120" d="M979 70v1259q0 39 -18.5 60.5t-45.5 21.5q-18 0 -36.5 -12.5t-30.5 -34.5l-567 -1024v989q0 35 -21.5 53.5t-48.5 18.5q-31 0 -51.5 -19.5t-20.5 -52.5v-1259q0 -37 19.5 -58.5t46.5 -21.5q39 0 67 47l568 1022v-989q0 -33 21.5 -51.5t47.5 -18.5q31 0 50.5 17.5 t19.5 52.5z" />
<glyph horiz-adv-x="1120" d="M700 1540q33 0 51.5 20.5t18.5 49.5q0 31 -17.5 50t-52.5 19h-280q-33 0 -51.5 -20.5t-18.5 -48.5q0 -29 18.5 -49.5t51.5 -20.5h280zM979 70v1259q0 39 -18.5 60.5t-45.5 21.5q-18 0 -36.5 -12.5t-30.5 -34.5l-567 -1024v989q0 35 -21.5 53.5t-48.5 18.5 q-31 0 -51.5 -19.5t-20.5 -52.5v-1259q0 -37 19.5 -58.5t46.5 -21.5q39 0 67 47l568 1022v-989q0 -33 21.5 -51.5t47.5 -18.5q31 0 50.5 17.5t19.5 52.5z" />
<glyph horiz-adv-x="1120" d="M281 795v534q0 33 -21.5 51.5t-48.5 18.5q-29 0 -50.5 -18.5t-21.5 -51.5v-1259q0 -33 21.5 -51.5t50.5 -18.5q31 0 50.5 17.5t19.5 52.5v534l165 164l410 -731q20 -39 59 -39q29 0 51.5 19.5t22.5 50.5q0 16 -10 36l-428 760l416 416q23 23 22 49q0 29 -21.5 50.5 t-49.5 21.5q-27 0 -50 -23z" />
<glyph horiz-adv-x="1120" d="M979 70v1259q0 72 -70 72h-350q-49 0 -65 -53l-351 -1260q-4 -8 -4 -20q0 -31 21.5 -49.5t50.5 -18.5q23 0 41 12.5t22 38.5l338 1209h228v-1190q0 -33 21.5 -51.5t47.5 -18.5q31 0 50.5 17.5t19.5 52.5z" />
<glyph horiz-adv-x="1259" d="M1122 70v1253q0 37 -19.5 59.5t-43.5 22.5q-41 0 -68 -45l-360 -602l-361 602q-27 45 -65 45q-27 0 -46.5 -22.5t-19.5 -59.5v-1253q0 -33 21.5 -51.5t50.5 -18.5q31 0 50.5 17.5t19.5 52.5v999l290 -483q27 -45 60 -45q35 0 61 45l289 483v-999q0 -33 21.5 -51.5 t48.5 -18.5q31 0 51 17.5t20 52.5z" />
<glyph horiz-adv-x="1120" d="M840 840h-559v489q0 35 -21.5 53.5t-48.5 18.5q-31 0 -51.5 -19.5t-20.5 -52.5v-1259q0 -33 21.5 -51.5t50.5 -18.5q31 0 50.5 17.5t19.5 52.5v630h559v-630q0 -33 20.5 -50.5t48.5 -17.5q27 0 48.5 18.5t21.5 53.5v1259q0 33 -20.5 51.5t-49.5 18.5t-49 -19.5t-20 -50.5 v-493z" />
<glyph horiz-adv-x="1232" d="M979 281v839q0 117 -82 199q-80 82 -197 82h-280q-117 0 -199 -82t-82 -199v-839q0 -119 82 -201q82 -80 199 -80h280q117 0 197 80q82 82 82 201zM840 281q0 -59 -41 -100.5t-99 -41.5h-280q-59 0 -99 41t-40 101v839q0 59 39.5 99.5t99.5 40.5h280q57 0 98.5 -40 t41.5 -100v-839z" />
<glyph horiz-adv-x="1120" d="M979 70v1259q0 72 -70 72h-698q-72 0 -72 -72v-1259q0 -33 21.5 -51.5t50.5 -18.5q31 0 50.5 17.5t19.5 52.5v1190h559v-1190q0 -33 21.5 -51.5t47.5 -18.5q31 0 50.5 17.5t19.5 52.5z" />
<glyph horiz-adv-x="1120" d="M281 700v560h419q57 0 98.5 -40t41.5 -100v-280q0 -59 -41 -99.5t-99 -40.5h-419zM281 559h419q117 0 197 82q82 82 82 199v280q0 117 -82 199q-80 82 -197 82h-489q-72 0 -72 -72v-1259q0 -33 21.5 -51.5t50.5 -18.5q31 0 50.5 17.5t19.5 52.5v489z" />
<glyph d="M770 0q33 0 51.5 21.5t18.5 48.5q0 31 -17.5 50t-52.5 19h-350q-59 0 -99 41t-40 101v839q0 59 39.5 99.5t99.5 40.5h350q33 0 51.5 21.5t18.5 47.5q0 31 -17.5 51.5t-52.5 20.5h-350q-117 0 -199 -82t-82 -199v-839q0 -119 82 -201q82 -80 199 -80h350z" />
<glyph horiz-adv-x="1120" d="M489 1260v-1190q0 -33 21.5 -51.5t48.5 -18.5q31 0 51.5 17.5t20.5 52.5v1190h278q35 0 52.5 21.5t17.5 47.5q0 31 -17.5 51.5t-52.5 20.5h-698q-35 0 -53.5 -21.5t-18.5 -50.5t19.5 -49t52.5 -20h278z" />
<glyph horiz-adv-x="1120" d="M840 559v-278q0 -59 -41 -100.5t-99 -41.5h-350q-35 0 -52 -20.5t-17 -48.5q0 -29 18 -49.5t51 -20.5h350q117 0 197 80q82 82 82 201v1048q0 35 -20.5 53.5t-49.5 18.5t-49 -19.5t-20 -52.5v-629h-420q-59 0 -99 40t-40 100v489q0 35 -21.5 53.5t-48.5 18.5 q-31 0 -51.5 -19.5t-20.5 -52.5v-489q0 -117 82 -199t199 -82h420z" />
<glyph horiz-adv-x="1400" d="M770 1051h70q117 0 198.5 -82t81.5 -199v-70q0 -117 -82 -198.5t-198 -81.5h-70v631zM631 420h-72q-115 0 -196.5 82t-81.5 198v70q0 117 81.5 199t196.5 82h72v-631zM631 281v-211q0 -33 20.5 -51.5t48.5 -18.5q31 0 50.5 17.5t19.5 52.5v211h70q176 0 297 120 q123 123 123 299v70q0 174 -123 297q-121 123 -297 123h-70v139q0 35 -21.5 53.5t-48.5 18.5q-31 0 -50 -19.5t-19 -52.5v-139h-72q-174 0 -297 -123t-123 -297v-70q0 -176 123 -299q125 -121 297 -120h72z" />
<glyph horiz-adv-x="1259" d="M631 827l-363 541q-20 33 -55 33q-29 0 -51.5 -20.5t-22.5 -49.5q0 -8 2 -19.5t11 -21.5l393 -590l-393 -591q-12 -18 -13 -39q0 -29 22.5 -50.5t49.5 -21.5q37 0 57 33l363 542l360 -542q20 -33 56 -33q31 0 53 21.5t22 48.5t-14 41l-393 591l393 590q14 20 14 39 q0 31 -22.5 51.5t-50.5 20.5q-39 0 -58 -33z" />
<glyph horiz-adv-x="1259" d="M840 139h-559v1190q0 35 -21.5 53.5t-48.5 18.5q-31 0 -51.5 -19.5t-20.5 -52.5v-1259q0 -70 72 -70h768v-139q0 -35 21.5 -53.5t50.5 -18.5q31 0 50 18.5t19 53.5v209q0 70 -69 69h-72v1190q0 35 -20.5 53.5t-49.5 18.5t-49 -19.5t-20 -52.5v-1190z" />
<glyph horiz-adv-x="1120" d="M840 700h-420q-59 0 -99 40t-40 100v489q0 35 -21.5 53.5t-48.5 18.5q-31 0 -51.5 -19.5t-20.5 -52.5v-489q0 -117 82 -199t199 -82h420v-489q0 -33 21.5 -51.5t47.5 -18.5q31 0 50.5 17.5t19.5 52.5v1259q0 35 -20.5 53.5t-49.5 18.5t-49 -19.5t-20 -52.5v-629z" />
<glyph horiz-adv-x="1400" d="M770 139v1190q0 35 -21.5 53.5t-48.5 18.5q-31 0 -50 -19.5t-19 -52.5v-1190h-350v1190q0 35 -21.5 53.5t-48.5 18.5q-31 0 -51.5 -19.5t-20.5 -52.5v-1259q0 -70 72 -70h979q70 0 70 70v1259q0 35 -20.5 53.5t-49.5 18.5t-49.5 -19.5t-20.5 -52.5v-1190h-350z" />
<glyph horiz-adv-x="1540" d="M1260 0v-139q0 -35 21.5 -53.5t47.5 -18.5q31 0 51.5 18.5t20.5 53.5v209q0 70 -72 69h-69v1190q0 35 -20.5 53.5t-49.5 18.5t-49.5 -19.5t-20.5 -52.5v-1190h-350v1190q0 35 -21.5 53.5t-48.5 18.5q-31 0 -50 -19.5t-19 -52.5v-1190h-350v1190q0 35 -21.5 53.5 t-48.5 18.5q-31 0 -51.5 -19.5t-20.5 -52.5v-1259q0 -70 72 -70h1049z" />
<glyph horiz-adv-x="1400" d="M559 700h420q59 0 100 -41t41 -100v-278q0 -59 -41 -100.5t-100 -41.5h-420v561zM559 840v489q0 72 -70 72h-278q-35 0 -53.5 -21.5t-18.5 -50.5t19.5 -49t52.5 -20h209v-1190q0 -70 69 -70h490q119 0 199 80q82 82 82 201v278q0 119 -82 201q-80 80 -199 80h-420z" />
<glyph horiz-adv-x="1259" d="M1120 70v1259q0 35 -21.5 53.5t-47.5 18.5q-31 0 -51.5 -19.5t-20.5 -52.5v-1259q0 -33 21.5 -51.5t50.5 -18.5q31 0 50 17.5t19 52.5zM281 700h278q59 0 100 -41t41 -100v-278q0 -59 -41 -100.5t-100 -41.5h-278v561zM281 840v489q0 35 -21.5 53.5t-48.5 18.5 q-31 0 -51.5 -19.5t-20.5 -52.5v-1259q0 -70 72 -70h348q119 0 199 80q82 82 82 201v278q0 119 -82 201q-80 80 -199 80h-278z" />
<glyph horiz-adv-x="1120" d="M281 700v-561h419q57 0 98.5 41t41.5 101v278q0 59 -41 100t-99 41h-419zM281 840h419q117 0 199 -82q80 -80 80 -199v-278q0 -119 -82 -201q-80 -80 -197 -80h-489q-72 0 -72 70v1259q0 35 21.5 53.5t50.5 18.5t49.5 -19.5t20.5 -52.5v-489z" />
<glyph horiz-adv-x="1120" d="M840 700v-419q0 -59 -41 -100.5t-99 -41.5h-489q-35 0 -53.5 -20.5t-18.5 -48.5q0 -29 19.5 -49.5t52.5 -20.5h489q117 0 197 80q82 82 82 201v839q0 117 -82 199q-80 82 -197 82h-489q-35 0 -53.5 -21.5t-18.5 -50.5t19.5 -49t52.5 -20h489q57 0 98.5 -40t41.5 -100 v-280h-351q-33 0 -51 -20.5t-18 -49.5t19.5 -49.5t49.5 -20.5h351z" />
<glyph horiz-adv-x="1259" d="M979 281q0 -59 -40 -100.5t-99 -41.5h-140q-59 0 -100 41t-41 101v839q0 59 41 99.5t100 40.5h140q59 0 99 -40t40 -100v-839zM281 840v489q0 35 -21.5 53.5t-48.5 18.5q-31 0 -51.5 -19.5t-20.5 -52.5v-1259q0 -33 21.5 -51.5t50.5 -18.5q31 0 50.5 17.5t19.5 52.5v630 h139v-419q0 -119 82 -201q80 -80 198 -80h140q119 0 198 80q82 82 82 201v839q0 117 -82 199q-80 82 -198 82h-140q-119 0 -200 -82q-80 -84 -80 -199v-280h-139z" />
<glyph horiz-adv-x="1120" d="M840 700h-420q-59 0 -99 40t-40 100v280q0 59 39.5 99.5t99.5 40.5h420v-560zM600 559h240v-489q0 -33 21.5 -51.5t47.5 -18.5q31 0 50.5 17.5t19.5 52.5v1259q0 72 -70 72h-489q-117 0 -199 -82t-82 -199v-280q0 -117 82 -199t199 -82h14l-282 -450q-12 -18 -13 -39 q0 -29 22.5 -50.5t51.5 -21.5q33 0 55 35z" />
<glyph d="M700 281q0 -59 -41 -100.5t-100 -41.5h-139q-59 0 -99 41t-40 101v419q0 57 39.5 98.5t99.5 41.5h280v-559zM768 92q43 -55 115 -86q14 -8 28 -8q31 0 50.5 22.5t19.5 51.5q0 43 -45 61q-43 20 -69.5 60t-26.5 88v628q0 70 -70 70h-350q-117 0 -199 -82t-82 -197v-419 q0 -119 82 -201q82 -80 199 -80h139q61 0 116.5 25.5t92.5 66.5z" />
<glyph d="M700 281q0 -59 -41 -100.5t-100 -41.5h-139q-59 0 -99 41t-40 101v419q0 57 39.5 98.5t99.5 41.5h139q59 0 100 -41t41 -99v-419zM475 979h-55q-117 0 -199 -82t-82 -197v-419q0 -119 82 -201q82 -80 199 -80h139q119 0 199 80q82 82 82 201v419q0 104 -68 183l-16 22 l-371 355h385q33 0 51.5 21.5t18.5 47.5q0 31 -17.5 51.5t-52.5 20.5h-559q-39 0 -57.5 -18.5t-18.5 -45.5q0 -33 27 -57z" />
<glyph d="M700 281q0 -59 -41 -100.5t-100 -41.5h-139q-59 0 -99 41t-40 101v419q0 57 39.5 98.5t99.5 41.5h139q59 0 100 -41t41 -99v-419zM281 932v215q0 53 32.5 81.5t77.5 28.5t79 -28.5t34 -81.5q0 -35 -27 -68q-14 -18 -57 -51q-14 -10 -34.5 -25.5t-47.5 -33.5 q-10 -8 -24.5 -17.5t-32.5 -19.5zM559 975q45 31 64.5 70.5t19.5 103.5q0 117 -78 188q-70 63 -172 64q-104 0 -174 -64q-80 -72 -80 -190v-866q0 -119 82 -201q82 -80 199 -80h139q119 0 199 80q82 82 82 201v419q0 123 -70 195q-78 80 -211 80z" />
<glyph d="M803 63q39 20 39 60q0 31 -19.5 52.5t-50.5 21.5q-20 0 -35 -9q-51 -29 -105 -39t-124 -10q-37 0 -83 4t-77 9q-29 6 -46 27.5t-17 47.5q0 31 24 54l447 309q80 68 80 155v3q0 49 -25 91t-70 71.5t-106.5 46t-134.5 16.5h-25q-88 0 -173 -20.5t-134 -57.5 q-29 -23 -29 -53q0 -31 20.5 -52.5t49.5 -21.5q20 0 43 16q72 51 211 52q90 0 158 -21q72 -23 71 -74q0 -20 -22 -43l-447 -307q-39 -33 -57.5 -76t-18.5 -90q0 -78 46.5 -137t132.5 -72q39 -8 83 -13t97 -5q82 0 159 16t138 49z" />
<glyph d="M700 840v-559q0 -59 -41 -100.5t-100 -41.5h-139q-59 0 -99 41t-40 101v419q0 57 39.5 98.5t99.5 41.5h280zM700 979h-280q-117 0 -199 -82t-82 -197v-419q0 -119 82 -201q82 -80 199 -80h139q119 0 199 80q82 82 82 201v839q0 117 -82 199q-80 82 -199 82h-278 q-35 0 -52.5 -21.5t-17.5 -50.5t18.5 -49t51.5 -20h278q59 0 100 -40t41 -100v-141z" />
<glyph d="M281 559v141q0 57 39.5 98.5t99.5 41.5h139q59 0 100 -41t41 -99v-141h-419zM281 420h489q70 0 70 69v211q0 117 -82 199q-80 80 -199 80h-139q-117 0 -199 -82q-82 -80 -82 -197v-419q0 -119 82 -201q82 -80 199 -80h350q33 0 51.5 21.5t18.5 48.5q0 31 -17.5 50 t-52.5 19h-350q-59 0 -99 41t-40 101v139z" />
<glyph horiz-adv-x="1259" d="M719 559h-33v350q0 35 -21.5 52.5t-48.5 17.5q-31 0 -50 -18.5t-19 -51.5v-350h-33l-260 389q-20 33 -55 33q-29 0 -51.5 -20.5t-22.5 -49.5q0 -20 12 -41l254 -381l-254 -380q-12 -18 -12 -39q0 -29 22.5 -50.5t49.5 -21.5q37 0 57 33l260 389h33v-350q0 -33 20.5 -51.5 t48.5 -18.5q31 0 50.5 17.5t19.5 52.5v350h33l258 -389q20 -33 55 -33q31 0 53.5 21.5t22.5 48.5q0 25 -12 41l-254 380l254 381q12 20 12 39q0 31 -22.5 51.5t-51.5 20.5q-35 0 -57 -33z" />
<glyph horiz-adv-x="909" d="M508 420q57 -6 92 -47q31 -37 31 -92q0 -57 -37 -99.5t-105 -42.5h-69q-96 0 -168 58q-23 16 -43 16q-29 0 -49.5 -22.5t-20.5 -51.5q0 -33 29 -55q109 -84 252 -84h69q133 0 211 86q70 78 70 193q0 59 -22.5 115.5t-65.5 94.5q88 82 88 211q0 117 -70 193 q-78 86 -211 86h-69q-143 0 -252 -84q-29 -23 -29 -53q0 -31 20.5 -52.5t49.5 -21.5q20 0 43 16q74 55 168 56h69q70 0 107 -43q35 -41 35 -97q0 -57 -38 -99t-104 -42h-69q-33 0 -51.5 -20.5t-18.5 -49.5t18.5 -49t51.5 -20h88z" />
<glyph d="M840 70v839q0 35 -20.5 52.5t-49.5 17.5t-49.5 -18.5t-20.5 -51.5v-770h-280q-59 0 -99 41t-40 101v628q0 35 -21.5 52.5t-48.5 17.5q-31 0 -51.5 -18.5t-20.5 -51.5v-628q0 -119 82 -201q82 -80 199 -80h350q70 0 70 70z" />
<glyph d="M631 1260q33 0 51 21.5t18 47.5q0 31 -17 51.5t-52 20.5h-281q-35 0 -52 -21.5t-17 -50.5t18 -49t51 -20h281zM840 70v839q0 35 -20.5 52.5t-49.5 17.5t-49.5 -18.5t-20.5 -51.5v-770h-280q-59 0 -99 41t-40 101v628q0 35 -21.5 52.5t-48.5 17.5q-31 0 -51.5 -18.5 t-20.5 -51.5v-628q0 -119 82 -201q82 -80 199 -80h350q70 0 70 70z" />
<glyph d="M422 459l280 -434q18 -27 52 -27q27 0 49 19.5t22 50.5q0 20 -16 47l-289 446l283 295q23 27 22 53q0 31 -21.5 53.5t-49.5 22.5q-25 0 -43 -22l-445 -465v411q0 35 -21.5 52.5t-47.5 17.5q-31 0 -50.5 -18.5t-19.5 -51.5v-839q0 -33 20.5 -51.5t49.5 -18.5q31 0 50 17.5 t19 52.5v225z" />
<glyph d="M840 70v839q0 70 -70 70h-281q-51 0 -67 -47l-277 -840q-4 -16 -4 -24q0 -31 21.5 -49.5t50.5 -18.5q20 0 37.5 12.5t25.5 34.5l263 793h161v-770q0 -33 20.5 -51.5t49.5 -18.5q31 0 50.5 17.5t19.5 52.5z" />
<glyph horiz-adv-x="1120" d="M979 70q0 -33 -20.5 -51.5t-49.5 -18.5q-31 0 -50 17.5t-19 52.5v622l-224 -313q-29 -37 -57 -37q-31 0 -57 37l-221 313v-622q0 -33 -21.5 -51.5t-48.5 -18.5q-33 0 -52.5 17.5t-19.5 52.5v839q0 39 17.5 60.5t44.5 21.5q39 0 67 -41l291 -409l293 409q31 41 66 41 q27 0 44 -21.5t17 -60.5v-839z" />
<glyph d="M700 559h-419v350q0 35 -21.5 52.5t-48.5 17.5q-31 0 -51.5 -18.5t-20.5 -51.5v-839q0 -33 21.5 -51.5t50.5 -18.5q31 0 50.5 17.5t19.5 52.5v350h419v-350q0 -33 20.5 -51.5t49.5 -18.5q31 0 50.5 17.5t19.5 52.5v839q0 35 -20.5 52.5t-49.5 17.5t-49.5 -18.5 t-20.5 -51.5v-350z" />
<glyph d="M840 307v365q0 127 -90.5 217t-217.5 90h-83q-125 0 -220 -90q-90 -90 -90 -217v-365q0 -129 90 -219q90 -88 220 -88h83q129 0 218 88q90 90 90 219zM700 307q0 -70 -49 -119t-119 -49h-83q-70 0 -119 49.5t-49 118.5v365q0 70 49 119t119 49h83q70 0 119 -49.5 t49 -118.5v-365z" />
<glyph d="M840 70v630q0 117 -84 197q-82 82 -197 82h-348q-72 0 -72 -70v-839q0 -33 21.5 -51.5t50.5 -18.5q31 0 50.5 17.5t19.5 52.5v770h278q59 0 100 -41t41 -99v-630q0 -33 20.5 -51.5t49.5 -18.5q31 0 50.5 17.5t19.5 52.5z" />
<glyph d="M281 139v701h278q59 0 100 -41t41 -99v-419q0 -59 -41 -100.5t-100 -41.5h-278zM281 0h278q119 0 199 80q82 82 82 201v419q0 117 -82 199q-80 80 -199 80h-348q-72 0 -72 -70v-1259q0 -33 21.5 -51.5t50.5 -18.5q31 0 50.5 17.5t19.5 52.5v350z" />
<glyph horiz-adv-x="839" d="M631 0q33 0 51 21.5t18 48.5q0 31 -17 50t-52 19h-211q-59 0 -99 41t-40 101v419q0 57 39.5 98.5t99.5 41.5h211q33 0 51 21.5t18 47.5q0 31 -17 50.5t-52 19.5h-211q-117 0 -199 -82t-82 -197v-419q0 -119 82 -201q82 -80 199 -80h211z" />
<glyph horiz-adv-x="1259" d="M559 840v-770q0 -33 21.5 -51.5t50.5 -18.5q31 0 50 17.5t19 52.5v770h140q59 0 99 -41t40 -99v-630q0 -33 21.5 -51.5t50.5 -18.5q31 0 50 17.5t19 52.5v630q0 117 -82 199q-80 80 -198 80h-629q-72 0 -72 -70v-839q0 -33 21.5 -51.5t50.5 -18.5q31 0 50.5 17.5 t19.5 52.5v770h278z" />
<glyph d="M700 0v-139q0 -59 -41 -100.5t-100 -41.5h-278q-35 0 -52.5 -20.5t-17.5 -48.5q0 -29 18.5 -49.5t51.5 -20.5h278q119 0 201 82q80 80 80 199v1048q0 35 -20.5 52.5t-49.5 17.5t-49.5 -18.5t-20.5 -51.5v-770h-280q-59 0 -99 41t-40 101v628q0 35 -21.5 52.5t-48.5 17.5 q-31 0 -51.5 -18.5t-20.5 -51.5v-628q0 -119 82 -201q82 -80 199 -80h280z" />
<glyph horiz-adv-x="1259" d="M700 840q115 0 197 -82t82 -199v-139q0 -117 -82 -199q-80 -82 -197 -82v701zM559 139q-115 0 -196.5 82t-81.5 199v139q0 117 81.5 199t196.5 82v-701zM700 979v211q0 33 -21.5 51.5t-47.5 18.5q-31 0 -51.5 -18.5t-20.5 -51.5v-211q-174 0 -297 -123 q-123 -121 -123 -297v-139q0 -174 123 -297t297 -123v-350q0 -33 21.5 -51.5t50.5 -18.5q31 0 50 17.5t19 52.5v350q174 0 297 123t123 297v139q0 178 -123 299q-121 121 -297 121z" />
<glyph d="M575 489l254 381q12 20 13 39q0 31 -22.5 51.5t-51.5 20.5q-37 0 -57 -33l-222 -332l-221 332q-23 31 -55 31q-29 0 -51.5 -19.5t-22.5 -48.5q0 -8 2 -19t11 -22l254 -381l-254 -380q-12 -18 -13 -39q0 -29 22.5 -50.5t49.5 -21.5q37 0 57 33l221 331l222 -331 q20 -31 57 -31q29 0 51.5 19.5t22.5 48.5q0 25 -13 41z" />
<glyph horiz-adv-x="1120" d="M700 139h-280q-59 0 -99 41t-40 101v628q0 35 -21.5 52.5t-48.5 17.5q-31 0 -51.5 -18.5t-20.5 -51.5v-628q0 -119 82 -201q82 -80 199 -80h420v-55q0 -35 21.5 -53.5t47.5 -18.5q31 0 50.5 18.5t19.5 53.5v125q0 70 -70 69h-69v770q0 35 -20.5 52.5t-49.5 17.5 t-49.5 -18.5t-20.5 -51.5v-770z" />
<glyph d="M700 559h-280q-59 0 -99 41t-40 100v209q0 35 -21.5 52.5t-48.5 17.5q-31 0 -51.5 -18.5t-20.5 -51.5v-209q0 -119 82 -200q82 -80 199 -80h280v-350q0 -33 20.5 -51.5t49.5 -18.5q31 0 50.5 17.5t19.5 52.5v839q0 35 -20.5 52.5t-49.5 17.5t-49.5 -18.5t-20.5 -51.5 v-350z" />
<glyph horiz-adv-x="1259" d="M700 139v770q0 35 -21.5 52.5t-47.5 17.5q-31 0 -51.5 -18.5t-20.5 -51.5v-770h-139q-59 0 -99 41t-40 101v628q0 35 -21.5 52.5t-48.5 17.5q-31 0 -51.5 -18.5t-20.5 -51.5v-628q0 -119 82 -201q82 -80 199 -80h631q70 0 69 70v839q0 35 -21.5 52.5t-47.5 17.5 q-31 0 -51.5 -18.5t-20.5 -51.5v-770h-279z" />
<glyph horiz-adv-x="1400" d="M700 139v770q0 35 -21.5 52.5t-47.5 17.5q-31 0 -51.5 -18.5t-20.5 -51.5v-770h-139q-59 0 -99 41t-40 101v628q0 35 -21.5 52.5t-48.5 17.5q-31 0 -51.5 -18.5t-20.5 -51.5v-628q0 -119 82 -201q82 -80 199 -80h700v-70q0 -35 20.5 -52t49.5 -17q31 0 50.5 17.5 t19.5 51.5v140q0 70 -70 69h-70v770q0 35 -21.5 52.5t-47.5 17.5q-31 0 -51.5 -18.5t-20.5 -51.5v-770h-279z" />
<glyph horiz-adv-x="1050" d="M350 420h281q66 0 106 -43q33 -39 33 -96t-37 -99.5t-102 -42.5h-281v281zM350 559v350q0 70 -69 70h-142q-33 0 -51 -20.5t-18 -49.5t19.5 -49t49.5 -20h72v-770q0 -70 70 -70h350q135 0 211 88q68 76 67 193q0 117 -69 192q-78 86 -209 86h-281z" />
<glyph horiz-adv-x="1120" d="M979 70v839q0 35 -20.5 52.5t-49.5 17.5t-49 -18.5t-20 -51.5v-839q0 -33 21.5 -51.5t47.5 -18.5q31 0 50.5 17.5t19.5 52.5zM281 420h139q70 0 106 -43q33 -39 33 -96t-37 -99.5t-102 -42.5h-139v281zM281 559v350q0 35 -21.5 52.5t-48.5 17.5q-31 0 -51.5 -18.5 t-20.5 -51.5v-839q0 -70 72 -70h209q135 0 211 88q70 76 69 193q0 117 -69 192q-78 86 -211 86h-139z" />
<glyph d="M281 420h278q70 0 107 -43q35 -41 34 -96q0 -57 -36.5 -99.5t-104.5 -42.5h-278v281zM281 559v350q0 35 -21.5 52.5t-48.5 17.5q-31 0 -51.5 -18.5t-20.5 -51.5v-839q0 -70 72 -70h348q133 0 213 88q68 76 68 193t-70 192q-78 86 -211 86h-278z" />
<glyph d="M700 420v-139q0 -59 -41 -100.5t-100 -41.5h-348q-35 0 -53.5 -20.5t-18.5 -48.5q0 -29 19.5 -49.5t52.5 -20.5h348q119 0 199 80q82 82 82 201v419q0 117 -82 199q-80 80 -199 80h-348q-35 0 -53.5 -20.5t-18.5 -49.5t19.5 -49t52.5 -20h348q59 0 100 -41t41 -99v-141 h-211q-33 0 -51 -20.5t-18 -49.5t19.5 -49t49.5 -20h211z" />
<glyph horiz-adv-x="1120" d="M840 238q0 -41 -28 -70t-71 -29h-84q-41 0 -69.5 29t-28.5 70v503q0 41 28.5 70t69.5 29h84q41 0 70 -29t29 -70v-503zM281 559v350q0 35 -21.5 52.5t-48.5 17.5q-31 0 -51.5 -18.5t-20.5 -51.5v-839q0 -33 21.5 -51.5t50.5 -18.5q31 0 50.5 17.5t19.5 52.5v350h139v-182 q0 -98 69.5 -168t167.5 -70h84q100 0 168 70q70 70 70 168v503q0 49 -18.5 93.5t-50 76t-75.5 50t-94 18.5h-84q-98 0 -168 -70q-70 -68 -69 -168v-182h-139z" />
<glyph d="M700 559h-280q-68 0 -103.5 42t-35.5 99t36.5 98.5t102.5 41.5h280v-281zM528 420h172v-350q0 -33 20.5 -51.5t49.5 -18.5q31 0 50.5 17.5t19.5 52.5v839q0 70 -70 70h-350q-133 0 -209 -88q-72 -78 -72 -191q0 -100 58.5 -179t162.5 -97l-208 -315q-12 -18 -13 -39 q0 -29 22.5 -50.5t49.5 -21.5q37 0 57 33z" />
<glyph d="M281 840v420h491q33 0 51.5 21.5t18.5 47.5q0 31 -17.5 51.5t-52.5 20.5h-561q-72 0 -72 -72v-1263q0 -66 72 -66h561q33 0 51.5 21.5t18.5 48.5q0 31 -17.5 50t-52.5 19h-491v561h350q35 0 52 20.5t17 49.5q0 31 -17 50.5t-52 19.5h-350zM211 1679q0 -31 20.5 -51 t51.5 -20t52 20.5t21 50.5q0 31 -21.5 52.5t-51.5 21.5q-31 0 -51.5 -21.5t-20.5 -52.5zM631 1679q0 -29 19.5 -49t49.5 -20q29 0 49.5 20.5t20.5 48.5q0 31 -20.5 50.5t-49.5 19.5q-31 0 -50 -19.5t-19 -50.5z" />
<glyph d="M281 559v141q0 57 39.5 98.5t99.5 41.5h139q59 0 100 -41t41 -99v-141h-419zM281 420h489q70 0 70 69v211q0 117 -82 199q-80 80 -199 80h-139q-117 0 -199 -82q-82 -80 -82 -197v-419q0 -119 82 -201q82 -80 199 -80h350q33 0 51.5 21.5t18.5 48.5q0 31 -17.5 50 t-52.5 19h-350q-59 0 -99 41t-40 101v139zM211 1329q0 -31 20.5 -51.5t51.5 -20.5t52 20.5t21 51.5t-21.5 52.5t-51.5 21.5q-31 0 -51.5 -21.5t-20.5 -52.5zM631 1329q0 -29 19.5 -49t49.5 -20q29 0 49.5 20t20.5 49q0 31 -20.5 51.5t-49.5 20.5q-31 0 -50 -20.5t-19 -51.5z " />
<glyph horiz-adv-x="1679" d="M1540 909v281q0 98 -65 158q-57 51 -146 51q-86 0 -143 -51q-66 -59 -66 -158v-281q0 -98 66 -157q57 -51 143 -52q82 0 146 54q65 59 65 155zM979 70v1259q0 35 -20.5 53.5t-49.5 18.5t-49 -19.5t-20 -52.5v-989l-568 1024q-23 37 -61 37q-31 0 -51.5 -19.5t-20.5 -52.5 v-1259q0 -33 21.5 -51.5t50.5 -18.5q31 0 50.5 17.5t19.5 52.5v989l567 -1022q20 -39 63 -39q29 0 48.5 19.5t19.5 52.5zM1401 909q0 -33 -21.5 -51t-50.5 -18q-31 0 -50 17t-19 52v281q0 33 21.5 50t47.5 17q31 0 51.5 -17t20.5 -50v-281z" />
<glyph d="M281 840v420h491q33 0 51.5 21.5t18.5 47.5q0 31 -17.5 51.5t-52.5 20.5h-561q-72 0 -72 -72v-1263q0 -66 72 -66h561q33 0 51.5 21.5t18.5 48.5q0 31 -17.5 50t-52.5 19h-491v561h350q35 0 52 20.5t17 49.5q0 31 -17 50.5t-52 19.5h-350zM211 1679q0 -31 20.5 -51 t51.5 -20t52 20.5t21 50.5q0 31 -21.5 52.5t-51.5 21.5q-31 0 -51.5 -21.5t-20.5 -52.5zM631 1679q0 -29 19.5 -49t49.5 -20q29 0 49.5 20.5t20.5 48.5q0 31 -20.5 50.5t-49.5 19.5q-31 0 -50 -19.5t-19 -50.5z" />
<glyph d="M281 559v141q0 57 39.5 98.5t99.5 41.5h139q59 0 100 -41t41 -99v-141h-419zM281 420h489q70 0 70 69v211q0 117 -82 199q-80 80 -199 80h-139q-117 0 -199 -82q-82 -80 -82 -197v-419q0 -119 82 -201q82 -80 199 -80h350q33 0 51.5 21.5t18.5 48.5q0 31 -17.5 50 t-52.5 19h-350q-59 0 -99 41t-40 101v139zM211 1329q0 -31 20.5 -51.5t51.5 -20.5t52 20.5t21 51.5t-21.5 52.5t-51.5 21.5q-31 0 -51.5 -21.5t-20.5 -52.5zM631 1329q0 -29 19.5 -49t49.5 -20q29 0 49.5 20t20.5 49q0 31 -20.5 51.5t-49.5 20.5q-31 0 -50 -20.5t-19 -51.5z " />
</font>
</defs>
</svg>
